<?xml version="1.0" encoding="utf-8" standalone="no"?>
<!DOCTYPE svg PUBLIC "-//W3C//DTD SVG 1.1//EN"
  "http://www.w3.org/Graphics/SVG/1.1/DTD/svg11.dtd">
<!-- Created with matplotlib (http://matplotlib.org/) -->
<svg height="288pt" version="1.1" viewBox="0 0 288 288" width="288pt" xmlns="http://www.w3.org/2000/svg" xmlns:xlink="http://www.w3.org/1999/xlink">
 <defs>
  <style type="text/css">
*{stroke-linecap:butt;stroke-linejoin:round;stroke-miterlimit:100000;}
  </style>
 </defs>
 <g id="figure_1">
  <g id="patch_1">
   <path d="M 0 288 
L 288 288 
L 288 0 
L 0 0 
L 0 288 
z
" style="fill:none;"/>
  </g>
  <g id="axes_1">
   <g id="patch_2">
    <path d="M 54.9 241.2 
L 268.7625 241.2 
L 268.7625 26.6 
L 54.9 26.6 
L 54.9 241.2 
z
" style="fill:none;"/>
   </g>
   <g id="matplotlib.axis_1">
    <g id="xtick_1">
     <g id="line2d_1">
      <defs>
       <path d="M 0 0 
L 0 6 
" id="m52f960ffb0" style="stroke:#262626;"/>
      </defs>
      <g>
       <use style="fill:#262626;stroke:#262626;" x="54.9" xlink:href="#m52f960ffb0" y="241.2"/>
      </g>
     </g>
     <g id="text_1">
      <!-- −150 -->
      <defs>
       <path d="M 37.25 0 
L 28.46875 0 
L 28.46875 56 
Q 25.296875 52.984375 20.140625 49.953125 
Q 14.984375 46.921875 10.890625 45.40625 
L 10.890625 53.90625 
Q 18.265625 57.375 23.78125 62.296875 
Q 29.296875 67.234375 31.59375 71.875 
L 37.25 71.875 
z
" id="ArialMT-31"/>
       <path d="M 4.15625 18.75 
L 13.375 19.53125 
Q 14.40625 12.796875 18.140625 9.390625 
Q 21.875 6 27.15625 6 
Q 33.5 6 37.890625 10.78125 
Q 42.28125 15.578125 42.28125 23.484375 
Q 42.28125 31 38.0625 35.34375 
Q 33.84375 39.703125 27 39.703125 
Q 22.75 39.703125 19.328125 37.765625 
Q 15.921875 35.84375 13.96875 32.765625 
L 5.71875 33.84375 
L 12.640625 70.609375 
L 48.25 70.609375 
L 48.25 62.203125 
L 19.671875 62.203125 
L 15.828125 42.96875 
Q 22.265625 47.46875 29.34375 47.46875 
Q 38.71875 47.46875 45.15625 40.96875 
Q 51.609375 34.46875 51.609375 24.265625 
Q 51.609375 14.546875 45.953125 7.46875 
Q 39.0625 -1.21875 27.15625 -1.21875 
Q 17.390625 -1.21875 11.203125 4.25 
Q 5.03125 9.71875 4.15625 18.75 
" id="ArialMT-35"/>
       <path d="M 4.15625 35.296875 
Q 4.15625 48 6.765625 55.734375 
Q 9.375 63.484375 14.515625 67.671875 
Q 19.671875 71.875 27.484375 71.875 
Q 33.25 71.875 37.59375 69.546875 
Q 41.9375 67.234375 44.765625 62.859375 
Q 47.609375 58.5 49.21875 52.21875 
Q 50.828125 45.953125 50.828125 35.296875 
Q 50.828125 22.703125 48.234375 14.96875 
Q 45.65625 7.234375 40.5 3 
Q 35.359375 -1.21875 27.484375 -1.21875 
Q 17.140625 -1.21875 11.234375 6.203125 
Q 4.15625 15.140625 4.15625 35.296875 
M 13.1875 35.296875 
Q 13.1875 17.671875 17.3125 11.828125 
Q 21.4375 6 27.484375 6 
Q 33.546875 6 37.671875 11.859375 
Q 41.796875 17.71875 41.796875 35.296875 
Q 41.796875 52.984375 37.671875 58.78125 
Q 33.546875 64.59375 27.390625 64.59375 
Q 21.34375 64.59375 17.71875 59.46875 
Q 13.1875 52.9375 13.1875 35.296875 
" id="ArialMT-30"/>
       <path d="M 52.828125 31.203125 
L 5.5625 31.203125 
L 5.5625 39.40625 
L 52.828125 39.40625 
z
" id="ArialMT-2212"/>
      </defs>
      <g style="fill:#262626;" transform="translate(43.63828125 261.3578125)scale(0.1 -0.1)">
       <use xlink:href="#ArialMT-2212"/>
       <use x="58.3984375" xlink:href="#ArialMT-31"/>
       <use x="114.013671875" xlink:href="#ArialMT-35"/>
       <use x="169.62890625" xlink:href="#ArialMT-30"/>
      </g>
     </g>
    </g>
    <g id="xtick_2">
     <g id="line2d_2">
      <g>
       <use style="fill:#262626;stroke:#262626;" x="90.54375" xlink:href="#m52f960ffb0" y="241.2"/>
      </g>
     </g>
     <g id="text_2">
      <!-- −100 -->
      <g style="fill:#262626;" transform="translate(79.28203125 261.3578125)scale(0.1 -0.1)">
       <use xlink:href="#ArialMT-2212"/>
       <use x="58.3984375" xlink:href="#ArialMT-31"/>
       <use x="114.013671875" xlink:href="#ArialMT-30"/>
       <use x="169.62890625" xlink:href="#ArialMT-30"/>
      </g>
     </g>
    </g>
    <g id="xtick_3">
     <g id="line2d_3">
      <g>
       <use style="fill:#262626;stroke:#262626;" x="126.1875" xlink:href="#m52f960ffb0" y="241.2"/>
      </g>
     </g>
     <g id="text_3">
      <!-- −50 -->
      <g style="fill:#262626;" transform="translate(117.70625 261.3578125)scale(0.1 -0.1)">
       <use xlink:href="#ArialMT-2212"/>
       <use x="58.3984375" xlink:href="#ArialMT-35"/>
       <use x="114.013671875" xlink:href="#ArialMT-30"/>
      </g>
     </g>
    </g>
    <g id="xtick_4">
     <g id="line2d_4">
      <g>
       <use style="fill:#262626;stroke:#262626;" x="161.83125" xlink:href="#m52f960ffb0" y="241.2"/>
      </g>
     </g>
     <g id="text_4">
      <!-- 0 -->
      <g style="fill:#262626;" transform="translate(159.05078125 261.3578125)scale(0.1 -0.1)">
       <use xlink:href="#ArialMT-30"/>
      </g>
     </g>
    </g>
    <g id="xtick_5">
     <g id="line2d_5">
      <g>
       <use style="fill:#262626;stroke:#262626;" x="197.475" xlink:href="#m52f960ffb0" y="241.2"/>
      </g>
     </g>
     <g id="text_5">
      <!-- 50 -->
      <g style="fill:#262626;" transform="translate(191.9140625 261.3578125)scale(0.1 -0.1)">
       <use xlink:href="#ArialMT-35"/>
       <use x="55.615234375" xlink:href="#ArialMT-30"/>
      </g>
     </g>
    </g>
    <g id="xtick_6">
     <g id="line2d_6">
      <g>
       <use style="fill:#262626;stroke:#262626;" x="233.11875" xlink:href="#m52f960ffb0" y="241.2"/>
      </g>
     </g>
     <g id="text_6">
      <!-- 100 -->
      <g style="fill:#262626;" transform="translate(224.77734375 261.3578125)scale(0.1 -0.1)">
       <use xlink:href="#ArialMT-31"/>
       <use x="55.615234375" xlink:href="#ArialMT-30"/>
       <use x="111.23046875" xlink:href="#ArialMT-30"/>
      </g>
     </g>
    </g>
    <g id="xtick_7">
     <g id="line2d_7">
      <g>
       <use style="fill:#262626;stroke:#262626;" x="268.7625" xlink:href="#m52f960ffb0" y="241.2"/>
      </g>
     </g>
     <g id="text_7">
      <!-- 150 -->
      <g style="fill:#262626;" transform="translate(260.42109375 261.3578125)scale(0.1 -0.1)">
       <use xlink:href="#ArialMT-31"/>
       <use x="55.615234375" xlink:href="#ArialMT-35"/>
       <use x="111.23046875" xlink:href="#ArialMT-30"/>
      </g>
     </g>
    </g>
    <g id="text_8">
     <!-- PCA 1 -->
     <defs>
      <path d="M -0.140625 0 
L 27.34375 71.578125 
L 37.546875 71.578125 
L 66.84375 0 
L 56.0625 0 
L 47.703125 21.6875 
L 17.78125 21.6875 
L 9.90625 0 
z
M 20.515625 29.390625 
L 44.78125 29.390625 
L 37.3125 49.21875 
Q 33.890625 58.25 32.234375 64.0625 
Q 30.859375 57.171875 28.375 50.390625 
z
" id="ArialMT-41"/>
      <path id="ArialMT-20"/>
      <path d="M 7.71875 0 
L 7.71875 71.578125 
L 34.71875 71.578125 
Q 41.84375 71.578125 45.609375 70.90625 
Q 50.875 70.015625 54.4375 67.546875 
Q 58.015625 65.09375 60.1875 60.640625 
Q 62.359375 56.203125 62.359375 50.875 
Q 62.359375 41.75 56.546875 35.421875 
Q 50.734375 29.109375 35.546875 29.109375 
L 17.1875 29.109375 
L 17.1875 0 
z
M 17.1875 37.546875 
L 35.6875 37.546875 
Q 44.875 37.546875 48.734375 40.96875 
Q 52.59375 44.390625 52.59375 50.59375 
Q 52.59375 55.078125 50.3125 58.265625 
Q 48.046875 61.46875 44.34375 62.5 
Q 41.9375 63.140625 35.5 63.140625 
L 17.1875 63.140625 
z
" id="ArialMT-50"/>
      <path d="M 58.796875 25.09375 
L 68.265625 22.703125 
Q 65.28125 11.03125 57.546875 4.90625 
Q 49.8125 -1.21875 38.625 -1.21875 
Q 27.046875 -1.21875 19.796875 3.484375 
Q 12.546875 8.203125 8.765625 17.140625 
Q 4.984375 26.078125 4.984375 36.328125 
Q 4.984375 47.515625 9.25 55.828125 
Q 13.53125 64.15625 21.40625 68.46875 
Q 29.296875 72.796875 38.765625 72.796875 
Q 49.515625 72.796875 56.828125 67.328125 
Q 64.15625 61.859375 67.046875 51.953125 
L 57.71875 49.75 
Q 55.21875 57.5625 50.484375 61.125 
Q 45.75 64.703125 38.578125 64.703125 
Q 30.328125 64.703125 24.78125 60.734375 
Q 19.234375 56.78125 16.984375 50.109375 
Q 14.75 43.453125 14.75 36.375 
Q 14.75 27.25 17.40625 20.4375 
Q 20.0625 13.625 25.671875 10.25 
Q 31.296875 6.890625 37.84375 6.890625 
Q 45.796875 6.890625 51.3125 11.46875 
Q 56.84375 16.0625 58.796875 25.09375 
" id="ArialMT-43"/>
     </defs>
     <g style="fill:#262626;" transform="translate(145.9396875 276.21890625)scale(0.11 -0.11)">
      <use xlink:href="#ArialMT-50"/>
      <use x="66.69921875" xlink:href="#ArialMT-43"/>
      <use x="138.916015625" xlink:href="#ArialMT-41"/>
      <use x="205.537109375" xlink:href="#ArialMT-20"/>
      <use x="233.3203125" xlink:href="#ArialMT-31"/>
     </g>
    </g>
   </g>
   <g id="matplotlib.axis_2">
    <g id="ytick_1">
     <g id="line2d_8">
      <defs>
       <path d="M 0 0 
L -6 0 
" id="ma369ecf26d" style="stroke:#262626;"/>
      </defs>
      <g>
       <use style="fill:#262626;stroke:#262626;" x="54.9" xlink:href="#ma369ecf26d" y="241.2"/>
      </g>
     </g>
     <g id="text_9">
      <!-- −60 -->
      <defs>
       <path d="M 49.75 54.046875 
L 41.015625 53.375 
Q 39.84375 58.546875 37.703125 60.890625 
Q 34.125 64.65625 28.90625 64.65625 
Q 24.703125 64.65625 21.53125 62.3125 
Q 17.390625 59.28125 14.984375 53.46875 
Q 12.59375 47.65625 12.5 36.921875 
Q 15.671875 41.75 20.265625 44.09375 
Q 24.859375 46.4375 29.890625 46.4375 
Q 38.671875 46.4375 44.84375 39.96875 
Q 51.03125 33.5 51.03125 23.25 
Q 51.03125 16.5 48.125 10.71875 
Q 45.21875 4.9375 40.140625 1.859375 
Q 35.0625 -1.21875 28.609375 -1.21875 
Q 17.625 -1.21875 10.6875 6.859375 
Q 3.765625 14.9375 3.765625 33.5 
Q 3.765625 54.25 11.421875 63.671875 
Q 18.109375 71.875 29.4375 71.875 
Q 37.890625 71.875 43.28125 67.140625 
Q 48.6875 62.40625 49.75 54.046875 
M 13.875 23.1875 
Q 13.875 18.65625 15.796875 14.5 
Q 17.71875 10.359375 21.1875 8.171875 
Q 24.65625 6 28.46875 6 
Q 34.03125 6 38.03125 10.484375 
Q 42.046875 14.984375 42.046875 22.703125 
Q 42.046875 30.125 38.078125 34.390625 
Q 34.125 38.671875 28.125 38.671875 
Q 22.171875 38.671875 18.015625 34.390625 
Q 13.875 30.125 13.875 23.1875 
" id="ArialMT-36"/>
      </defs>
      <g style="fill:#262626;" transform="translate(24.9375 243.78515625)scale(0.1 -0.1)">
       <use xlink:href="#ArialMT-2212"/>
       <use x="58.3984375" xlink:href="#ArialMT-36"/>
       <use x="114.013671875" xlink:href="#ArialMT-30"/>
      </g>
     </g>
    </g>
    <g id="ytick_2">
     <g id="line2d_9">
      <g>
       <use style="fill:#262626;stroke:#262626;" x="54.9" xlink:href="#ma369ecf26d" y="210.542857143"/>
      </g>
     </g>
     <g id="text_10">
      <!-- −40 -->
      <defs>
       <path d="M 32.328125 0 
L 32.328125 17.140625 
L 1.265625 17.140625 
L 1.265625 25.203125 
L 33.9375 71.578125 
L 41.109375 71.578125 
L 41.109375 25.203125 
L 50.78125 25.203125 
L 50.78125 17.140625 
L 41.109375 17.140625 
L 41.109375 0 
z
M 32.328125 25.203125 
L 32.328125 57.46875 
L 9.90625 25.203125 
z
" id="ArialMT-34"/>
      </defs>
      <g style="fill:#262626;" transform="translate(24.9375 213.128013393)scale(0.1 -0.1)">
       <use xlink:href="#ArialMT-2212"/>
       <use x="58.3984375" xlink:href="#ArialMT-34"/>
       <use x="114.013671875" xlink:href="#ArialMT-30"/>
      </g>
     </g>
    </g>
    <g id="ytick_3">
     <g id="line2d_10">
      <g>
       <use style="fill:#262626;stroke:#262626;" x="54.9" xlink:href="#ma369ecf26d" y="179.885714286"/>
      </g>
     </g>
     <g id="text_11">
      <!-- −20 -->
      <defs>
       <path d="M 50.34375 8.453125 
L 50.34375 0 
L 3.03125 0 
Q 2.9375 3.171875 4.046875 6.109375 
Q 5.859375 10.9375 9.828125 15.625 
Q 13.8125 20.3125 21.34375 26.46875 
Q 33.015625 36.03125 37.109375 41.625 
Q 41.21875 47.21875 41.21875 52.203125 
Q 41.21875 57.421875 37.46875 61 
Q 33.734375 64.59375 27.734375 64.59375 
Q 21.390625 64.59375 17.578125 60.78125 
Q 13.765625 56.984375 13.71875 50.25 
L 4.6875 51.171875 
Q 5.609375 61.28125 11.65625 66.578125 
Q 17.71875 71.875 27.9375 71.875 
Q 38.234375 71.875 44.234375 66.15625 
Q 50.25 60.453125 50.25 52 
Q 50.25 47.703125 48.484375 43.546875 
Q 46.734375 39.40625 42.65625 34.8125 
Q 38.578125 30.21875 29.109375 22.21875 
Q 21.1875 15.578125 18.9375 13.203125 
Q 16.703125 10.84375 15.234375 8.453125 
z
" id="ArialMT-32"/>
      </defs>
      <g style="fill:#262626;" transform="translate(24.9375 182.470870536)scale(0.1 -0.1)">
       <use xlink:href="#ArialMT-2212"/>
       <use x="58.3984375" xlink:href="#ArialMT-32"/>
       <use x="114.013671875" xlink:href="#ArialMT-30"/>
      </g>
     </g>
    </g>
    <g id="ytick_4">
     <g id="line2d_11">
      <g>
       <use style="fill:#262626;stroke:#262626;" x="54.9" xlink:href="#ma369ecf26d" y="149.228571429"/>
      </g>
     </g>
     <g id="text_12">
      <!-- 0 -->
      <g style="fill:#262626;" transform="translate(36.3390625 151.813727679)scale(0.1 -0.1)">
       <use xlink:href="#ArialMT-30"/>
      </g>
     </g>
    </g>
    <g id="ytick_5">
     <g id="line2d_12">
      <g>
       <use style="fill:#262626;stroke:#262626;" x="54.9" xlink:href="#ma369ecf26d" y="118.571428571"/>
      </g>
     </g>
     <g id="text_13">
      <!-- 20 -->
      <g style="fill:#262626;" transform="translate(30.778125 121.156584821)scale(0.1 -0.1)">
       <use xlink:href="#ArialMT-32"/>
       <use x="55.615234375" xlink:href="#ArialMT-30"/>
      </g>
     </g>
    </g>
    <g id="ytick_6">
     <g id="line2d_13">
      <g>
       <use style="fill:#262626;stroke:#262626;" x="54.9" xlink:href="#ma369ecf26d" y="87.9142857143"/>
      </g>
     </g>
     <g id="text_14">
      <!-- 40 -->
      <g style="fill:#262626;" transform="translate(30.778125 90.4994419643)scale(0.1 -0.1)">
       <use xlink:href="#ArialMT-34"/>
       <use x="55.615234375" xlink:href="#ArialMT-30"/>
      </g>
     </g>
    </g>
    <g id="ytick_7">
     <g id="line2d_14">
      <g>
       <use style="fill:#262626;stroke:#262626;" x="54.9" xlink:href="#ma369ecf26d" y="57.2571428571"/>
      </g>
     </g>
     <g id="text_15">
      <!-- 60 -->
      <g style="fill:#262626;" transform="translate(30.778125 59.8422991071)scale(0.1 -0.1)">
       <use xlink:href="#ArialMT-36"/>
       <use x="55.615234375" xlink:href="#ArialMT-30"/>
      </g>
     </g>
    </g>
    <g id="ytick_8">
     <g id="line2d_15">
      <g>
       <use style="fill:#262626;stroke:#262626;" x="54.9" xlink:href="#ma369ecf26d" y="26.6"/>
      </g>
     </g>
     <g id="text_16">
      <!-- 80 -->
      <defs>
       <path d="M 17.671875 38.8125 
Q 12.203125 40.828125 9.5625 44.53125 
Q 6.9375 48.25 6.9375 53.421875 
Q 6.9375 61.234375 12.546875 66.546875 
Q 18.171875 71.875 27.484375 71.875 
Q 36.859375 71.875 42.578125 66.421875 
Q 48.296875 60.984375 48.296875 53.171875 
Q 48.296875 48.1875 45.671875 44.5 
Q 43.0625 40.828125 37.75 38.8125 
Q 44.34375 36.671875 47.78125 31.875 
Q 51.21875 27.09375 51.21875 20.453125 
Q 51.21875 11.28125 44.71875 5.03125 
Q 38.234375 -1.21875 27.640625 -1.21875 
Q 17.046875 -1.21875 10.546875 5.046875 
Q 4.046875 11.328125 4.046875 20.703125 
Q 4.046875 27.6875 7.59375 32.390625 
Q 11.140625 37.109375 17.671875 38.8125 
M 15.921875 53.71875 
Q 15.921875 48.640625 19.1875 45.40625 
Q 22.46875 42.1875 27.6875 42.1875 
Q 32.765625 42.1875 36.015625 45.375 
Q 39.265625 48.578125 39.265625 53.21875 
Q 39.265625 58.0625 35.90625 61.359375 
Q 32.5625 64.65625 27.59375 64.65625 
Q 22.5625 64.65625 19.234375 61.421875 
Q 15.921875 58.203125 15.921875 53.71875 
M 13.09375 20.65625 
Q 13.09375 16.890625 14.875 13.375 
Q 16.65625 9.859375 20.171875 7.921875 
Q 23.6875 6 27.734375 6 
Q 34.03125 6 38.125 10.046875 
Q 42.234375 14.109375 42.234375 20.359375 
Q 42.234375 26.703125 38.015625 30.859375 
Q 33.796875 35.015625 27.4375 35.015625 
Q 21.234375 35.015625 17.15625 30.90625 
Q 13.09375 26.8125 13.09375 20.65625 
" id="ArialMT-38"/>
      </defs>
      <g style="fill:#262626;" transform="translate(30.778125 29.18515625)scale(0.1 -0.1)">
       <use xlink:href="#ArialMT-38"/>
       <use x="55.615234375" xlink:href="#ArialMT-30"/>
      </g>
     </g>
    </g>
    <g id="text_17">
     <!-- PCA 2 -->
     <g style="fill:#262626;" transform="translate(17.75125 149.7915625)rotate(-90.0)scale(0.11 -0.11)">
      <use xlink:href="#ArialMT-50"/>
      <use x="66.69921875" xlink:href="#ArialMT-43"/>
      <use x="138.916015625" xlink:href="#ArialMT-41"/>
      <use x="205.537109375" xlink:href="#ArialMT-20"/>
      <use x="233.3203125" xlink:href="#ArialMT-32"/>
     </g>
    </g>
   </g>
   <g id="LineCollection_1">
    <path clip-path="url(#p454d90473b)" d="M 153.473898 219.709696 
L 156.902555 219.817158 
L 160.368531 219.696994 
L 163.75987 219.359269 
L 167.188527 218.795353 
L 170.724072 217.976754 
L 174.045842 216.984442 
L 177.474499 215.724726 
L 180.903156 214.215672 
L 184.331814 212.442881 
L 187.331889 210.660543 
L 190.513145 208.515431 
L 193.345521 206.36513 
L 196.376523 203.78477 
L 199.332189 200.955432 
L 201.913737 198.193988 
L 204.475175 195.14178 
L 207.046668 191.704701 
L 209.309067 188.302605 
L 211.344415 184.862124 
L 213.362093 180.991583 
L 215.117929 177.121042 
L 216.63272 173.250501 
L 217.922134 169.37996 
L 219.046969 165.312311 
L 219.953846 161.208818 
L 220.665513 156.908216 
L 221.138112 152.607615 
L 221.374032 148.307014 
L 221.372468 144.006413 
L 221.129934 139.705812 
L 220.700351 135.835271 
L 220.063154 131.964729 
L 219.208322 128.094188 
L 218.122635 124.223647 
L 216.788684 120.353106 
L 215.375996 116.912625 
L 213.727774 113.472144 
L 211.816204 110.031663 
L 209.898347 107.021242 
L 207.716504 104.010822 
L 205.33234 101.122898 
L 203.189429 98.821369 
L 200.506703 96.269739 
L 197.935915 94.119439 
L 194.99928 91.969138 
L 192.046293 90.0973 
L 189.046217 88.462443 
L 186.046142 87.071935 
L 183.046067 85.906803 
L 179.61741 84.83213 
L 176.188753 84.015336 
L 172.760095 83.44355 
L 169.331438 83.107184 
L 165.902781 82.999811 
L 162.474123 83.117146 
L 159.045466 83.457593 
L 155.616809 84.021398 
L 152.188151 84.81132 
L 148.759494 85.832312 
L 145.330837 87.091966 
L 141.902179 88.601008 
L 138.473522 90.373721 
L 135.044865 92.429214 
L 131.948379 94.549499 
L 129.044714 96.786964 
L 126.044639 99.380979 
L 123.044564 102.29944 
L 120.297323 105.301002 
L 117.829997 108.311423 
L 115.312338 111.751904 
L 113.07538 115.192385 
L 111.044264 118.711481 
L 109.11682 122.503407 
L 107.404537 126.373948 
L 105.901278 130.327781 
L 104.615531 134.332194 
L 103.536631 138.415631 
L 102.644405 142.716232 
L 101.994797 147.016834 
L 101.583288 151.317435 
L 101.408346 155.618036 
L 101.471544 159.918637 
L 101.777026 164.219238 
L 102.265211 168.08978 
L 102.963649 171.960321 
L 103.883018 175.830862 
L 105.044113 179.720345 
L 106.446782 183.571944 
L 108.044188 187.249811 
L 109.758517 190.629669 
L 111.666204 193.893387 
L 113.676644 196.903808 
L 115.966602 199.914228 
L 118.33016 202.645862 
L 120.901653 205.261348 
L 123.582848 207.655311 
L 126.473221 209.910272 
L 129.500915 211.955912 
L 132.473372 213.685349 
L 135.473447 215.177924 
L 138.473522 216.437582 
L 141.687014 217.546693 
L 144.902255 218.424603 
L 148.330912 219.117554 
L 151.759569 219.570592 
L 153.473898 219.709696 
L 153.473898 219.709696 
" style="fill:none;stroke:#ff0000;stroke-width:2.0;"/>
   </g>
   <g id="line2d_16">
    <defs>
     <path d="M 0 1.75 
C 0.464105 1.75 0.909265 1.565609 1.237437 1.237437 
C 1.565609 0.909265 1.75 0.464105 1.75 0 
C 1.75 -0.464105 1.565609 -0.909265 1.237437 -1.237437 
C 0.909265 -1.565609 0.464105 -1.75 0 -1.75 
C -0.464105 -1.75 -0.909265 -1.565609 -1.237437 -1.237437 
C -1.565609 -0.909265 -1.75 -0.464105 -1.75 0 
C -1.75 0.464105 -1.565609 0.909265 -1.237437 1.237437 
C -0.909265 1.565609 -0.464105 1.75 0 1.75 
z
" id="m35d185fbaa"/>
    </defs>
    <g clip-path="url(#p454d90473b)">
     <use style="fill:#4c72b0;" x="135.602823061" xlink:href="#m35d185fbaa" y="122.135847936"/>
     <use style="fill:#4c72b0;" x="150.342427425" xlink:href="#m35d185fbaa" y="124.935469384"/>
     <use style="fill:#4c72b0;" x="148.642585398" xlink:href="#m35d185fbaa" y="152.546947888"/>
     <use style="fill:#4c72b0;" x="147.560221561" xlink:href="#m35d185fbaa" y="158.103559692"/>
     <use style="fill:#4c72b0;" x="146.230536686" xlink:href="#m35d185fbaa" y="187.449633412"/>
     <use style="fill:#4c72b0;" x="164.634170938" xlink:href="#m35d185fbaa" y="125.593013972"/>
     <use style="fill:#4c72b0;" x="160.914269226" xlink:href="#m35d185fbaa" y="185.735595818"/>
     <use style="fill:#4c72b0;" x="160.694366685" xlink:href="#m35d185fbaa" y="176.858837051"/>
     <use style="fill:#4c72b0;" x="161.104612573" xlink:href="#m35d185fbaa" y="170.868830725"/>
     <use style="fill:#4c72b0;" x="158.902073569" xlink:href="#m35d185fbaa" y="201.795054865"/>
     <use style="fill:#4c72b0;" x="179.386634324" xlink:href="#m35d185fbaa" y="119.589905948"/>
     <use style="fill:#4c72b0;" x="177.699195858" xlink:href="#m35d185fbaa" y="148.247483173"/>
     <use style="fill:#4c72b0;" x="177.050356088" xlink:href="#m35d185fbaa" y="149.592550569"/>
     <use style="fill:#4c72b0;" x="175.974382075" xlink:href="#m35d185fbaa" y="177.465638297"/>
     <use style="fill:#4c72b0;" x="175.56554969" xlink:href="#m35d185fbaa" y="166.719316396"/>
     <use style="fill:#4c72b0;" x="176.791421053" xlink:href="#m35d185fbaa" y="158.276733206"/>
     <use style="fill:#4c72b0;" x="174.722013968" xlink:href="#m35d185fbaa" y="170.359800686"/>
     <use style="fill:#4c72b0;" x="173.098036358" xlink:href="#m35d185fbaa" y="187.834553044"/>
     <use style="fill:#4c72b0;" x="194.479125705" xlink:href="#m35d185fbaa" y="113.110141312"/>
     <use style="fill:#4c72b0;" x="190.796118014" xlink:href="#m35d185fbaa" y="156.12645382"/>
     <use style="fill:#4c72b0;" x="133.113860276" xlink:href="#m35d185fbaa" y="143.790243664"/>
     <use style="fill:#4c72b0;" x="145.820659524" xlink:href="#m35d185fbaa" y="148.52344015"/>
     <use style="fill:#4c72b0;" x="146.052379896" xlink:href="#m35d185fbaa" y="162.275156156"/>
     <use style="fill:#4c72b0;" x="156.418793526" xlink:href="#m35d185fbaa" y="154.364695642"/>
     <use style="fill:#4c72b0;" x="160.1073137" xlink:href="#m35d185fbaa" y="166.192207651"/>
     <use style="fill:#4c72b0;" x="160.311611843" xlink:href="#m35d185fbaa" y="162.03800664"/>
     <use style="fill:#4c72b0;" x="169.610248394" xlink:href="#m35d185fbaa" y="154.479340182"/>
     <use style="fill:#4c72b0;" x="173.667001951" xlink:href="#m35d185fbaa" y="164.834580606"/>
     <use style="fill:#4c72b0;" x="172.11482552" xlink:href="#m35d185fbaa" y="192.464801823"/>
     <use style="fill:#4c72b0;" x="172.321029496" xlink:href="#m35d185fbaa" y="180.866560435"/>
     <use style="fill:#4c72b0;" x="172.54136548" xlink:href="#m35d185fbaa" y="178.411477302"/>
     <use style="fill:#4c72b0;" x="173.325258634" xlink:href="#m35d185fbaa" y="174.71489778"/>
     <use style="fill:#4c72b0;" x="188.227366198" xlink:href="#m35d185fbaa" y="157.601888641"/>
     <use style="fill:#4c72b0;" x="186.701508308" xlink:href="#m35d185fbaa" y="173.869346869"/>
     <use style="fill:#4c72b0;" x="185.995063954" xlink:href="#m35d185fbaa" y="185.053965555"/>
     <use style="fill:#4c72b0;" x="131.993219383" xlink:href="#m35d185fbaa" y="127.857164555"/>
     <use style="fill:#4c72b0;" x="130.400953838" xlink:href="#m35d185fbaa" y="153.763407919"/>
     <use style="fill:#4c72b0;" x="146.369618149" xlink:href="#m35d185fbaa" y="130.571784944"/>
     <use style="fill:#4c72b0;" x="146.87336287" xlink:href="#m35d185fbaa" y="128.59151267"/>
     <use style="fill:#4c72b0;" x="147.42950406" xlink:href="#m35d185fbaa" y="125.513529145"/>
     <use style="fill:#4c72b0;" x="147.29838138" xlink:href="#m35d185fbaa" y="127.659720248"/>
     <use style="fill:#4c72b0;" x="144.77323749" xlink:href="#m35d185fbaa" y="156.054419283"/>
     <use style="fill:#4c72b0;" x="144.975358366" xlink:href="#m35d185fbaa" y="156.236793621"/>
     <use style="fill:#4c72b0;" x="144.788525501" xlink:href="#m35d185fbaa" y="160.079369051"/>
     <use style="fill:#4c72b0;" x="145.211563225" xlink:href="#m35d185fbaa" y="157.462194439"/>
     <use style="fill:#4c72b0;" x="145.129356365" xlink:href="#m35d185fbaa" y="156.870990431"/>
     <use style="fill:#4c72b0;" x="143.707889073" xlink:href="#m35d185fbaa" y="177.100337271"/>
     <use style="fill:#4c72b0;" x="143.148209174" xlink:href="#m35d185fbaa" y="187.17642628"/>
     <use style="fill:#4c72b0;" x="161.47899428" xlink:href="#m35d185fbaa" y="128.388962657"/>
     <use style="fill:#4c72b0;" x="160.222642595" xlink:href="#m35d185fbaa" y="150.493634159"/>
     <use style="fill:#4c72b0;" x="158.556631253" xlink:href="#m35d185fbaa" y="163.828791044"/>
     <use style="fill:#4c72b0;" x="157.331627801" xlink:href="#m35d185fbaa" y="187.11552649"/>
     <use style="fill:#4c72b0;" x="156.040570762" xlink:href="#m35d185fbaa" y="201.358982207"/>
     <use style="fill:#4c72b0;" x="176.823247332" xlink:href="#m35d185fbaa" y="120.53272209"/>
     <use style="fill:#4c72b0;" x="176.731952019" xlink:href="#m35d185fbaa" y="121.895695286"/>
     <use style="fill:#4c72b0;" x="176.647887194" xlink:href="#m35d185fbaa" y="123.161532041"/>
     <use style="fill:#4c72b0;" x="174.42063879" xlink:href="#m35d185fbaa" y="148.68684405"/>
     <use style="fill:#4c72b0;" x="170.209663721" xlink:href="#m35d185fbaa" y="191.013867849"/>
     <use style="fill:#4c72b0;" x="170.378267376" xlink:href="#m35d185fbaa" y="197.773338951"/>
     <use style="fill:#4c72b0;" x="169.877349924" xlink:href="#m35d185fbaa" y="197.035423142"/>
     <use style="fill:#4c72b0;" x="190.805140181" xlink:href="#m35d185fbaa" y="111.728203599"/>
     <use style="fill:#4c72b0;" x="205.425187543" xlink:href="#m35d185fbaa" y="107.675539536"/>
     <use style="fill:#4c72b0;" x="128.589860498" xlink:href="#m35d185fbaa" y="141.954181709"/>
     <use style="fill:#4c72b0;" x="142.311805879" xlink:href="#m35d185fbaa" y="147.277530428"/>
     <use style="fill:#4c72b0;" x="142.73798813" xlink:href="#m35d185fbaa" y="162.46640646"/>
     <use style="fill:#4c72b0;" x="153.901209755" xlink:href="#m35d185fbaa" y="152.969514724"/>
     <use style="fill:#4c72b0;" x="128.262647819" xlink:href="#m35d185fbaa" y="128.826276669"/>
     <use style="fill:#4c72b0;" x="129.535960276" xlink:href="#m35d185fbaa" y="125.470176881"/>
     <use style="fill:#4c72b0;" x="157.029587755" xlink:href="#m35d185fbaa" y="152.484577102"/>
     <use style="fill:#4c72b0;" x="114.259119002" xlink:href="#m35d185fbaa" y="132.930037154"/>
     <use style="fill:#4c72b0;" x="130.060852598" xlink:href="#m35d185fbaa" y="121.985421008"/>
     <use style="fill:#4c72b0;" x="129.195154058" xlink:href="#m35d185fbaa" y="141.561835935"/>
     <use style="fill:#4c72b0;" x="129.456166291" xlink:href="#m35d185fbaa" y="141.657246741"/>
     <use style="fill:#4c72b0;" x="129.194456569" xlink:href="#m35d185fbaa" y="141.5697436"/>
     <use style="fill:#4c72b0;" x="128.804269834" xlink:href="#m35d185fbaa" y="145.207803597"/>
     <use style="fill:#4c72b0;" x="128.455644655" xlink:href="#m35d185fbaa" y="175.62968767"/>
     <use style="fill:#4c72b0;" x="145.494759692" xlink:href="#m35d185fbaa" y="121.427300323"/>
     <use style="fill:#4c72b0;" x="143.746162794" xlink:href="#m35d185fbaa" y="148.043272444"/>
     <use style="fill:#4c72b0;" x="142.113961142" xlink:href="#m35d185fbaa" y="178.84853382"/>
     <use style="fill:#4c72b0;" x="143.531410414" xlink:href="#m35d185fbaa" y="151.061119021"/>
     <use style="fill:#4c72b0;" x="161.388711786" xlink:href="#m35d185fbaa" y="116.835479179"/>
     <use style="fill:#4c72b0;" x="158.515931081" xlink:href="#m35d185fbaa" y="146.999362196"/>
     <use style="fill:#4c72b0;" x="158.663468239" xlink:href="#m35d185fbaa" y="148.435044767"/>
     <use style="fill:#4c72b0;" x="158.10235218" xlink:href="#m35d185fbaa" y="151.187467654"/>
     <use style="fill:#4c72b0;" x="157.472317672" xlink:href="#m35d185fbaa" y="154.849948746"/>
     <use style="fill:#4c72b0;" x="156.153149978" xlink:href="#m35d185fbaa" y="169.827116191"/>
     <use style="fill:#4c72b0;" x="158.784431069" xlink:href="#m35d185fbaa" y="145.406501354"/>
     <use style="fill:#4c72b0;" x="157.183930604" xlink:href="#m35d185fbaa" y="163.536570396"/>
     <use style="fill:#4c72b0;" x="156.2212313" xlink:href="#m35d185fbaa" y="160.692103165"/>
     <use style="fill:#4c72b0;" x="155.04224867" xlink:href="#m35d185fbaa" y="194.12347705"/>
     <use style="fill:#4c72b0;" x="156.182395692" xlink:href="#m35d185fbaa" y="183.867409431"/>
     <use style="fill:#4c72b0;" x="154.601004353" xlink:href="#m35d185fbaa" y="195.540844756"/>
     <use style="fill:#4c72b0;" x="155.127986077" xlink:href="#m35d185fbaa" y="161.424940828"/>
     <use style="fill:#4c72b0;" x="175.126419861" xlink:href="#m35d185fbaa" y="120.317829712"/>
     <use style="fill:#4c72b0;" x="173.76758112" xlink:href="#m35d185fbaa" y="141.421897528"/>
     <use style="fill:#4c72b0;" x="173.441408588" xlink:href="#m35d185fbaa" y="143.419144446"/>
     <use style="fill:#4c72b0;" x="171.884262624" xlink:href="#m35d185fbaa" y="171.78442784"/>
     <use style="fill:#4c72b0;" x="168.245679707" xlink:href="#m35d185fbaa" y="185.751966276"/>
     <use style="fill:#4c72b0;" x="168.556475402" xlink:href="#m35d185fbaa" y="195.807708019"/>
     <use style="fill:#4c72b0;" x="169.115551201" xlink:href="#m35d185fbaa" y="181.944141777"/>
     <use style="fill:#4c72b0;" x="191.203360264" xlink:href="#m35d185fbaa" y="102.663651454"/>
     <use style="fill:#4c72b0;" x="188.671281748" xlink:href="#m35d185fbaa" y="134.264617298"/>
     <use style="fill:#4c72b0;" x="189.205098925" xlink:href="#m35d185fbaa" y="130.298628749"/>
     <use style="fill:#4c72b0;" x="186.376799675" xlink:href="#m35d185fbaa" y="146.359078311"/>
     <use style="fill:#4c72b0;" x="184.621405128" xlink:href="#m35d185fbaa" y="149.679256137"/>
     <use style="fill:#4c72b0;" x="184.705663736" xlink:href="#m35d185fbaa" y="151.731915285"/>
     <use style="fill:#4c72b0;" x="130.83238285" xlink:href="#m35d185fbaa" y="119.250072861"/>
     <use style="fill:#4c72b0;" x="130.991384423" xlink:href="#m35d185fbaa" y="119.938377539"/>
     <use style="fill:#4c72b0;" x="143.298691265" xlink:href="#m35d185fbaa" y="153.152703707"/>
     <use style="fill:#4c72b0;" x="142.338889207" xlink:href="#m35d185fbaa" y="184.092763573"/>
     <use style="fill:#4c72b0;" x="160.692905024" xlink:href="#m35d185fbaa" y="121.171687591"/>
     <use style="fill:#4c72b0;" x="156.834152346" xlink:href="#m35d185fbaa" y="166.505131492"/>
     <use style="fill:#4c72b0;" x="156.922759985" xlink:href="#m35d185fbaa" y="182.038179223"/>
     <use style="fill:#4c72b0;" x="155.564539679" xlink:href="#m35d185fbaa" y="158.043010945"/>
     <use style="fill:#4c72b0;" x="188.202975411" xlink:href="#m35d185fbaa" y="119.105008053"/>
     <use style="fill:#4c72b0;" x="184.925303506" xlink:href="#m35d185fbaa" y="157.554775663"/>
     <use style="fill:#4c72b0;" x="216.913509469" xlink:href="#m35d185fbaa" y="122.600367944"/>
     <use style="fill:#4c72b0;" x="126.862329423" xlink:href="#m35d185fbaa" y="146.579500378"/>
     <use style="fill:#4c72b0;" x="142.018753574" xlink:href="#m35d185fbaa" y="150.5277657"/>
     <use style="fill:#4c72b0;" x="142.02568555" xlink:href="#m35d185fbaa" y="151.457002957"/>
     <use style="fill:#4c72b0;" x="140.20268431" xlink:href="#m35d185fbaa" y="169.660063273"/>
     <use style="fill:#4c72b0;" x="157.307495422" xlink:href="#m35d185fbaa" y="147.902640338"/>
     <use style="fill:#4c72b0;" x="157.19307359" xlink:href="#m35d185fbaa" y="148.165597681"/>
     <use style="fill:#4c72b0;" x="154.990904164" xlink:href="#m35d185fbaa" y="170.531820488"/>
     <use style="fill:#4c72b0;" x="154.513648087" xlink:href="#m35d185fbaa" y="170.633223489"/>
     <use style="fill:#4c72b0;" x="155.008589838" xlink:href="#m35d185fbaa" y="168.093365202"/>
     <use style="fill:#4c72b0;" x="172.40431563" xlink:href="#m35d185fbaa" y="141.697070543"/>
     <use style="fill:#4c72b0;" x="171.628413227" xlink:href="#m35d185fbaa" y="148.855340503"/>
     <use style="fill:#4c72b0;" x="171.31911646" xlink:href="#m35d185fbaa" y="150.563561266"/>
     <use style="fill:#4c72b0;" x="169.407021591" xlink:href="#m35d185fbaa" y="167.725050134"/>
     <use style="fill:#4c72b0;" x="167.005512421" xlink:href="#m35d185fbaa" y="185.684537366"/>
     <use style="fill:#4c72b0;" x="167.116664278" xlink:href="#m35d185fbaa" y="194.105994975"/>
     <use style="fill:#4c72b0;" x="186.914144495" xlink:href="#m35d185fbaa" y="137.101158542"/>
     <use style="fill:#4c72b0;" x="187.296133558" xlink:href="#m35d185fbaa" y="130.989649059"/>
     <use style="fill:#4c72b0;" x="183.16547339" xlink:href="#m35d185fbaa" y="161.544968452"/>
     <use style="fill:#4c72b0;" x="200.612578027" xlink:href="#m35d185fbaa" y="129.968675148"/>
     <use style="fill:#4c72b0;" x="201.259947418" xlink:href="#m35d185fbaa" y="126.261268677"/>
     <use style="fill:#4c72b0;" x="197.640734275" xlink:href="#m35d185fbaa" y="159.865658517"/>
     <use style="fill:#4c72b0;" x="213.605709666" xlink:href="#m35d185fbaa" y="127.810205043"/>
     <use style="fill:#4c72b0;" x="125.999358952" xlink:href="#m35d185fbaa" y="147.352069534"/>
     <use style="fill:#4c72b0;" x="142.644167283" xlink:href="#m35d185fbaa" y="126.098384847"/>
     <use style="fill:#4c72b0;" x="140.559441045" xlink:href="#m35d185fbaa" y="155.13808577"/>
     <use style="fill:#4c72b0;" x="140.806600581" xlink:href="#m35d185fbaa" y="153.862226017"/>
     <use style="fill:#4c72b0;" x="138.714190224" xlink:href="#m35d185fbaa" y="185.90395999"/>
     <use style="fill:#4c72b0;" x="157.909405284" xlink:href="#m35d185fbaa" y="127.71365301"/>
     <use style="fill:#4c72b0;" x="155.36484903" xlink:href="#m35d185fbaa" y="153.646989009"/>
     <use style="fill:#4c72b0;" x="153.183844707" xlink:href="#m35d185fbaa" y="187.661312588"/>
     <use style="fill:#4c72b0;" x="173.528780053" xlink:href="#m35d185fbaa" y="118.000632017"/>
     <use style="fill:#4c72b0;" x="203.008244332" xlink:href="#m35d185fbaa" y="103.15951756"/>
     <use style="fill:#4c72b0;" x="194.613811777" xlink:href="#m35d185fbaa" y="184.798693266"/>
     <use style="fill:#4c72b0;" x="212.584781041" xlink:href="#m35d185fbaa" y="130.338265089"/>
     <use style="fill:#4c72b0;" x="122.573750355" xlink:href="#m35d185fbaa" y="129.777352396"/>
     <use style="fill:#4c72b0;" x="127.183409794" xlink:href="#m35d185fbaa" y="134.713517099"/>
     <use style="fill:#4c72b0;" x="129.915183609" xlink:href="#m35d185fbaa" y="147.653206293"/>
     <use style="fill:#4c72b0;" x="165.152590851" xlink:href="#m35d185fbaa" y="157.090720382"/>
     <use style="fill:#4c72b0;" x="122.280046314" xlink:href="#m35d185fbaa" y="119.328942838"/>
     <use style="fill:#4c72b0;" x="122.134959908" xlink:href="#m35d185fbaa" y="139.975161963"/>
     <use style="fill:#4c72b0;" x="138.012347855" xlink:href="#m35d185fbaa" y="120.219477289"/>
     <use style="fill:#4c72b0;" x="136.208775264" xlink:href="#m35d185fbaa" y="149.97644128"/>
     <use style="fill:#4c72b0;" x="137.625787273" xlink:href="#m35d185fbaa" y="144.1241956"/>
     <use style="fill:#4c72b0;" x="136.917153866" xlink:href="#m35d185fbaa" y="149.850777054"/>
     <use style="fill:#4c72b0;" x="153.256647244" xlink:href="#m35d185fbaa" y="124.41418406"/>
     <use style="fill:#4c72b0;" x="151.178759306" xlink:href="#m35d185fbaa" y="150.569285136"/>
     <use style="fill:#4c72b0;" x="149.257004432" xlink:href="#m35d185fbaa" y="185.560045316"/>
     <use style="fill:#4c72b0;" x="152.941829588" xlink:href="#m35d185fbaa" y="140.413721771"/>
     <use style="fill:#4c72b0;" x="151.005607668" xlink:href="#m35d185fbaa" y="162.914467827"/>
     <use style="fill:#4c72b0;" x="152.294783688" xlink:href="#m35d185fbaa" y="146.951284766"/>
     <use style="fill:#4c72b0;" x="167.300326384" xlink:href="#m35d185fbaa" y="126.105050621"/>
     <use style="fill:#4c72b0;" x="165.997301674" xlink:href="#m35d185fbaa" y="148.00250328"/>
     <use style="fill:#4c72b0;" x="165.163131115" xlink:href="#m35d185fbaa" y="163.164787948"/>
     <use style="fill:#4c72b0;" x="163.575926426" xlink:href="#m35d185fbaa" y="190.034867771"/>
     <use style="fill:#4c72b0;" x="167.996792496" xlink:href="#m35d185fbaa" y="139.77668992"/>
     <use style="fill:#4c72b0;" x="165.637065291" xlink:href="#m35d185fbaa" y="161.712132508"/>
     <use style="fill:#4c72b0;" x="167.497631694" xlink:href="#m35d185fbaa" y="141.243861944"/>
     <use style="fill:#4c72b0;" x="164.35308062" xlink:href="#m35d185fbaa" y="168.623934205"/>
     <use style="fill:#4c72b0;" x="162.585659648" xlink:href="#m35d185fbaa" y="195.767810646"/>
     <use style="fill:#4c72b0;" x="162.810074284" xlink:href="#m35d185fbaa" y="175.683733622"/>
     <use style="fill:#4c72b0;" x="162.281679363" xlink:href="#m35d185fbaa" y="197.98924364"/>
     <use style="fill:#4c72b0;" x="182.736088559" xlink:href="#m35d185fbaa" y="133.794410882"/>
     <use style="fill:#4c72b0;" x="181.706817712" xlink:href="#m35d185fbaa" y="146.551668817"/>
     <use style="fill:#4c72b0;" x="181.851085773" xlink:href="#m35d185fbaa" y="144.038136914"/>
     <use style="fill:#4c72b0;" x="181.033100074" xlink:href="#m35d185fbaa" y="150.749714849"/>
     <use style="fill:#4c72b0;" x="182.123068023" xlink:href="#m35d185fbaa" y="135.339693449"/>
     <use style="fill:#4c72b0;" x="180.51955374" xlink:href="#m35d185fbaa" y="153.837431828"/>
     <use style="fill:#4c72b0;" x="179.603809838" xlink:href="#m35d185fbaa" y="161.709142117"/>
     <use style="fill:#4c72b0;" x="181.375880484" xlink:href="#m35d185fbaa" y="142.721399861"/>
     <use style="fill:#4c72b0;" x="197.156999916" xlink:href="#m35d185fbaa" y="129.348768548"/>
     <use style="fill:#4c72b0;" x="212.51442686" xlink:href="#m35d185fbaa" y="116.322179195"/>
     <use style="fill:#4c72b0;" x="133.173534623" xlink:href="#m35d185fbaa" y="143.687566273"/>
     <use style="fill:#4c72b0;" x="164.235668733" xlink:href="#m35d185fbaa" y="141.158444345"/>
     <use style="fill:#4c72b0;" x="164.002890629" xlink:href="#m35d185fbaa" y="144.271853083"/>
     <use style="fill:#4c72b0;" x="161.000003963" xlink:href="#m35d185fbaa" y="170.627267798"/>
     <use style="fill:#4c72b0;" x="161.582149575" xlink:href="#m35d185fbaa" y="162.968450336"/>
     <use style="fill:#4c72b0;" x="164.147410154" xlink:href="#m35d185fbaa" y="144.205015767"/>
     <use style="fill:#4c72b0;" x="164.297558071" xlink:href="#m35d185fbaa" y="141.154950552"/>
     <use style="fill:#4c72b0;" x="179.050571093" xlink:href="#m35d185fbaa" y="134.141048848"/>
     <use style="fill:#4c72b0;" x="179.633524016" xlink:href="#m35d185fbaa" y="132.190647894"/>
     <use style="fill:#4c72b0;" x="178.536010026" xlink:href="#m35d185fbaa" y="141.112568573"/>
     <use style="fill:#4c72b0;" x="161.715455548" xlink:href="#m35d185fbaa" y="166.345847603"/>
     <use style="fill:#4c72b0;" x="176.653233962" xlink:href="#m35d185fbaa" y="158.257054291"/>
     <use style="fill:#4c72b0;" x="176.574040072" xlink:href="#m35d185fbaa" y="156.053131004"/>
     <use style="fill:#4c72b0;" x="177.511864052" xlink:href="#m35d185fbaa" y="152.410792799"/>
     <use style="fill:#4c72b0;" x="126.178641625" xlink:href="#m35d185fbaa" y="114.417056631"/>
     <use style="fill:#4c72b0;" x="139.035637977" xlink:href="#m35d185fbaa" y="147.711578444"/>
     <use style="fill:#4c72b0;" x="139.676095672" xlink:href="#m35d185fbaa" y="142.879314546"/>
     <use style="fill:#4c72b0;" x="140.730108856" xlink:href="#m35d185fbaa" y="118.275588777"/>
     <use style="fill:#4c72b0;" x="141.374029437" xlink:href="#m35d185fbaa" y="113.110723942"/>
     <use style="fill:#4c72b0;" x="147.926556659" xlink:href="#m35d185fbaa" y="153.431148662"/>
     <use style="fill:#4c72b0;" x="145.842093263" xlink:href="#m35d185fbaa" y="160.756847065"/>
     <use style="fill:#4c72b0;" x="151.806795257" xlink:href="#m35d185fbaa" y="183.318131549"/>
     <use style="fill:#4c72b0;" x="154.479800085" xlink:href="#m35d185fbaa" y="144.99407068"/>
     <use style="fill:#4c72b0;" x="156.340694203" xlink:href="#m35d185fbaa" y="117.928505845"/>
     <use style="fill:#4c72b0;" x="160.422547348" xlink:href="#m35d185fbaa" y="181.689526513"/>
     <use style="fill:#4c72b0;" x="163.997722198" xlink:href="#m35d185fbaa" y="137.572459682"/>
     <use style="fill:#4c72b0;" x="158.758584175" xlink:href="#m35d185fbaa" y="170.729242204"/>
     <use style="fill:#4c72b0;" x="167.819611314" xlink:href="#m35d185fbaa" y="182.996600396"/>
     <use style="fill:#4c72b0;" x="171.621228267" xlink:href="#m35d185fbaa" y="109.314839339"/>
     <use style="fill:#4c72b0;" x="181.341029327" xlink:href="#m35d185fbaa" y="100.898401081"/>
     <use style="fill:#4c72b0;" x="169.006482136" xlink:href="#m35d185fbaa" y="144.082334976"/>
     <use style="fill:#4c72b0;" x="164.897605443" xlink:href="#m35d185fbaa" y="181.857182301"/>
     <use style="fill:#4c72b0;" x="169.421941662" xlink:href="#m35d185fbaa" y="135.584917607"/>
     <use style="fill:#4c72b0;" x="171.55844733" xlink:href="#m35d185fbaa" y="110.564721381"/>
     <use style="fill:#4c72b0;" x="184.770174559" xlink:href="#m35d185fbaa" y="125.083750192"/>
     <use style="fill:#4c72b0;" x="180.187371604" xlink:href="#m35d185fbaa" y="176.002533619"/>
     <use style="fill:#4c72b0;" x="181.186264957" xlink:href="#m35d185fbaa" y="147.531672835"/>
     <use style="fill:#4c72b0;" x="193.097061364" xlink:href="#m35d185fbaa" y="124.259202569"/>
    </g>
   </g>
   <g id="line2d_17">
    <defs>
     <path d="M -3.5 3.5 
L 3.5 -3.5 
M -3.5 -3.5 
L 3.5 3.5 
" id="maa87369e5c" style="stroke:#c44e52;"/>
    </defs>
    <g clip-path="url(#p454d90473b)">
     <use style="fill:#c44e52;stroke:#c44e52;" x="222.594519265" xlink:href="#maa87369e5c" y="95.9029535933"/>
     <use style="fill:#c44e52;stroke:#c44e52;" x="235.156461697" xlink:href="#maa87369e5c" y="91.7389638027"/>
     <use style="fill:#c44e52;stroke:#c44e52;" x="228.845672335" xlink:href="#maa87369e5c" y="184.069250728"/>
     <use style="fill:#c44e52;stroke:#c44e52;" x="237.823877094" xlink:href="#maa87369e5c" y="74.3863879078"/>
     <use style="fill:#c44e52;stroke:#c44e52;" x="72.6984888813" xlink:href="#maa87369e5c" y="33.158623845"/>
     <use style="fill:#c44e52;stroke:#c44e52;" x="96.4338146837" xlink:href="#maa87369e5c" y="83.2640069762"/>
     <use style="fill:#c44e52;stroke:#c44e52;" x="114.557309802" xlink:href="#maa87369e5c" y="106.934577162"/>
     <use style="fill:#c44e52;stroke:#c44e52;" x="191.445537576" xlink:href="#maa87369e5c" y="219.537300935"/>
     <use style="fill:#c44e52;stroke:#c44e52;" x="218.055662143" xlink:href="#maa87369e5c" y="111.004335081"/>
     <use style="fill:#c44e52;stroke:#c44e52;" x="110.978869367" xlink:href="#maa87369e5c" y="108.469064381"/>
     <use style="fill:#c44e52;stroke:#c44e52;" x="216.442061423" xlink:href="#maa87369e5c" y="100.495176508"/>
     <use style="fill:#c44e52;stroke:#c44e52;" x="108.913403202" xlink:href="#maa87369e5c" y="96.9705573431"/>
    </g>
   </g>
   <g id="patch_3">
    <path d="M 54.9 241.2 
L 54.9 26.6 
" style="fill:none;stroke:#262626;stroke-linecap:square;stroke-linejoin:miter;stroke-width:1.25;"/>
   </g>
   <g id="patch_4">
    <path d="M 54.9 241.2 
L 268.7625 241.2 
" style="fill:none;stroke:#262626;stroke-linecap:square;stroke-linejoin:miter;stroke-width:1.25;"/>
   </g>
   <g id="text_18">
    <!-- Outlier Classification Example$^*$ -->
    <defs>
     <path d="M 40.578125 0 
L 40.578125 7.625 
Q 34.515625 -1.171875 24.125 -1.171875 
Q 19.53125 -1.171875 15.546875 0.578125 
Q 11.578125 2.34375 9.640625 5 
Q 7.71875 7.671875 6.9375 11.53125 
Q 6.390625 14.109375 6.390625 19.734375 
L 6.390625 51.859375 
L 15.1875 51.859375 
L 15.1875 23.09375 
Q 15.1875 16.21875 15.71875 13.8125 
Q 16.546875 10.359375 19.234375 8.375 
Q 21.921875 6.390625 25.875 6.390625 
Q 29.828125 6.390625 33.296875 8.421875 
Q 36.765625 10.453125 38.203125 13.9375 
Q 39.65625 17.4375 39.65625 24.078125 
L 39.65625 51.859375 
L 48.4375 51.859375 
L 48.4375 0 
z
" id="ArialMT-75"/>
     <path d="M 8.6875 0 
L 8.6875 45.015625 
L 0.921875 45.015625 
L 0.921875 51.859375 
L 8.6875 51.859375 
L 8.6875 57.375 
Q 8.6875 62.59375 9.625 65.140625 
Q 10.890625 68.5625 14.078125 70.671875 
Q 17.28125 72.796875 23.046875 72.796875 
Q 26.765625 72.796875 31.25 71.921875 
L 29.9375 64.265625 
Q 27.203125 64.75 24.75 64.75 
Q 20.75 64.75 19.09375 63.03125 
Q 17.4375 61.328125 17.4375 56.640625 
L 17.4375 51.859375 
L 27.546875 51.859375 
L 27.546875 45.015625 
L 17.4375 45.015625 
L 17.4375 0 
z
" id="ArialMT-66"/>
     <path d="M 6.640625 61.46875 
L 6.640625 71.578125 
L 15.4375 71.578125 
L 15.4375 61.46875 
z
M 6.640625 0 
L 6.640625 51.859375 
L 15.4375 51.859375 
L 15.4375 0 
z
" id="ArialMT-69"/>
     <path d="M 6.5 0 
L 6.5 51.859375 
L 14.40625 51.859375 
L 14.40625 44 
Q 17.4375 49.515625 20 51.265625 
Q 22.5625 53.03125 25.640625 53.03125 
Q 30.078125 53.03125 34.671875 50.203125 
L 31.640625 42.046875 
Q 28.421875 43.953125 25.203125 43.953125 
Q 22.3125 43.953125 20.015625 42.21875 
Q 17.71875 40.484375 16.75 37.40625 
Q 15.28125 32.71875 15.28125 27.15625 
L 15.28125 0 
z
" id="ArialMT-72"/>
     <path d="M 0.734375 0 
L 19.671875 26.953125 
L 2.15625 51.859375 
L 13.140625 51.859375 
L 21.09375 39.703125 
Q 23.34375 36.234375 24.703125 33.890625 
Q 26.859375 37.109375 28.65625 39.59375 
L 37.40625 51.859375 
L 47.90625 51.859375 
L 29.984375 27.4375 
L 49.265625 0 
L 38.484375 0 
L 27.828125 16.109375 
L 25 20.453125 
L 11.375 0 
z
" id="ArialMT-78"/>
     <path d="M 25.78125 7.859375 
L 27.046875 0.09375 
Q 23.34375 -0.6875 20.40625 -0.6875 
Q 15.625 -0.6875 12.984375 0.828125 
Q 10.359375 2.34375 9.28125 4.8125 
Q 8.203125 7.28125 8.203125 15.1875 
L 8.203125 45.015625 
L 1.765625 45.015625 
L 1.765625 51.859375 
L 8.203125 51.859375 
L 8.203125 64.703125 
L 16.9375 69.96875 
L 16.9375 51.859375 
L 25.78125 51.859375 
L 25.78125 45.015625 
L 16.9375 45.015625 
L 16.9375 14.703125 
Q 16.9375 10.9375 17.40625 9.859375 
Q 17.875 8.796875 18.921875 8.15625 
Q 19.96875 7.515625 21.921875 7.515625 
Q 23.390625 7.515625 25.78125 7.859375 
" id="ArialMT-74"/>
     <path d="M 3.328125 25.921875 
Q 3.328125 40.328125 11.328125 47.265625 
Q 18.015625 53.03125 27.640625 53.03125 
Q 38.328125 53.03125 45.109375 46.015625 
Q 51.90625 39.015625 51.90625 26.65625 
Q 51.90625 16.65625 48.90625 10.90625 
Q 45.90625 5.171875 40.15625 2 
Q 34.421875 -1.171875 27.640625 -1.171875 
Q 16.75 -1.171875 10.03125 5.8125 
Q 3.328125 12.796875 3.328125 25.921875 
M 12.359375 25.921875 
Q 12.359375 15.96875 16.703125 11.015625 
Q 21.046875 6.0625 27.640625 6.0625 
Q 34.1875 6.0625 38.53125 11.03125 
Q 42.875 16.015625 42.875 26.21875 
Q 42.875 35.84375 38.5 40.796875 
Q 34.125 45.75 27.640625 45.75 
Q 21.046875 45.75 16.703125 40.8125 
Q 12.359375 35.890625 12.359375 25.921875 
" id="ArialMT-6f"/>
     <path d="M 7.90625 0 
L 7.90625 71.578125 
L 59.671875 71.578125 
L 59.671875 63.140625 
L 17.390625 63.140625 
L 17.390625 41.21875 
L 56.984375 41.21875 
L 56.984375 32.8125 
L 17.390625 32.8125 
L 17.390625 8.453125 
L 61.328125 8.453125 
L 61.328125 0 
z
" id="ArialMT-45"/>
     <path d="M 6.59375 -19.875 
L 6.59375 51.859375 
L 14.59375 51.859375 
L 14.59375 45.125 
Q 17.4375 49.078125 21 51.046875 
Q 24.5625 53.03125 29.640625 53.03125 
Q 36.28125 53.03125 41.359375 49.609375 
Q 46.4375 46.1875 49.015625 39.953125 
Q 51.609375 33.734375 51.609375 26.3125 
Q 51.609375 18.359375 48.75 11.984375 
Q 45.90625 5.609375 40.453125 2.21875 
Q 35.015625 -1.171875 29 -1.171875 
Q 24.609375 -1.171875 21.109375 0.6875 
Q 17.625 2.546875 15.375 5.375 
L 15.375 -19.875 
z
M 14.546875 25.640625 
Q 14.546875 15.625 18.59375 10.84375 
Q 22.65625 6.0625 28.421875 6.0625 
Q 34.28125 6.0625 38.453125 11.015625 
Q 42.625 15.96875 42.625 26.375 
Q 42.625 36.28125 38.546875 41.203125 
Q 34.46875 46.140625 28.8125 46.140625 
Q 23.1875 46.140625 18.859375 40.890625 
Q 14.546875 35.640625 14.546875 25.640625 
" id="ArialMT-70"/>
     <path d="M 4.828125 34.859375 
Q 4.828125 52.6875 14.390625 62.765625 
Q 23.96875 72.859375 39.109375 72.859375 
Q 49.03125 72.859375 56.984375 68.109375 
Q 64.9375 63.375 69.109375 54.90625 
Q 73.296875 46.4375 73.296875 35.6875 
Q 73.296875 24.8125 68.890625 16.21875 
Q 64.5 7.625 56.4375 3.203125 
Q 48.390625 -1.21875 39.0625 -1.21875 
Q 28.953125 -1.21875 20.984375 3.65625 
Q 13.03125 8.546875 8.921875 16.984375 
Q 4.828125 25.4375 4.828125 34.859375 
M 14.59375 34.71875 
Q 14.59375 21.78125 21.546875 14.328125 
Q 28.515625 6.890625 39.015625 6.890625 
Q 49.703125 6.890625 56.609375 14.40625 
Q 63.53125 21.921875 63.53125 35.75 
Q 63.53125 44.484375 60.578125 51 
Q 57.625 57.515625 51.921875 61.109375 
Q 46.234375 64.703125 39.15625 64.703125 
Q 29.109375 64.703125 21.84375 57.78125 
Q 14.59375 50.875 14.59375 34.71875 
" id="ArialMT-4f"/>
     <path d="M 40.4375 6.390625 
Q 35.546875 2.25 31.03125 0.53125 
Q 26.515625 -1.171875 21.34375 -1.171875 
Q 12.796875 -1.171875 8.203125 3 
Q 3.609375 7.171875 3.609375 13.671875 
Q 3.609375 17.484375 5.34375 20.625 
Q 7.078125 23.78125 9.890625 25.6875 
Q 12.703125 27.59375 16.21875 28.5625 
Q 18.796875 29.25 24.03125 29.890625 
Q 34.671875 31.15625 39.703125 32.90625 
Q 39.75 34.71875 39.75 35.203125 
Q 39.75 40.578125 37.25 42.78125 
Q 33.890625 45.75 27.25 45.75 
Q 21.046875 45.75 18.09375 43.578125 
Q 15.140625 41.40625 13.71875 35.890625 
L 5.125 37.0625 
Q 6.296875 42.578125 8.984375 45.96875 
Q 11.671875 49.359375 16.75 51.1875 
Q 21.828125 53.03125 28.515625 53.03125 
Q 35.15625 53.03125 39.296875 51.46875 
Q 43.453125 49.90625 45.40625 47.53125 
Q 47.359375 45.171875 48.140625 41.546875 
Q 48.578125 39.3125 48.578125 33.453125 
L 48.578125 21.734375 
Q 48.578125 9.46875 49.140625 6.21875 
Q 49.703125 2.984375 51.375 0 
L 42.1875 0 
Q 40.828125 2.734375 40.4375 6.390625 
M 39.703125 26.03125 
Q 34.90625 24.078125 25.34375 22.703125 
Q 19.921875 21.921875 17.671875 20.9375 
Q 15.4375 19.96875 14.203125 18.09375 
Q 12.984375 16.21875 12.984375 13.921875 
Q 12.984375 10.40625 15.640625 8.0625 
Q 18.3125 5.71875 23.4375 5.71875 
Q 28.515625 5.71875 32.46875 7.9375 
Q 36.421875 10.15625 38.28125 14.015625 
Q 39.703125 17 39.703125 22.796875 
z
" id="ArialMT-61"/>
     <path d="M 6.59375 0 
L 6.59375 51.859375 
L 14.5 51.859375 
L 14.5 44.484375 
Q 20.21875 53.03125 31 53.03125 
Q 35.6875 53.03125 39.625 51.34375 
Q 43.5625 49.65625 45.515625 46.921875 
Q 47.46875 44.1875 48.25 40.4375 
Q 48.734375 37.984375 48.734375 31.890625 
L 48.734375 0 
L 39.9375 0 
L 39.9375 31.546875 
Q 39.9375 36.921875 38.90625 39.578125 
Q 37.890625 42.234375 35.28125 43.8125 
Q 32.671875 45.40625 29.15625 45.40625 
Q 23.53125 45.40625 19.453125 41.84375 
Q 15.375 38.28125 15.375 28.328125 
L 15.375 0 
z
" id="ArialMT-6e"/>
     <path d="M 40.4375 19 
L 49.078125 17.875 
Q 47.65625 8.9375 41.8125 3.875 
Q 35.984375 -1.171875 27.484375 -1.171875 
Q 16.84375 -1.171875 10.375 5.78125 
Q 3.90625 12.75 3.90625 25.734375 
Q 3.90625 34.125 6.6875 40.421875 
Q 9.46875 46.734375 15.15625 49.875 
Q 20.84375 53.03125 27.546875 53.03125 
Q 35.984375 53.03125 41.359375 48.75 
Q 46.734375 44.484375 48.25 36.625 
L 39.703125 35.296875 
Q 38.484375 40.53125 35.375 43.15625 
Q 32.28125 45.796875 27.875 45.796875 
Q 21.234375 45.796875 17.078125 41.03125 
Q 12.9375 36.28125 12.9375 25.984375 
Q 12.9375 15.53125 16.9375 10.796875 
Q 20.953125 6.0625 27.390625 6.0625 
Q 32.5625 6.0625 36.03125 9.234375 
Q 39.5 12.40625 40.4375 19 
" id="ArialMT-63"/>
     <path d="M 9.421875 12.703125 
Q 8.296875 12.703125 7.390625 13.640625 
Q 6.5 14.59375 6.5 15.71875 
Q 6.5 17.4375 7.90625 18.109375 
L 22.3125 25 
L 7.90625 31.78125 
Q 6.5 32.375 6.5 34.1875 
Q 6.5 35.296875 7.390625 36.25 
Q 8.296875 37.203125 9.421875 37.203125 
Q 10.15625 37.203125 10.796875 36.71875 
L 23.578125 27.390625 
L 22.125 43.703125 
Q 22.125 44.921875 22.953125 45.703125 
Q 23.78125 46.484375 25 46.484375 
Q 26.171875 46.484375 26.96875 45.75 
Q 27.78125 45.015625 27.78125 43.890625 
L 27.78125 43.703125 
L 26.3125 27.390625 
L 39.109375 36.71875 
Q 39.75 37.203125 40.484375 37.203125 
Q 41.703125 37.203125 42.546875 36.25 
Q 43.40625 35.296875 43.40625 34.1875 
Q 43.40625 32.375 42 31.78125 
L 27.59375 25 
L 42 18.109375 
Q 43.40625 17.4375 43.40625 15.71875 
Q 43.40625 14.59375 42.546875 13.640625 
Q 41.703125 12.703125 40.484375 12.703125 
Q 39.75 12.703125 39.109375 13.1875 
L 26.3125 22.515625 
L 27.78125 6.296875 
L 27.78125 6 
Q 27.78125 4.890625 26.921875 4.15625 
Q 26.078125 3.421875 25 3.421875 
Q 23.828125 3.421875 22.96875 4.21875 
Q 22.125 5.03125 22.125 6.203125 
L 23.578125 22.515625 
L 10.796875 13.1875 
Q 10.15625 12.703125 9.421875 12.703125 
" id="Cmsy10-a4"/>
     <path d="M 42.09375 16.703125 
L 51.171875 15.578125 
Q 49.03125 7.625 43.21875 3.21875 
Q 37.40625 -1.171875 28.375 -1.171875 
Q 17 -1.171875 10.328125 5.828125 
Q 3.65625 12.84375 3.65625 25.484375 
Q 3.65625 38.578125 10.390625 45.796875 
Q 17.140625 53.03125 27.875 53.03125 
Q 38.28125 53.03125 44.875 45.953125 
Q 51.46875 38.875 51.46875 26.03125 
Q 51.46875 25.25 51.421875 23.6875 
L 12.75 23.6875 
Q 13.234375 15.140625 17.578125 10.59375 
Q 21.921875 6.0625 28.421875 6.0625 
Q 33.25 6.0625 36.671875 8.59375 
Q 40.09375 11.140625 42.09375 16.703125 
M 13.234375 30.90625 
L 42.1875 30.90625 
Q 41.609375 37.453125 38.875 40.71875 
Q 34.671875 45.796875 27.984375 45.796875 
Q 21.921875 45.796875 17.796875 41.75 
Q 13.671875 37.703125 13.234375 30.90625 
" id="ArialMT-65"/>
     <path d="M 6.390625 0 
L 6.390625 71.578125 
L 15.1875 71.578125 
L 15.1875 0 
z
" id="ArialMT-6c"/>
     <path d="M 3.078125 15.484375 
L 11.765625 16.84375 
Q 12.5 11.625 15.84375 8.84375 
Q 19.1875 6.0625 25.203125 6.0625 
Q 31.25 6.0625 34.171875 8.515625 
Q 37.109375 10.984375 37.109375 14.3125 
Q 37.109375 17.28125 34.515625 19 
Q 32.71875 20.171875 25.53125 21.96875 
Q 15.875 24.421875 12.140625 26.203125 
Q 8.40625 27.984375 6.46875 31.125 
Q 4.546875 34.28125 4.546875 38.09375 
Q 4.546875 41.546875 6.125 44.5 
Q 7.71875 47.46875 10.453125 49.421875 
Q 12.5 50.921875 16.03125 51.96875 
Q 19.578125 53.03125 23.640625 53.03125 
Q 29.734375 53.03125 34.34375 51.265625 
Q 38.96875 49.515625 41.15625 46.5 
Q 43.359375 43.5 44.1875 38.484375 
L 35.59375 37.3125 
Q 35.015625 41.3125 32.203125 43.546875 
Q 29.390625 45.796875 24.265625 45.796875 
Q 18.21875 45.796875 15.625 43.796875 
Q 13.03125 41.796875 13.03125 39.109375 
Q 13.03125 37.40625 14.109375 36.03125 
Q 15.1875 34.625 17.484375 33.6875 
Q 18.796875 33.203125 25.25 31.453125 
Q 34.578125 28.953125 38.25 27.359375 
Q 41.9375 25.78125 44.03125 22.75 
Q 46.140625 19.734375 46.140625 15.234375 
Q 46.140625 10.84375 43.578125 6.953125 
Q 41.015625 3.078125 36.171875 0.953125 
Q 31.34375 -1.171875 25.25 -1.171875 
Q 15.140625 -1.171875 9.84375 3.03125 
Q 4.546875 7.234375 3.078125 15.484375 
" id="ArialMT-73"/>
     <path d="M 6.59375 0 
L 6.59375 51.859375 
L 14.453125 51.859375 
L 14.453125 44.578125 
Q 16.890625 48.390625 20.9375 50.703125 
Q 25 53.03125 30.171875 53.03125 
Q 35.9375 53.03125 39.625 50.640625 
Q 43.3125 48.25 44.828125 43.953125 
Q 50.984375 53.03125 60.84375 53.03125 
Q 68.5625 53.03125 72.703125 48.75 
Q 76.859375 44.484375 76.859375 35.59375 
L 76.859375 0 
L 68.109375 0 
L 68.109375 32.671875 
Q 68.109375 37.9375 67.25 40.25 
Q 66.40625 42.578125 64.15625 43.984375 
Q 61.921875 45.40625 58.890625 45.40625 
Q 53.421875 45.40625 49.796875 41.765625 
Q 46.1875 38.140625 46.1875 30.125 
L 46.1875 0 
L 37.40625 0 
L 37.40625 33.6875 
Q 37.40625 39.546875 35.25 42.46875 
Q 33.109375 45.40625 28.21875 45.40625 
Q 24.515625 45.40625 21.359375 43.453125 
Q 18.21875 41.5 16.796875 37.734375 
Q 15.375 33.984375 15.375 26.90625 
L 15.375 0 
z
" id="ArialMT-6d"/>
    </defs>
    <g style="fill:#262626;" transform="translate(77.89125 21.6)scale(0.12 -0.12)">
     <use transform="translate(0.0 0.140625)" xlink:href="#ArialMT-4f"/>
     <use transform="translate(77.783203125 0.140625)" xlink:href="#ArialMT-75"/>
     <use transform="translate(133.3984375 0.140625)" xlink:href="#ArialMT-74"/>
     <use transform="translate(161.181640625 0.140625)" xlink:href="#ArialMT-6c"/>
     <use transform="translate(183.3984375 0.140625)" xlink:href="#ArialMT-69"/>
     <use transform="translate(205.615234375 0.140625)" xlink:href="#ArialMT-65"/>
     <use transform="translate(261.23046875 0.140625)" xlink:href="#ArialMT-72"/>
     <use transform="translate(294.53125 0.140625)" xlink:href="#ArialMT-20"/>
     <use transform="translate(322.314453125 0.140625)" xlink:href="#ArialMT-43"/>
     <use transform="translate(394.53125 0.140625)" xlink:href="#ArialMT-6c"/>
     <use transform="translate(416.748046875 0.140625)" xlink:href="#ArialMT-61"/>
     <use transform="translate(472.36328125 0.140625)" xlink:href="#ArialMT-73"/>
     <use transform="translate(522.36328125 0.140625)" xlink:href="#ArialMT-73"/>
     <use transform="translate(572.36328125 0.140625)" xlink:href="#ArialMT-69"/>
     <use transform="translate(594.580078125 0.140625)" xlink:href="#ArialMT-66"/>
     <use transform="translate(622.36328125 0.140625)" xlink:href="#ArialMT-69"/>
     <use transform="translate(644.580078125 0.140625)" xlink:href="#ArialMT-63"/>
     <use transform="translate(694.580078125 0.140625)" xlink:href="#ArialMT-61"/>
     <use transform="translate(750.1953125 0.140625)" xlink:href="#ArialMT-74"/>
     <use transform="translate(777.978515625 0.140625)" xlink:href="#ArialMT-69"/>
     <use transform="translate(800.1953125 0.140625)" xlink:href="#ArialMT-6f"/>
     <use transform="translate(855.810546875 0.140625)" xlink:href="#ArialMT-6e"/>
     <use transform="translate(911.42578125 0.140625)" xlink:href="#ArialMT-20"/>
     <use transform="translate(939.208984375 0.140625)" xlink:href="#ArialMT-45"/>
     <use transform="translate(1005.908203125 0.140625)" xlink:href="#ArialMT-78"/>
     <use transform="translate(1055.908203125 0.140625)" xlink:href="#ArialMT-61"/>
     <use transform="translate(1111.5234375 0.140625)" xlink:href="#ArialMT-6d"/>
     <use transform="translate(1194.82421875 0.140625)" xlink:href="#ArialMT-70"/>
     <use transform="translate(1250.439453125 0.140625)" xlink:href="#ArialMT-6c"/>
     <use transform="translate(1272.65625 0.140625)" xlink:href="#ArialMT-65"/>
     <use transform="translate(1345.026640625 38.4046875)scale(0.7)" xlink:href="#Cmsy10-a4"/>
    </g>
   </g>
  </g>
 </g>
 <defs>
  <clipPath id="p454d90473b">
   <rect height="214.6" width="213.8625" x="54.9" y="26.6"/>
  </clipPath>
 </defs>
</svg>
