<?xml version="1.0" encoding="utf-8" standalone="no"?>
<!DOCTYPE svg PUBLIC "-//W3C//DTD SVG 1.1//EN"
  "http://www.w3.org/Graphics/SVG/1.1/DTD/svg11.dtd">
<!-- Created with matplotlib (http://matplotlib.org/) -->
<svg height="288pt" version="1.1" viewBox="0 0 288 288" width="288pt" xmlns="http://www.w3.org/2000/svg" xmlns:xlink="http://www.w3.org/1999/xlink">
 <defs>
  <style type="text/css">
*{stroke-linecap:butt;stroke-linejoin:round;stroke-miterlimit:100000;}
  </style>
 </defs>
 <g id="figure_1">
  <g id="patch_1">
   <path d="M 0 288 
L 288 288 
L 288 0 
L 0 0 
L 0 288 
z
" style="fill:none;"/>
  </g>
  <g id="axes_1">
   <g id="patch_2">
    <path d="M 49.05 232.243625 
L 271.575 232.243625 
L 271.575 15.3 
L 49.05 15.3 
L 49.05 232.243625 
z
" style="fill:none;"/>
   </g>
   <g id="matplotlib.axis_1">
    <g id="xtick_1">
     <g id="line2d_1">
      <defs>
       <path d="M 0 0 
L 0 6 
" id="m26a56c3d8d" style="stroke:#262626;"/>
      </defs>
      <g>
       <use style="fill:#262626;stroke:#262626;" x="49.05" xlink:href="#m26a56c3d8d" y="232.243625"/>
      </g>
     </g>
     <g id="text_1">
      <!-- 0 -->
      <defs>
       <path d="M 4.15625 35.296875 
Q 4.15625 48 6.765625 55.734375 
Q 9.375 63.484375 14.515625 67.671875 
Q 19.671875 71.875 27.484375 71.875 
Q 33.25 71.875 37.59375 69.546875 
Q 41.9375 67.234375 44.765625 62.859375 
Q 47.609375 58.5 49.21875 52.21875 
Q 50.828125 45.953125 50.828125 35.296875 
Q 50.828125 22.703125 48.234375 14.96875 
Q 45.65625 7.234375 40.5 3 
Q 35.359375 -1.21875 27.484375 -1.21875 
Q 17.140625 -1.21875 11.234375 6.203125 
Q 4.15625 15.140625 4.15625 35.296875 
M 13.1875 35.296875 
Q 13.1875 17.671875 17.3125 11.828125 
Q 21.4375 6 27.484375 6 
Q 33.546875 6 37.671875 11.859375 
Q 41.796875 17.71875 41.796875 35.296875 
Q 41.796875 52.984375 37.671875 58.78125 
Q 33.546875 64.59375 27.390625 64.59375 
Q 21.34375 64.59375 17.71875 59.46875 
Q 13.1875 52.9375 13.1875 35.296875 
" id="ArialMT-30"/>
      </defs>
      <g style="fill:#262626;" transform="translate(46.26953125 252.4014375)scale(0.1 -0.1)">
       <use xlink:href="#ArialMT-30"/>
      </g>
     </g>
    </g>
    <g id="xtick_2">
     <g id="line2d_2">
      <g>
       <use style="fill:#262626;stroke:#262626;" x="73.775" xlink:href="#m26a56c3d8d" y="232.243625"/>
      </g>
     </g>
     <g id="text_2">
      <!-- 5 -->
      <defs>
       <path d="M 4.15625 18.75 
L 13.375 19.53125 
Q 14.40625 12.796875 18.140625 9.390625 
Q 21.875 6 27.15625 6 
Q 33.5 6 37.890625 10.78125 
Q 42.28125 15.578125 42.28125 23.484375 
Q 42.28125 31 38.0625 35.34375 
Q 33.84375 39.703125 27 39.703125 
Q 22.75 39.703125 19.328125 37.765625 
Q 15.921875 35.84375 13.96875 32.765625 
L 5.71875 33.84375 
L 12.640625 70.609375 
L 48.25 70.609375 
L 48.25 62.203125 
L 19.671875 62.203125 
L 15.828125 42.96875 
Q 22.265625 47.46875 29.34375 47.46875 
Q 38.71875 47.46875 45.15625 40.96875 
Q 51.609375 34.46875 51.609375 24.265625 
Q 51.609375 14.546875 45.953125 7.46875 
Q 39.0625 -1.21875 27.15625 -1.21875 
Q 17.390625 -1.21875 11.203125 4.25 
Q 5.03125 9.71875 4.15625 18.75 
" id="ArialMT-35"/>
      </defs>
      <g style="fill:#262626;" transform="translate(70.99453125 252.4014375)scale(0.1 -0.1)">
       <use xlink:href="#ArialMT-35"/>
      </g>
     </g>
    </g>
    <g id="xtick_3">
     <g id="line2d_3">
      <g>
       <use style="fill:#262626;stroke:#262626;" x="98.5" xlink:href="#m26a56c3d8d" y="232.243625"/>
      </g>
     </g>
     <g id="text_3">
      <!-- 10 -->
      <defs>
       <path d="M 37.25 0 
L 28.46875 0 
L 28.46875 56 
Q 25.296875 52.984375 20.140625 49.953125 
Q 14.984375 46.921875 10.890625 45.40625 
L 10.890625 53.90625 
Q 18.265625 57.375 23.78125 62.296875 
Q 29.296875 67.234375 31.59375 71.875 
L 37.25 71.875 
z
" id="ArialMT-31"/>
      </defs>
      <g style="fill:#262626;" transform="translate(92.9390625 252.4014375)scale(0.1 -0.1)">
       <use xlink:href="#ArialMT-31"/>
       <use x="55.615234375" xlink:href="#ArialMT-30"/>
      </g>
     </g>
    </g>
    <g id="xtick_4">
     <g id="line2d_4">
      <g>
       <use style="fill:#262626;stroke:#262626;" x="123.225" xlink:href="#m26a56c3d8d" y="232.243625"/>
      </g>
     </g>
     <g id="text_4">
      <!-- 15 -->
      <g style="fill:#262626;" transform="translate(117.6640625 252.4014375)scale(0.1 -0.1)">
       <use xlink:href="#ArialMT-31"/>
       <use x="55.615234375" xlink:href="#ArialMT-35"/>
      </g>
     </g>
    </g>
    <g id="xtick_5">
     <g id="line2d_5">
      <g>
       <use style="fill:#262626;stroke:#262626;" x="147.95" xlink:href="#m26a56c3d8d" y="232.243625"/>
      </g>
     </g>
     <g id="text_5">
      <!-- 20 -->
      <defs>
       <path d="M 50.34375 8.453125 
L 50.34375 0 
L 3.03125 0 
Q 2.9375 3.171875 4.046875 6.109375 
Q 5.859375 10.9375 9.828125 15.625 
Q 13.8125 20.3125 21.34375 26.46875 
Q 33.015625 36.03125 37.109375 41.625 
Q 41.21875 47.21875 41.21875 52.203125 
Q 41.21875 57.421875 37.46875 61 
Q 33.734375 64.59375 27.734375 64.59375 
Q 21.390625 64.59375 17.578125 60.78125 
Q 13.765625 56.984375 13.71875 50.25 
L 4.6875 51.171875 
Q 5.609375 61.28125 11.65625 66.578125 
Q 17.71875 71.875 27.9375 71.875 
Q 38.234375 71.875 44.234375 66.15625 
Q 50.25 60.453125 50.25 52 
Q 50.25 47.703125 48.484375 43.546875 
Q 46.734375 39.40625 42.65625 34.8125 
Q 38.578125 30.21875 29.109375 22.21875 
Q 21.1875 15.578125 18.9375 13.203125 
Q 16.703125 10.84375 15.234375 8.453125 
z
" id="ArialMT-32"/>
      </defs>
      <g style="fill:#262626;" transform="translate(142.3890625 252.4014375)scale(0.1 -0.1)">
       <use xlink:href="#ArialMT-32"/>
       <use x="55.615234375" xlink:href="#ArialMT-30"/>
      </g>
     </g>
    </g>
    <g id="xtick_6">
     <g id="line2d_6">
      <g>
       <use style="fill:#262626;stroke:#262626;" x="172.675" xlink:href="#m26a56c3d8d" y="232.243625"/>
      </g>
     </g>
     <g id="text_6">
      <!-- 25 -->
      <g style="fill:#262626;" transform="translate(167.1140625 252.4014375)scale(0.1 -0.1)">
       <use xlink:href="#ArialMT-32"/>
       <use x="55.615234375" xlink:href="#ArialMT-35"/>
      </g>
     </g>
    </g>
    <g id="xtick_7">
     <g id="line2d_7">
      <g>
       <use style="fill:#262626;stroke:#262626;" x="197.4" xlink:href="#m26a56c3d8d" y="232.243625"/>
      </g>
     </g>
     <g id="text_7">
      <!-- 30 -->
      <defs>
       <path d="M 4.203125 18.890625 
L 12.984375 20.0625 
Q 14.5 12.59375 18.140625 9.296875 
Q 21.78125 6 27 6 
Q 33.203125 6 37.46875 10.296875 
Q 41.75 14.59375 41.75 20.953125 
Q 41.75 27 37.796875 30.921875 
Q 33.84375 34.859375 27.734375 34.859375 
Q 25.25 34.859375 21.53125 33.890625 
L 22.515625 41.609375 
Q 23.390625 41.5 23.921875 41.5 
Q 29.546875 41.5 34.03125 44.421875 
Q 38.53125 47.359375 38.53125 53.46875 
Q 38.53125 58.296875 35.25 61.46875 
Q 31.984375 64.65625 26.8125 64.65625 
Q 21.6875 64.65625 18.265625 61.421875 
Q 14.84375 58.203125 13.875 51.765625 
L 5.078125 53.328125 
Q 6.6875 62.15625 12.390625 67.015625 
Q 18.109375 71.875 26.609375 71.875 
Q 32.46875 71.875 37.390625 69.359375 
Q 42.328125 66.84375 44.9375 62.5 
Q 47.5625 58.15625 47.5625 53.265625 
Q 47.5625 48.640625 45.0625 44.828125 
Q 42.578125 41.015625 37.703125 38.765625 
Q 44.046875 37.3125 47.5625 32.6875 
Q 51.078125 28.078125 51.078125 21.140625 
Q 51.078125 11.765625 44.234375 5.25 
Q 37.40625 -1.265625 26.953125 -1.265625 
Q 17.53125 -1.265625 11.296875 4.34375 
Q 5.078125 9.96875 4.203125 18.890625 
" id="ArialMT-33"/>
      </defs>
      <g style="fill:#262626;" transform="translate(191.8390625 252.4014375)scale(0.1 -0.1)">
       <use xlink:href="#ArialMT-33"/>
       <use x="55.615234375" xlink:href="#ArialMT-30"/>
      </g>
     </g>
    </g>
    <g id="xtick_8">
     <g id="line2d_8">
      <g>
       <use style="fill:#262626;stroke:#262626;" x="222.125" xlink:href="#m26a56c3d8d" y="232.243625"/>
      </g>
     </g>
     <g id="text_8">
      <!-- 35 -->
      <g style="fill:#262626;" transform="translate(216.5640625 252.4014375)scale(0.1 -0.1)">
       <use xlink:href="#ArialMT-33"/>
       <use x="55.615234375" xlink:href="#ArialMT-35"/>
      </g>
     </g>
    </g>
    <g id="xtick_9">
     <g id="line2d_9">
      <g>
       <use style="fill:#262626;stroke:#262626;" x="246.85" xlink:href="#m26a56c3d8d" y="232.243625"/>
      </g>
     </g>
     <g id="text_9">
      <!-- 40 -->
      <defs>
       <path d="M 32.328125 0 
L 32.328125 17.140625 
L 1.265625 17.140625 
L 1.265625 25.203125 
L 33.9375 71.578125 
L 41.109375 71.578125 
L 41.109375 25.203125 
L 50.78125 25.203125 
L 50.78125 17.140625 
L 41.109375 17.140625 
L 41.109375 0 
z
M 32.328125 25.203125 
L 32.328125 57.46875 
L 9.90625 25.203125 
z
" id="ArialMT-34"/>
      </defs>
      <g style="fill:#262626;" transform="translate(241.2890625 252.4014375)scale(0.1 -0.1)">
       <use xlink:href="#ArialMT-34"/>
       <use x="55.615234375" xlink:href="#ArialMT-30"/>
      </g>
     </g>
    </g>
    <g id="xtick_10">
     <g id="line2d_10">
      <g>
       <use style="fill:#262626;stroke:#262626;" x="271.575" xlink:href="#m26a56c3d8d" y="232.243625"/>
      </g>
     </g>
     <g id="text_10">
      <!-- 45 -->
      <g style="fill:#262626;" transform="translate(266.0140625 252.4014375)scale(0.1 -0.1)">
       <use xlink:href="#ArialMT-34"/>
       <use x="55.615234375" xlink:href="#ArialMT-35"/>
      </g>
     </g>
    </g>
    <g id="text_11">
     <!-- $\sqrt[3]{D_M}$ -->
     <defs>
      <path d="M 42.390625 -116.015625 
L 19.828125 -63.484375 
L 12.796875 -68.890625 
L 10.984375 -67.09375 
L 25.296875 -56 
L 46.390625 -105.078125 
L 98.296875 3.078125 
Q 98.78125 4 100 4 
Q 100.828125 4 101.40625 3.40625 
Q 102 2.828125 102 2 
Q 102 1.515625 101.90625 1.3125 
L 46.09375 -115.09375 
Q 45.703125 -116.015625 44.578125 -116.015625 
z
" id="Cmex10-70"/>
      <path d="M 5.078125 0 
Q 4.109375 0 4.109375 1.3125 
Q 4.15625 1.5625 4.296875 2.140625 
Q 4.4375 2.734375 4.6875 3.125 
Q 4.9375 3.515625 5.421875 3.515625 
Q 14.9375 3.515625 16.5 9.625 
L 29.5 61.8125 
Q 29.6875 62.796875 29.6875 63.1875 
Q 29.6875 64.265625 28.515625 64.40625 
Q 26.609375 64.796875 21.296875 64.796875 
Q 20.3125 64.796875 20.3125 66.109375 
Q 20.359375 66.359375 20.5 66.96875 
Q 20.65625 67.578125 20.921875 67.9375 
Q 21.1875 68.3125 21.578125 68.3125 
L 39.203125 68.3125 
Q 40.328125 68.3125 40.484375 67.1875 
L 48.296875 9.90625 
L 84.71875 67.1875 
Q 85.40625 68.3125 86.625 68.3125 
L 103.609375 68.3125 
Q 104.59375 68.3125 104.59375 67 
Q 104.546875 66.75 104.390625 66.140625 
Q 104.25 65.53125 103.984375 65.15625 
Q 103.71875 64.796875 103.328125 64.796875 
Q 97.21875 64.796875 94.828125 64.109375 
Q 93.5 63.671875 92.921875 61.375 
L 79.203125 6.5 
Q 79 5.515625 79 5.078125 
Q 79 4.6875 79.125 4.421875 
Q 79.25 4.15625 79.46875 4.078125 
Q 79.6875 4 80.171875 3.90625 
Q 82.078125 3.515625 87.40625 3.515625 
Q 88.375 3.515625 88.375 2.203125 
Q 88.03125 0.78125 87.828125 0.390625 
Q 87.640625 0 86.71875 0 
L 60.59375 0 
Q 59.625 0 59.625 1.3125 
Q 59.671875 1.5625 59.8125 2.171875 
Q 59.96875 2.78125 60.234375 3.140625 
Q 60.5 3.515625 60.890625 3.515625 
Q 67 3.515625 69.390625 4.203125 
Q 70.703125 4.640625 71.296875 6.890625 
L 85.6875 64.796875 
L 45.3125 1.125 
Q 44.734375 0 43.3125 0 
Q 42.046875 0 41.890625 1.125 
L 33.40625 64.015625 
L 19.671875 9.1875 
Q 19.578125 8.9375 19.53125 8.5625 
Q 19.484375 8.203125 19.390625 7.71875 
Q 19.390625 5.125 21.65625 4.3125 
Q 23.921875 3.515625 27.203125 3.515625 
Q 28.21875 3.515625 28.21875 2.203125 
Q 27.875 0.875 27.65625 0.4375 
Q 27.4375 0 26.515625 0 
z
" id="Cmmi10-4d"/>
      <path d="M 9.515625 7.71875 
Q 11.859375 4.296875 15.8125 2.640625 
Q 19.78125 0.984375 24.3125 0.984375 
Q 30.125 0.984375 32.5625 5.9375 
Q 35.015625 10.890625 35.015625 17.1875 
Q 35.015625 20.015625 34.5 22.84375 
Q 33.984375 25.6875 32.765625 28.125 
Q 31.546875 30.5625 29.421875 32.03125 
Q 27.296875 33.5 24.21875 33.5 
L 17.578125 33.5 
Q 16.703125 33.5 16.703125 34.421875 
L 16.703125 35.296875 
Q 16.703125 36.078125 17.578125 36.078125 
L 23.09375 36.53125 
Q 26.609375 36.53125 28.921875 39.15625 
Q 31.25 41.796875 32.328125 45.578125 
Q 33.40625 49.359375 33.40625 52.78125 
Q 33.40625 57.5625 31.15625 60.640625 
Q 28.90625 63.71875 24.3125 63.71875 
Q 20.515625 63.71875 17.046875 62.28125 
Q 13.578125 60.84375 11.53125 57.90625 
Q 11.71875 57.953125 11.859375 57.984375 
Q 12.015625 58.015625 12.203125 58.015625 
Q 14.453125 58.015625 15.96875 56.453125 
Q 17.484375 54.890625 17.484375 52.6875 
Q 17.484375 50.53125 15.96875 48.96875 
Q 14.453125 47.40625 12.203125 47.40625 
Q 10.015625 47.40625 8.453125 48.96875 
Q 6.890625 50.53125 6.890625 52.6875 
Q 6.890625 56.984375 9.46875 60.15625 
Q 12.0625 63.328125 16.140625 64.96875 
Q 20.21875 66.609375 24.3125 66.609375 
Q 27.34375 66.609375 30.703125 65.703125 
Q 34.078125 64.796875 36.8125 63.109375 
Q 39.546875 61.421875 41.28125 58.78125 
Q 43.015625 56.15625 43.015625 52.78125 
Q 43.015625 48.578125 41.140625 45.015625 
Q 39.265625 41.453125 35.984375 38.859375 
Q 32.71875 36.28125 28.8125 35.015625 
Q 33.15625 34.1875 37.0625 31.734375 
Q 40.96875 29.296875 43.328125 25.484375 
Q 45.703125 21.6875 45.703125 17.28125 
Q 45.703125 11.765625 42.671875 7.296875 
Q 39.65625 2.828125 34.71875 0.3125 
Q 29.78125 -2.203125 24.3125 -2.203125 
Q 19.625 -2.203125 14.90625 -0.40625 
Q 10.203125 1.375 7.203125 4.9375 
Q 4.203125 8.5 4.203125 13.484375 
Q 4.203125 15.96875 5.859375 17.625 
Q 7.515625 19.28125 10.015625 19.28125 
Q 11.625 19.28125 12.96875 18.53125 
Q 14.3125 17.78125 15.0625 16.40625 
Q 15.828125 15.046875 15.828125 13.484375 
Q 15.828125 11.03125 14.109375 9.375 
Q 12.40625 7.71875 10.015625 7.71875 
z
" id="Cmr10-33"/>
      <path d="M 4.890625 0 
Q 3.90625 0 3.90625 1.3125 
Q 3.953125 1.5625 4.09375 2.171875 
Q 4.25 2.78125 4.515625 3.140625 
Q 4.78125 3.515625 5.171875 3.515625 
Q 11.28125 3.515625 13.71875 4.203125 
Q 14.984375 4.640625 15.578125 6.890625 
L 29.296875 61.8125 
Q 29.5 62.796875 29.5 63.1875 
Q 29.5 64.265625 28.328125 64.40625 
Q 26.421875 64.796875 21.09375 64.796875 
Q 20.125 64.796875 20.125 66.109375 
Q 20.171875 66.359375 20.3125 66.96875 
Q 20.453125 67.578125 20.71875 67.9375 
Q 21 68.3125 21.390625 68.3125 
L 57.328125 68.3125 
Q 64.3125 68.3125 69.53125 64.921875 
Q 74.75 61.53125 77.53125 55.78125 
Q 80.328125 50.046875 80.328125 43.109375 
Q 80.328125 35.453125 77.140625 27.78125 
Q 73.96875 20.125 68.25 13.765625 
Q 62.546875 7.421875 55.21875 3.703125 
Q 47.90625 0 40.1875 0 
z
M 23.578125 4.296875 
Q 23.578125 3.515625 27 3.515625 
L 38.625 3.515625 
Q 44.1875 3.515625 49.359375 5.8125 
Q 54.546875 8.109375 58.59375 12.109375 
Q 62.359375 15.875 65.234375 21.96875 
Q 68.109375 28.078125 69.703125 34.71875 
Q 71.296875 41.359375 71.296875 46.921875 
Q 71.296875 50.984375 70.09375 54.25 
Q 68.890625 57.515625 66.71875 59.859375 
Q 64.546875 62.203125 61.28125 63.5 
Q 58.015625 64.796875 53.90625 64.796875 
L 42.921875 64.796875 
Q 40.1875 64.796875 39.296875 64.328125 
Q 38.421875 63.875 37.703125 61.375 
L 24.03125 6.5 
Q 23.578125 5.28125 23.578125 4.296875 
" id="Cmmi10-44"/>
     </defs>
     <g style="fill:#262626;" transform="translate(146.2325 270.8426875)scale(0.11 -0.11)">
      <use transform="translate(0.0 60.17125)scale(0.49)" xlink:href="#Cmr10-33"/>
      <use transform="translate(-24.0625 96.109375)scale(0.9712797812784794)" xlink:href="#Cmex10-70"/>
      <use transform="translate(85.5625 0.4375)" xlink:href="#Cmmi10-44"/>
      <use transform="translate(168.27734375 -16.568749999999994)scale(0.7)" xlink:href="#Cmmi10-4d"/>
      <path d="M 73.0625 93.5 
L 73.0625 99.75 
L 255.069727 99.75 
L 255.069727 93.5 
L 73.0625 93.5 
z
"/>
     </g>
    </g>
   </g>
   <g id="matplotlib.axis_2">
    <g id="ytick_1">
     <g id="line2d_11">
      <defs>
       <path d="M 0 0 
L -6 0 
" id="md3f6ae5eab" style="stroke:#262626;"/>
      </defs>
      <g>
       <use style="fill:#262626;stroke:#262626;" x="49.05" xlink:href="#md3f6ae5eab" y="232.243625"/>
      </g>
     </g>
     <g id="text_12">
      <!-- 0 -->
      <g style="fill:#262626;" transform="translate(30.4890625 234.82878125)scale(0.1 -0.1)">
       <use xlink:href="#ArialMT-30"/>
      </g>
     </g>
    </g>
    <g id="ytick_2">
     <g id="line2d_12">
      <g>
       <use style="fill:#262626;stroke:#262626;" x="49.05" xlink:href="#md3f6ae5eab" y="205.125671875"/>
      </g>
     </g>
     <g id="text_13">
      <!-- 5 -->
      <g style="fill:#262626;" transform="translate(30.4890625 207.710828125)scale(0.1 -0.1)">
       <use xlink:href="#ArialMT-35"/>
      </g>
     </g>
    </g>
    <g id="ytick_3">
     <g id="line2d_13">
      <g>
       <use style="fill:#262626;stroke:#262626;" x="49.05" xlink:href="#md3f6ae5eab" y="178.00771875"/>
      </g>
     </g>
     <g id="text_14">
      <!-- 10 -->
      <g style="fill:#262626;" transform="translate(24.928125 180.592875)scale(0.1 -0.1)">
       <use xlink:href="#ArialMT-31"/>
       <use x="55.615234375" xlink:href="#ArialMT-30"/>
      </g>
     </g>
    </g>
    <g id="ytick_4">
     <g id="line2d_14">
      <g>
       <use style="fill:#262626;stroke:#262626;" x="49.05" xlink:href="#md3f6ae5eab" y="150.889765625"/>
      </g>
     </g>
     <g id="text_15">
      <!-- 15 -->
      <g style="fill:#262626;" transform="translate(24.928125 153.474921875)scale(0.1 -0.1)">
       <use xlink:href="#ArialMT-31"/>
       <use x="55.615234375" xlink:href="#ArialMT-35"/>
      </g>
     </g>
    </g>
    <g id="ytick_5">
     <g id="line2d_15">
      <g>
       <use style="fill:#262626;stroke:#262626;" x="49.05" xlink:href="#md3f6ae5eab" y="123.7718125"/>
      </g>
     </g>
     <g id="text_16">
      <!-- 20 -->
      <g style="fill:#262626;" transform="translate(24.928125 126.35696875)scale(0.1 -0.1)">
       <use xlink:href="#ArialMT-32"/>
       <use x="55.615234375" xlink:href="#ArialMT-30"/>
      </g>
     </g>
    </g>
    <g id="ytick_6">
     <g id="line2d_16">
      <g>
       <use style="fill:#262626;stroke:#262626;" x="49.05" xlink:href="#md3f6ae5eab" y="96.653859375"/>
      </g>
     </g>
     <g id="text_17">
      <!-- 25 -->
      <g style="fill:#262626;" transform="translate(24.928125 99.239015625)scale(0.1 -0.1)">
       <use xlink:href="#ArialMT-32"/>
       <use x="55.615234375" xlink:href="#ArialMT-35"/>
      </g>
     </g>
    </g>
    <g id="ytick_7">
     <g id="line2d_17">
      <g>
       <use style="fill:#262626;stroke:#262626;" x="49.05" xlink:href="#md3f6ae5eab" y="69.53590625"/>
      </g>
     </g>
     <g id="text_18">
      <!-- 30 -->
      <g style="fill:#262626;" transform="translate(24.928125 72.1210625)scale(0.1 -0.1)">
       <use xlink:href="#ArialMT-33"/>
       <use x="55.615234375" xlink:href="#ArialMT-30"/>
      </g>
     </g>
    </g>
    <g id="ytick_8">
     <g id="line2d_18">
      <g>
       <use style="fill:#262626;stroke:#262626;" x="49.05" xlink:href="#md3f6ae5eab" y="42.417953125"/>
      </g>
     </g>
     <g id="text_19">
      <!-- 35 -->
      <g style="fill:#262626;" transform="translate(24.928125 45.003109375)scale(0.1 -0.1)">
       <use xlink:href="#ArialMT-33"/>
       <use x="55.615234375" xlink:href="#ArialMT-35"/>
      </g>
     </g>
    </g>
    <g id="ytick_9">
     <g id="line2d_19">
      <g>
       <use style="fill:#262626;stroke:#262626;" x="49.05" xlink:href="#md3f6ae5eab" y="15.3"/>
      </g>
     </g>
     <g id="text_20">
      <!-- 40 -->
      <g style="fill:#262626;" transform="translate(24.928125 17.88515625)scale(0.1 -0.1)">
       <use xlink:href="#ArialMT-34"/>
       <use x="55.615234375" xlink:href="#ArialMT-30"/>
      </g>
     </g>
    </g>
    <g id="text_21">
     <!-- YSI Error -->
     <defs>
      <path id="ArialMT-20"/>
      <path d="M 3.328125 25.921875 
Q 3.328125 40.328125 11.328125 47.265625 
Q 18.015625 53.03125 27.640625 53.03125 
Q 38.328125 53.03125 45.109375 46.015625 
Q 51.90625 39.015625 51.90625 26.65625 
Q 51.90625 16.65625 48.90625 10.90625 
Q 45.90625 5.171875 40.15625 2 
Q 34.421875 -1.171875 27.640625 -1.171875 
Q 16.75 -1.171875 10.03125 5.8125 
Q 3.328125 12.796875 3.328125 25.921875 
M 12.359375 25.921875 
Q 12.359375 15.96875 16.703125 11.015625 
Q 21.046875 6.0625 27.640625 6.0625 
Q 34.1875 6.0625 38.53125 11.03125 
Q 42.875 16.015625 42.875 26.21875 
Q 42.875 35.84375 38.5 40.796875 
Q 34.125 45.75 27.640625 45.75 
Q 21.046875 45.75 16.703125 40.8125 
Q 12.359375 35.890625 12.359375 25.921875 
" id="ArialMT-6f"/>
      <path d="M 9.328125 0 
L 9.328125 71.578125 
L 18.796875 71.578125 
L 18.796875 0 
z
" id="ArialMT-49"/>
      <path d="M 4.5 23 
L 13.421875 23.78125 
Q 14.0625 18.40625 16.375 14.96875 
Q 18.703125 11.53125 23.578125 9.40625 
Q 28.46875 7.28125 34.578125 7.28125 
Q 39.984375 7.28125 44.140625 8.890625 
Q 48.296875 10.5 50.3125 13.296875 
Q 52.34375 16.109375 52.34375 19.4375 
Q 52.34375 22.796875 50.390625 25.3125 
Q 48.4375 27.828125 43.953125 29.546875 
Q 41.0625 30.671875 31.203125 33.03125 
Q 21.34375 35.40625 17.390625 37.5 
Q 12.25 40.1875 9.734375 44.15625 
Q 7.234375 48.140625 7.234375 53.078125 
Q 7.234375 58.5 10.296875 63.203125 
Q 13.375 67.921875 19.28125 70.359375 
Q 25.203125 72.796875 32.421875 72.796875 
Q 40.375 72.796875 46.453125 70.234375 
Q 52.546875 67.671875 55.8125 62.6875 
Q 59.078125 57.71875 59.328125 51.421875 
L 50.25 50.734375 
Q 49.515625 57.515625 45.28125 60.984375 
Q 41.0625 64.453125 32.8125 64.453125 
Q 24.21875 64.453125 20.28125 61.296875 
Q 16.359375 58.15625 16.359375 53.71875 
Q 16.359375 49.859375 19.140625 47.359375 
Q 21.875 44.875 33.421875 42.265625 
Q 44.96875 39.65625 49.265625 37.703125 
Q 55.515625 34.8125 58.484375 30.390625 
Q 61.46875 25.984375 61.46875 20.21875 
Q 61.46875 14.5 58.203125 9.4375 
Q 54.9375 4.390625 48.796875 1.578125 
Q 42.671875 -1.21875 35.015625 -1.21875 
Q 25.296875 -1.21875 18.71875 1.609375 
Q 12.15625 4.4375 8.421875 10.125 
Q 4.6875 15.828125 4.5 23 
" id="ArialMT-53"/>
      <path d="M 27.875 0 
L 27.875 30.328125 
L 0.296875 71.578125 
L 11.8125 71.578125 
L 25.921875 50 
Q 29.828125 43.953125 33.203125 37.890625 
Q 36.421875 43.5 41.015625 50.53125 
L 54.890625 71.578125 
L 65.921875 71.578125 
L 37.359375 30.328125 
L 37.359375 0 
z
" id="ArialMT-59"/>
      <path d="M 7.90625 0 
L 7.90625 71.578125 
L 59.671875 71.578125 
L 59.671875 63.140625 
L 17.390625 63.140625 
L 17.390625 41.21875 
L 56.984375 41.21875 
L 56.984375 32.8125 
L 17.390625 32.8125 
L 17.390625 8.453125 
L 61.328125 8.453125 
L 61.328125 0 
z
" id="ArialMT-45"/>
      <path d="M 6.5 0 
L 6.5 51.859375 
L 14.40625 51.859375 
L 14.40625 44 
Q 17.4375 49.515625 20 51.265625 
Q 22.5625 53.03125 25.640625 53.03125 
Q 30.078125 53.03125 34.671875 50.203125 
L 31.640625 42.046875 
Q 28.421875 43.953125 25.203125 43.953125 
Q 22.3125 43.953125 20.015625 42.21875 
Q 17.71875 40.484375 16.75 37.40625 
Q 15.28125 32.71875 15.28125 27.15625 
L 15.28125 0 
z
" id="ArialMT-72"/>
     </defs>
     <g style="fill:#262626;" transform="translate(17.741875 146.386265625)rotate(-90.0)scale(0.11 -0.11)">
      <use xlink:href="#ArialMT-59"/>
      <use x="66.69921875" xlink:href="#ArialMT-53"/>
      <use x="133.3984375" xlink:href="#ArialMT-49"/>
      <use x="161.181640625" xlink:href="#ArialMT-20"/>
      <use x="188.96484375" xlink:href="#ArialMT-45"/>
      <use x="255.6640625" xlink:href="#ArialMT-72"/>
      <use x="288.96484375" xlink:href="#ArialMT-72"/>
      <use x="322.265625" xlink:href="#ArialMT-6f"/>
      <use x="377.880859375" xlink:href="#ArialMT-72"/>
     </g>
    </g>
   </g>
   <g id="line2d_20">
    <defs>
     <path d="M 0 1.25 
C 0.331504 1.25 0.649475 1.118292 0.883883 0.883883 
C 1.118292 0.649475 1.25 0.331504 1.25 0 
C 1.25 -0.331504 1.118292 -0.649475 0.883883 -0.883883 
C 0.649475 -1.118292 0.331504 -1.25 0 -1.25 
C -0.331504 -1.25 -0.649475 -1.118292 -0.883883 -0.883883 
C -1.118292 -0.649475 -1.25 -0.331504 -1.25 0 
C -1.25 0.331504 -1.118292 0.649475 -0.883883 0.883883 
C -0.649475 1.118292 -0.331504 1.25 0 1.25 
z
" id="mf0946cd549"/>
    </defs>
    <g clip-path="url(#p1d68c7d711)">
     <use style="fill:#4c72b0;" x="66.4976510826" xlink:href="#mf0946cd549" y="225.380769475"/>
     <use style="fill:#4c72b0;" x="61.3183426343" xlink:href="#mf0946cd549" y="228.226488413"/>
     <use style="fill:#4c72b0;" x="61.0183976941" xlink:href="#mf0946cd549" y="219.531793787"/>
     <use style="fill:#4c72b0;" x="61.2588981561" xlink:href="#mf0946cd549" y="201.858741305"/>
     <use style="fill:#4c72b0;" x="61.9783136388" xlink:href="#mf0946cd549" y="206.374770039"/>
     <use style="fill:#4c72b0;" x="64.1794639193" xlink:href="#mf0946cd549" y="231.719045336"/>
     <use style="fill:#4c72b0;" x="62.412258961" xlink:href="#mf0946cd549" y="214.583935256"/>
     <use style="fill:#4c72b0;" x="61.7367020372" xlink:href="#mf0946cd549" y="228.486946849"/>
     <use style="fill:#4c72b0;" x="64.1062945408" xlink:href="#mf0946cd549" y="208.830968009"/>
     <use style="fill:#4c72b0;" x="63.3108136182" xlink:href="#mf0946cd549" y="207.566213175"/>
     <use style="fill:#4c72b0;" x="64.8184444643" xlink:href="#mf0946cd549" y="214.850188652"/>
     <use style="fill:#4c72b0;" x="62.9087680239" xlink:href="#mf0946cd549" y="228.947386405"/>
     <use style="fill:#4c72b0;" x="62.3872254731" xlink:href="#mf0946cd549" y="229.94463407"/>
     <use style="fill:#4c72b0;" x="63.4465123815" xlink:href="#mf0946cd549" y="229.266153525"/>
     <use style="fill:#4c72b0;" x="61.0641662389" xlink:href="#mf0946cd549" y="204.933289826"/>
     <use style="fill:#4c72b0;" x="64.2461697096" xlink:href="#mf0946cd549" y="230.393491724"/>
     <use style="fill:#4c72b0;" x="66.6974846557" xlink:href="#mf0946cd549" y="218.071022818"/>
     <use style="fill:#4c72b0;" x="63.0031976774" xlink:href="#mf0946cd549" y="217.035297089"/>
     <use style="fill:#4c72b0;" x="78.8806311397" xlink:href="#mf0946cd549" y="225.097157192"/>
     <use style="fill:#4c72b0;" x="68.4320672986" xlink:href="#mf0946cd549" y="214.036374889"/>
     <use style="fill:#4c72b0;" x="118.687991185" xlink:href="#mf0946cd549" y="226.366076794"/>
     <use style="fill:#4c72b0;" x="137.668929023" xlink:href="#mf0946cd549" y="165.812183183"/>
     <use style="fill:#4c72b0;" x="135.100064359" xlink:href="#mf0946cd549" y="196.133425901"/>
     <use style="fill:#4c72b0;" x="131.964523921" xlink:href="#mf0946cd549" y="181.059994662"/>
     <use style="fill:#4c72b0;" x="132.468935004" xlink:href="#mf0946cd549" y="199.987813674"/>
     <use style="fill:#4c72b0;" x="133.00740893" xlink:href="#mf0946cd549" y="220.477550816"/>
     <use style="fill:#4c72b0;" x="133.117540452" xlink:href="#mf0946cd549" y="207.836486512"/>
     <use style="fill:#4c72b0;" x="132.738754666" xlink:href="#mf0946cd549" y="190.006390954"/>
     <use style="fill:#4c72b0;" x="132.521333921" xlink:href="#mf0946cd549" y="211.208532977"/>
     <use style="fill:#4c72b0;" x="125.29727016" xlink:href="#mf0946cd549" y="222.084650361"/>
     <use style="fill:#4c72b0;" x="126.954845011" xlink:href="#mf0946cd549" y="226.357734846"/>
     <use style="fill:#4c72b0;" x="130.824821019" xlink:href="#mf0946cd549" y="215.907234762"/>
     <use style="fill:#4c72b0;" x="62.4425197271" xlink:href="#mf0946cd549" y="215.757700371"/>
     <use style="fill:#4c72b0;" x="63.1908643916" xlink:href="#mf0946cd549" y="144.34161745"/>
     <use style="fill:#4c72b0;" x="61.5130941822" xlink:href="#mf0946cd549" y="214.299103853"/>
     <use style="fill:#4c72b0;" x="59.5314030826" xlink:href="#mf0946cd549" y="222.701555243"/>
     <use style="fill:#4c72b0;" x="61.3615373716" xlink:href="#mf0946cd549" y="217.234881103"/>
     <use style="fill:#4c72b0;" x="61.0284154421" xlink:href="#mf0946cd549" y="227.577825498"/>
     <use style="fill:#4c72b0;" x="59.7073916774" xlink:href="#mf0946cd549" y="228.857907008"/>
     <use style="fill:#4c72b0;" x="61.1762576099" xlink:href="#mf0946cd549" y="214.102179456"/>
     <use style="fill:#4c72b0;" x="61.1646146949" xlink:href="#mf0946cd549" y="206.328948287"/>
     <use style="fill:#4c72b0;" x="60.4430564886" xlink:href="#mf0946cd549" y="224.200372904"/>
     <use style="fill:#4c72b0;" x="60.7610047767" xlink:href="#mf0946cd549" y="203.543140941"/>
     <use style="fill:#4c72b0;" x="69.8702930515" xlink:href="#mf0946cd549" y="187.571274403"/>
     <use style="fill:#4c72b0;" x="62.5504526781" xlink:href="#mf0946cd549" y="228.779134353"/>
     <use style="fill:#4c72b0;" x="62.6371317683" xlink:href="#mf0946cd549" y="198.06606833"/>
     <use style="fill:#4c72b0;" x="60.4044836447" xlink:href="#mf0946cd549" y="230.566854048"/>
     <use style="fill:#4c72b0;" x="61.3904646776" xlink:href="#mf0946cd549" y="218.545682169"/>
     <use style="fill:#4c72b0;" x="62.8587833263" xlink:href="#mf0946cd549" y="188.833333415"/>
     <use style="fill:#4c72b0;" x="63.2090666889" xlink:href="#mf0946cd549" y="163.719885129"/>
     <use style="fill:#4c72b0;" x="63.4162634055" xlink:href="#mf0946cd549" y="185.877149219"/>
     <use style="fill:#4c72b0;" x="62.7046295719" xlink:href="#mf0946cd549" y="204.571987459"/>
     <use style="fill:#4c72b0;" x="62.8045141185" xlink:href="#mf0946cd549" y="229.811975986"/>
     <use style="fill:#4c72b0;" x="61.9772469481" xlink:href="#mf0946cd549" y="221.126199378"/>
     <use style="fill:#4c72b0;" x="64.5881775439" xlink:href="#mf0946cd549" y="150.117274714"/>
     <use style="fill:#4c72b0;" x="67.0533676535" xlink:href="#mf0946cd549" y="202.082697898"/>
     <use style="fill:#4c72b0;" x="67.5440890875" xlink:href="#mf0946cd549" y="116.497649985"/>
     <use style="fill:#4c72b0;" x="79.2592212761" xlink:href="#mf0946cd549" y="231.642024035"/>
     <use style="fill:#4c72b0;" x="93.6790422289" xlink:href="#mf0946cd549" y="148.167398051"/>
     <use style="fill:#4c72b0;" x="138.542164655" xlink:href="#mf0946cd549" y="75.6758617"/>
     <use style="fill:#4c72b0;" x="134.784303602" xlink:href="#mf0946cd549" y="46.0133742947"/>
     <use style="fill:#4c72b0;" x="72.2186279134" xlink:href="#mf0946cd549" y="187.408045727"/>
     <use style="fill:#4c72b0;" x="71.2035748876" xlink:href="#mf0946cd549" y="167.065246463"/>
     <use style="fill:#4c72b0;" x="63.6256504372" xlink:href="#mf0946cd549" y="144.872287027"/>
     <use style="fill:#4c72b0;" x="93.6513848532" xlink:href="#mf0946cd549" y="185.528436325"/>
     <use style="fill:#4c72b0;" x="74.5181295238" xlink:href="#mf0946cd549" y="206.640929298"/>
     <use style="fill:#4c72b0;" x="74.2713528344" xlink:href="#mf0946cd549" y="230.79346043"/>
     <use style="fill:#4c72b0;" x="63.4745038732" xlink:href="#mf0946cd549" y="226.522309365"/>
     <use style="fill:#4c72b0;" x="61.4914546434" xlink:href="#mf0946cd549" y="224.165806679"/>
     <use style="fill:#4c72b0;" x="62.0257397972" xlink:href="#mf0946cd549" y="224.724640159"/>
     <use style="fill:#4c72b0;" x="61.4944122163" xlink:href="#mf0946cd549" y="218.996679103"/>
     <use style="fill:#4c72b0;" x="63.7573196927" xlink:href="#mf0946cd549" y="222.81514912"/>
     <use style="fill:#4c72b0;" x="72.4161449925" xlink:href="#mf0946cd549" y="230.095718094"/>
     <use style="fill:#4c72b0;" x="59.4456467559" xlink:href="#mf0946cd549" y="221.734550763"/>
     <use style="fill:#4c72b0;" x="59.4037867284" xlink:href="#mf0946cd549" y="229.061113211"/>
     <use style="fill:#4c72b0;" x="61.5759442683" xlink:href="#mf0946cd549" y="230.156246875"/>
     <use style="fill:#4c72b0;" x="59.0907671029" xlink:href="#mf0946cd549" y="221.671565121"/>
     <use style="fill:#4c72b0;" x="64.150638381" xlink:href="#mf0946cd549" y="223.301129686"/>
     <use style="fill:#4c72b0;" x="60.7912503908" xlink:href="#mf0946cd549" y="231.22548781"/>
     <use style="fill:#4c72b0;" x="58.8088152256" xlink:href="#mf0946cd549" y="223.387715418"/>
     <use style="fill:#4c72b0;" x="60.124176068" xlink:href="#mf0946cd549" y="223.088348967"/>
     <use style="fill:#4c72b0;" x="59.6729935338" xlink:href="#mf0946cd549" y="220.400397103"/>
     <use style="fill:#4c72b0;" x="60.3089284234" xlink:href="#mf0946cd549" y="224.147706079"/>
     <use style="fill:#4c72b0;" x="60.6399249771" xlink:href="#mf0946cd549" y="230.953341568"/>
     <use style="fill:#4c72b0;" x="60.9979665916" xlink:href="#mf0946cd549" y="217.646691361"/>
     <use style="fill:#4c72b0;" x="64.3195446187" xlink:href="#mf0946cd549" y="213.834253326"/>
     <use style="fill:#4c72b0;" x="63.5007157661" xlink:href="#mf0946cd549" y="230.927898832"/>
     <use style="fill:#4c72b0;" x="61.9105365737" xlink:href="#mf0946cd549" y="230.43117118"/>
     <use style="fill:#4c72b0;" x="62.08848518" xlink:href="#mf0946cd549" y="221.904139865"/>
     <use style="fill:#4c72b0;" x="134.598858841" xlink:href="#mf0946cd549" y="207.128929146"/>
     <use style="fill:#4c72b0;" x="62.8025054845" xlink:href="#mf0946cd549" y="213.554770122"/>
     <use style="fill:#4c72b0;" x="60.22267889" xlink:href="#mf0946cd549" y="220.781486771"/>
     <use style="fill:#4c72b0;" x="61.8626362291" xlink:href="#mf0946cd549" y="221.346594815"/>
     <use style="fill:#4c72b0;" x="62.2677799921" xlink:href="#mf0946cd549" y="221.243286652"/>
     <use style="fill:#4c72b0;" x="63.6293899533" xlink:href="#mf0946cd549" y="217.679400199"/>
     <use style="fill:#4c72b0;" x="62.384473917" xlink:href="#mf0946cd549" y="200.912309286"/>
     <use style="fill:#4c72b0;" x="62.1242182276" xlink:href="#mf0946cd549" y="189.806798664"/>
     <use style="fill:#4c72b0;" x="79.8500166364" xlink:href="#mf0946cd549" y="212.286360512"/>
     <use style="fill:#4c72b0;" x="63.2627258422" xlink:href="#mf0946cd549" y="199.993023254"/>
     <use style="fill:#4c72b0;" x="68.578904024" xlink:href="#mf0946cd549" y="220.549061507"/>
     <use style="fill:#4c72b0;" x="64.2149446816" xlink:href="#mf0946cd549" y="224.63925622"/>
     <use style="fill:#4c72b0;" x="62.7177054139" xlink:href="#mf0946cd549" y="208.087996672"/>
     <use style="fill:#4c72b0;" x="61.9244032277" xlink:href="#mf0946cd549" y="193.927510177"/>
     <use style="fill:#4c72b0;" x="64.0983480553" xlink:href="#mf0946cd549" y="221.915471425"/>
     <use style="fill:#4c72b0;" x="67.9518840203" xlink:href="#mf0946cd549" y="215.104398773"/>
     <use style="fill:#4c72b0;" x="62.7588840192" xlink:href="#mf0946cd549" y="201.249835445"/>
     <use style="fill:#4c72b0;" x="63.9634410204" xlink:href="#mf0946cd549" y="230.342292808"/>
     <use style="fill:#4c72b0;" x="68.3003129747" xlink:href="#mf0946cd549" y="211.857110161"/>
     <use style="fill:#4c72b0;" x="65.8615321732" xlink:href="#mf0946cd549" y="232.073291598"/>
     <use style="fill:#4c72b0;" x="63.8549327379" xlink:href="#mf0946cd549" y="218.054824087"/>
     <use style="fill:#4c72b0;" x="130.725864344" xlink:href="#mf0946cd549" y="30.5910967155"/>
     <use style="fill:#4c72b0;" x="70.5994427251" xlink:href="#mf0946cd549" y="202.827624379"/>
     <use style="fill:#4c72b0;" x="63.2915924979" xlink:href="#mf0946cd549" y="154.774628821"/>
     <use style="fill:#4c72b0;" x="107.347208324" xlink:href="#mf0946cd549" y="181.278718399"/>
     <use style="fill:#4c72b0;" x="63.5233748946" xlink:href="#mf0946cd549" y="230.407558417"/>
     <use style="fill:#4c72b0;" x="60.9894842461" xlink:href="#mf0946cd549" y="214.901732045"/>
     <use style="fill:#4c72b0;" x="62.2903536261" xlink:href="#mf0946cd549" y="224.488258056"/>
     <use style="fill:#4c72b0;" x="62.166651794" xlink:href="#mf0946cd549" y="221.812729634"/>
     <use style="fill:#4c72b0;" x="60.829996406" xlink:href="#mf0946cd549" y="212.275633339"/>
     <use style="fill:#4c72b0;" x="64.054612408" xlink:href="#mf0946cd549" y="230.668593957"/>
     <use style="fill:#4c72b0;" x="61.3502447959" xlink:href="#mf0946cd549" y="222.796566845"/>
     <use style="fill:#4c72b0;" x="60.5353099868" xlink:href="#mf0946cd549" y="220.284629349"/>
     <use style="fill:#4c72b0;" x="61.1755459268" xlink:href="#mf0946cd549" y="229.175239321"/>
     <use style="fill:#4c72b0;" x="61.8057856094" xlink:href="#mf0946cd549" y="181.832089371"/>
     <use style="fill:#4c72b0;" x="59.974976188" xlink:href="#mf0946cd549" y="225.104925528"/>
     <use style="fill:#4c72b0;" x="62.9060683733" xlink:href="#mf0946cd549" y="215.972679439"/>
     <use style="fill:#4c72b0;" x="61.011186369" xlink:href="#mf0946cd549" y="214.0015066"/>
     <use style="fill:#4c72b0;" x="66.173870982" xlink:href="#mf0946cd549" y="193.988791016"/>
     <use style="fill:#4c72b0;" x="64.1598577122" xlink:href="#mf0946cd549" y="220.487318261"/>
     <use style="fill:#4c72b0;" x="63.8835045888" xlink:href="#mf0946cd549" y="230.849166521"/>
     <use style="fill:#4c72b0;" x="72.3977370356" xlink:href="#mf0946cd549" y="217.366494374"/>
     <use style="fill:#4c72b0;" x="63.5668625291" xlink:href="#mf0946cd549" y="228.355666676"/>
     <use style="fill:#4c72b0;" x="78.8873807704" xlink:href="#mf0946cd549" y="224.776544582"/>
     <use style="fill:#4c72b0;" x="90.8548243731" xlink:href="#mf0946cd549" y="204.02596638"/>
     <use style="fill:#4c72b0;" x="70.0597890952" xlink:href="#mf0946cd549" y="209.838301735"/>
     <use style="fill:#4c72b0;" x="79.845102915" xlink:href="#mf0946cd549" y="168.98271118"/>
     <use style="fill:#4c72b0;" x="92.1070426855" xlink:href="#mf0946cd549" y="173.638186693"/>
     <use style="fill:#4c72b0;" x="128.374091686" xlink:href="#mf0946cd549" y="222.275331745"/>
     <use style="fill:#4c72b0;" x="78.9753943278" xlink:href="#mf0946cd549" y="218.657783308"/>
     <use style="fill:#4c72b0;" x="67.8986623752" xlink:href="#mf0946cd549" y="229.638629179"/>
     <use style="fill:#4c72b0;" x="61.0491803575" xlink:href="#mf0946cd549" y="212.276640653"/>
     <use style="fill:#4c72b0;" x="62.7053154184" xlink:href="#mf0946cd549" y="207.924202659"/>
     <use style="fill:#4c72b0;" x="62.0930315237" xlink:href="#mf0946cd549" y="208.5981362"/>
     <use style="fill:#4c72b0;" x="70.2836108306" xlink:href="#mf0946cd549" y="219.671839264"/>
     <use style="fill:#4c72b0;" x="62.9139690713" xlink:href="#mf0946cd549" y="211.284692437"/>
     <use style="fill:#4c72b0;" x="60.2137199942" xlink:href="#mf0946cd549" y="230.14867095"/>
     <use style="fill:#4c72b0;" x="63.0081867266" xlink:href="#mf0946cd549" y="195.874910324"/>
     <use style="fill:#4c72b0;" x="63.2648166734" xlink:href="#mf0946cd549" y="228.379278404"/>
     <use style="fill:#4c72b0;" x="92.4779546374" xlink:href="#mf0946cd549" y="222.680472789"/>
     <use style="fill:#4c72b0;" x="75.5339263621" xlink:href="#mf0946cd549" y="227.643615582"/>
     <use style="fill:#4c72b0;" x="114.680175768" xlink:href="#mf0946cd549" y="187.554704298"/>
     <use style="fill:#4c72b0;" x="91.1074324038" xlink:href="#mf0946cd549" y="152.390600498"/>
     <use style="fill:#4c72b0;" x="123.777316409" xlink:href="#mf0946cd549" y="219.663449472"/>
     <use style="fill:#4c72b0;" x="128.435898841" xlink:href="#mf0946cd549" y="165.818805135"/>
     <use style="fill:#4c72b0;" x="70.1979564899" xlink:href="#mf0946cd549" y="209.270534074"/>
     <use style="fill:#4c72b0;" x="68.2498136552" xlink:href="#mf0946cd549" y="225.875658361"/>
     <use style="fill:#4c72b0;" x="64.1797749764" xlink:href="#mf0946cd549" y="231.805451329"/>
     <use style="fill:#4c72b0;" x="63.134993873" xlink:href="#mf0946cd549" y="224.40706785"/>
     <use style="fill:#4c72b0;" x="64.032952228" xlink:href="#mf0946cd549" y="230.650505253"/>
     <use style="fill:#4c72b0;" x="95.1282050191" xlink:href="#mf0946cd549" y="225.41684085"/>
     <use style="fill:#4c72b0;" x="62.2522965392" xlink:href="#mf0946cd549" y="188.099291087"/>
     <use style="fill:#4c72b0;" x="62.467745289" xlink:href="#mf0946cd549" y="223.321160345"/>
     <use style="fill:#4c72b0;" x="64.1745194265" xlink:href="#mf0946cd549" y="231.495637173"/>
     <use style="fill:#4c72b0;" x="61.5711806033" xlink:href="#mf0946cd549" y="210.571600798"/>
     <use style="fill:#4c72b0;" x="63.2297920979" xlink:href="#mf0946cd549" y="213.620652274"/>
     <use style="fill:#4c72b0;" x="59.3211526043" xlink:href="#mf0946cd549" y="210.901063281"/>
     <use style="fill:#4c72b0;" x="64.5031171879" xlink:href="#mf0946cd549" y="190.772086704"/>
     <use style="fill:#4c72b0;" x="62.4905712201" xlink:href="#mf0946cd549" y="208.075789952"/>
     <use style="fill:#4c72b0;" x="62.6082387473" xlink:href="#mf0946cd549" y="208.619034778"/>
     <use style="fill:#4c72b0;" x="63.5815883747" xlink:href="#mf0946cd549" y="178.848987288"/>
     <use style="fill:#4c72b0;" x="60.5049925462" xlink:href="#mf0946cd549" y="195.22249992"/>
     <use style="fill:#4c72b0;" x="62.182038699" xlink:href="#mf0946cd549" y="218.161393409"/>
     <use style="fill:#4c72b0;" x="60.5810720007" xlink:href="#mf0946cd549" y="192.998318082"/>
     <use style="fill:#4c72b0;" x="60.5820068566" xlink:href="#mf0946cd549" y="212.951332976"/>
     <use style="fill:#4c72b0;" x="67.2663609812" xlink:href="#mf0946cd549" y="224.165875471"/>
     <use style="fill:#4c72b0;" x="98.852173434" xlink:href="#mf0946cd549" y="226.112629076"/>
     <use style="fill:#4c72b0;" x="96.5987181037" xlink:href="#mf0946cd549" y="216.183039658"/>
     <use style="fill:#4c72b0;" x="62.8945095346" xlink:href="#mf0946cd549" y="175.614298494"/>
     <use style="fill:#4c72b0;" x="63.7315297148" xlink:href="#mf0946cd549" y="150.963367493"/>
     <use style="fill:#4c72b0;" x="62.0727497254" xlink:href="#mf0946cd549" y="207.396658727"/>
     <use style="fill:#4c72b0;" x="62.3187371775" xlink:href="#mf0946cd549" y="219.319027033"/>
     <use style="fill:#4c72b0;" x="62.9430705035" xlink:href="#mf0946cd549" y="207.072162078"/>
     <use style="fill:#4c72b0;" x="61.6759578795" xlink:href="#mf0946cd549" y="213.036427264"/>
     <use style="fill:#4c72b0;" x="61.2726097348" xlink:href="#mf0946cd549" y="185.815752002"/>
     <use style="fill:#4c72b0;" x="62.2765874834" xlink:href="#mf0946cd549" y="176.734171456"/>
     <use style="fill:#4c72b0;" x="76.2841126907" xlink:href="#mf0946cd549" y="197.273548053"/>
     <use style="fill:#4c72b0;" x="100.328529263" xlink:href="#mf0946cd549" y="213.315371511"/>
     <use style="fill:#4c72b0;" x="67.5046106712" xlink:href="#mf0946cd549" y="228.248044783"/>
     <use style="fill:#4c72b0;" x="61.3207695406" xlink:href="#mf0946cd549" y="204.383035431"/>
     <use style="fill:#4c72b0;" x="61.5076479471" xlink:href="#mf0946cd549" y="218.735572702"/>
     <use style="fill:#4c72b0;" x="63.4965657327" xlink:href="#mf0946cd549" y="229.688531907"/>
     <use style="fill:#4c72b0;" x="63.607254895" xlink:href="#mf0946cd549" y="201.025467652"/>
     <use style="fill:#4c72b0;" x="62.7618022129" xlink:href="#mf0946cd549" y="211.409513781"/>
     <use style="fill:#4c72b0;" x="61.430562191" xlink:href="#mf0946cd549" y="211.697835479"/>
     <use style="fill:#4c72b0;" x="63.6323649978" xlink:href="#mf0946cd549" y="189.531201955"/>
     <use style="fill:#4c72b0;" x="66.9424880781" xlink:href="#mf0946cd549" y="194.80045412"/>
     <use style="fill:#4c72b0;" x="63.8037663483" xlink:href="#mf0946cd549" y="203.474096421"/>
     <use style="fill:#4c72b0;" x="99.6347633895" xlink:href="#mf0946cd549" y="155.042269438"/>
     <use style="fill:#4c72b0;" x="63.3298137962" xlink:href="#mf0946cd549" y="222.471150295"/>
     <use style="fill:#4c72b0;" x="63.7108331285" xlink:href="#mf0946cd549" y="215.715566497"/>
     <use style="fill:#4c72b0;" x="63.7706288216" xlink:href="#mf0946cd549" y="222.948497194"/>
     <use style="fill:#4c72b0;" x="79.2831813278" xlink:href="#mf0946cd549" y="225.164132776"/>
     <use style="fill:#4c72b0;" x="78.0229826719" xlink:href="#mf0946cd549" y="211.084812695"/>
     <use style="fill:#4c72b0;" x="70.3060212185" xlink:href="#mf0946cd549" y="223.196974294"/>
     <use style="fill:#4c72b0;" x="62.538691335" xlink:href="#mf0946cd549" y="211.868678614"/>
     <use style="fill:#4c72b0;" x="63.3599285593" xlink:href="#mf0946cd549" y="229.862232501"/>
     <use style="fill:#4c72b0;" x="65.3002119652" xlink:href="#mf0946cd549" y="221.427181927"/>
     <use style="fill:#4c72b0;" x="82.2468148002" xlink:href="#mf0946cd549" y="215.288691283"/>
     <use style="fill:#4c72b0;" x="65.3240660383" xlink:href="#mf0946cd549" y="200.175677168"/>
     <use style="fill:#4c72b0;" x="69.2544053761" xlink:href="#mf0946cd549" y="197.687143803"/>
     <use style="fill:#4c72b0;" x="62.9704756512" xlink:href="#mf0946cd549" y="207.642498969"/>
     <use style="fill:#4c72b0;" x="68.5526591685" xlink:href="#mf0946cd549" y="210.323948168"/>
     <use style="fill:#4c72b0;" x="75.2950383935" xlink:href="#mf0946cd549" y="220.155672017"/>
     <use style="fill:#4c72b0;" x="68.0112392214" xlink:href="#mf0946cd549" y="177.420521714"/>
     <use style="fill:#4c72b0;" x="71.1989036342" xlink:href="#mf0946cd549" y="232.031656338"/>
     <use style="fill:#4c72b0;" x="92.6540390902" xlink:href="#mf0946cd549" y="211.264977679"/>
     <use style="fill:#4c72b0;" x="67.6146499996" xlink:href="#mf0946cd549" y="223.456445719"/>
     <use style="fill:#4c72b0;" x="86.4060008835" xlink:href="#mf0946cd549" y="222.213934011"/>
     <use style="fill:#4c72b0;" x="67.1801630353" xlink:href="#mf0946cd549" y="228.068772545"/>
     <use style="fill:#4c72b0;" x="62.5982854577" xlink:href="#mf0946cd549" y="225.858144303"/>
     <use style="fill:#4c72b0;" x="63.9004187511" xlink:href="#mf0946cd549" y="204.862957911"/>
     <use style="fill:#4c72b0;" x="70.8501408404" xlink:href="#mf0946cd549" y="194.560864132"/>
     <use style="fill:#4c72b0;" x="69.0745769146" xlink:href="#mf0946cd549" y="207.730423044"/>
     <use style="fill:#4c72b0;" x="67.6423977122" xlink:href="#mf0946cd549" y="199.966705359"/>
     <use style="fill:#4c72b0;" x="68.216665455" xlink:href="#mf0946cd549" y="194.01374988"/>
     <use style="fill:#4c72b0;" x="80.0986994218" xlink:href="#mf0946cd549" y="193.712450396"/>
    </g>
   </g>
   <g id="line2d_21">
    <defs>
     <path d="M -2.5 2.5 
L 2.5 -2.5 
M -2.5 -2.5 
L 2.5 2.5 
" id="m9512aeb6dc" style="stroke:#c44e52;"/>
    </defs>
    <g clip-path="url(#p1d68c7d711)">
     <use style="fill:#c44e52;stroke:#c44e52;" x="154.990287814" xlink:href="#m9512aeb6dc" y="198.48618433"/>
     <use style="fill:#c44e52;stroke:#c44e52;" x="165.855856834" xlink:href="#m9512aeb6dc" y="199.337551343"/>
     <use style="fill:#c44e52;stroke:#c44e52;" x="141.471808659" xlink:href="#m9512aeb6dc" y="196.96096912"/>
     <use style="fill:#c44e52;stroke:#c44e52;" x="139.995634124" xlink:href="#m9512aeb6dc" y="184.975854651"/>
     <use style="fill:#c44e52;stroke:#c44e52;" x="140.221558414" xlink:href="#m9512aeb6dc" y="192.171581748"/>
     <use style="fill:#c44e52;stroke:#c44e52;" x="140.384001944" xlink:href="#m9512aeb6dc" y="218.935328955"/>
     <use style="fill:#c44e52;stroke:#c44e52;" x="267.393182425" xlink:href="#m9512aeb6dc" y="99.3413653832"/>
     <use style="fill:#c44e52;stroke:#c44e52;" x="143.883751849" xlink:href="#m9512aeb6dc" y="73.3767569781"/>
     <use style="fill:#c44e52;stroke:#c44e52;" x="140.972955648" xlink:href="#m9512aeb6dc" y="90.1157662276"/>
     <use style="fill:#c44e52;stroke:#c44e52;" x="142.703672128" xlink:href="#m9512aeb6dc" y="195.286488479"/>
     <use style="fill:#c44e52;stroke:#c44e52;" x="139.735079551" xlink:href="#m9512aeb6dc" y="188.421342125"/>
     <use style="fill:#c44e52;stroke:#c44e52;" x="141.1556903" xlink:href="#m9512aeb6dc" y="218.056280617"/>
    </g>
   </g>
   <g id="line2d_22">
    <path clip-path="url(#p1d68c7d711)" d="M 138.723132 232.243625 
L 138.723132 15.3 
" style="fill:none;stroke:#808080;stroke-dasharray:6.000000,6.000000;stroke-dashoffset:0.0;stroke-width:1.75;"/>
   </g>
   <g id="patch_3">
    <path d="M 49.05 232.243625 
L 271.575 232.243625 
" style="fill:none;stroke:#262626;stroke-linecap:square;stroke-linejoin:miter;stroke-width:1.25;"/>
   </g>
   <g id="patch_4">
    <path d="M 49.05 232.243625 
L 49.05 15.3 
" style="fill:none;stroke:#262626;stroke-linecap:square;stroke-linejoin:miter;stroke-width:1.25;"/>
   </g>
  </g>
 </g>
 <defs>
  <clipPath id="p1d68c7d711">
   <rect height="216.943625" width="222.525" x="49.05" y="15.3"/>
  </clipPath>
 </defs>
</svg>
