<?xml version="1.0" encoding="utf-8" standalone="no"?>
<!DOCTYPE svg PUBLIC "-//W3C//DTD SVG 1.1//EN"
  "http://www.w3.org/Graphics/SVG/1.1/DTD/svg11.dtd">
<!-- Created with matplotlib (http://matplotlib.org/) -->
<svg height="172pt" version="1.1" viewBox="0 0 86 172" width="86pt" xmlns="http://www.w3.org/2000/svg" xmlns:xlink="http://www.w3.org/1999/xlink">
 <defs>
  <style type="text/css">
*{stroke-linecap:butt;stroke-linejoin:round;stroke-miterlimit:100000;}
  </style>
 </defs>
 <g id="figure_1">
  <g id="patch_1">
   <path d="M 0 172.8 
L 86.4 172.8 
L 86.4 0 
L 0 0 
L 0 172.8 
z
" style="fill:none;"/>
  </g>
  <g id="axes_1">
   <g id="QuadMesh_1">
    <path clip-path="url(#p48ac11eba4)" d="M 10.8 151.2 
L 21.96 151.2 
L 21.96 140.04 
L 10.8 140.04 
L 10.8 151.2 
" style="fill:#91c3de;stroke:#ffffff;"/>
    <path clip-path="url(#p48ac11eba4)" d="M 21.96 151.2 
L 33.12 151.2 
L 33.12 140.04 
L 21.96 140.04 
L 21.96 151.2 
" style="fill:#1663aa;stroke:#ffffff;"/>
    <path clip-path="url(#p48ac11eba4)" d="M 33.12 151.2 
L 44.28 151.2 
L 44.28 140.04 
L 33.12 140.04 
L 33.12 151.2 
" style="fill:#2b7bba;stroke:#ffffff;"/>
    <path clip-path="url(#p48ac11eba4)" d="M 44.28 151.2 
L 55.44 151.2 
L 55.44 140.04 
L 44.28 140.04 
L 44.28 151.2 
" style="fill:#e8f1fa;stroke:#ffffff;"/>
    <path clip-path="url(#p48ac11eba4)" d="M 55.44 151.2 
L 66.6 151.2 
L 66.6 140.04 
L 55.44 140.04 
L 55.44 151.2 
" style="fill:#ccdff1;stroke:#ffffff;"/>
    <path clip-path="url(#p48ac11eba4)" d="M 66.6 151.2 
L 77.76 151.2 
L 77.76 140.04 
L 66.6 140.04 
L 66.6 151.2 
" style="fill:#6aaed6;stroke:#ffffff;"/>
    <path clip-path="url(#p48ac11eba4)" d="M 10.8 140.04 
L 21.96 140.04 
L 21.96 128.88 
L 10.8 128.88 
L 10.8 140.04 
" style="fill:#d9e8f5;stroke:#ffffff;"/>
    <path clip-path="url(#p48ac11eba4)" d="M 21.96 140.04 
L 33.12 140.04 
L 33.12 128.88 
L 21.96 128.88 
L 21.96 140.04 
" style="fill:#d3e3f3;stroke:#ffffff;"/>
    <path clip-path="url(#p48ac11eba4)" d="M 33.12 140.04 
L 44.28 140.04 
L 44.28 128.88 
L 33.12 128.88 
L 33.12 140.04 
" style="fill:#1c6ab0;stroke:#ffffff;"/>
    <path clip-path="url(#p48ac11eba4)" d="M 44.28 140.04 
L 55.44 140.04 
L 55.44 128.88 
L 44.28 128.88 
L 44.28 140.04 
" style="fill:#08306b;stroke:#ffffff;"/>
    <path clip-path="url(#p48ac11eba4)" d="M 55.44 140.04 
L 66.6 140.04 
L 66.6 128.88 
L 55.44 128.88 
L 55.44 140.04 
" style="fill:#bdd7ec;stroke:#ffffff;"/>
    <path clip-path="url(#p48ac11eba4)" d="M 66.6 140.04 
L 77.76 140.04 
L 77.76 128.88 
L 66.6 128.88 
L 66.6 140.04 
" style="fill:#68acd5;stroke:#ffffff;"/>
    <path clip-path="url(#p48ac11eba4)" d="M 10.8 128.88 
L 21.96 128.88 
L 21.96 117.72 
L 10.8 117.72 
L 10.8 128.88 
" style="fill:#74b3d8;stroke:#ffffff;"/>
    <path clip-path="url(#p48ac11eba4)" d="M 21.96 128.88 
L 33.12 128.88 
L 33.12 117.72 
L 21.96 117.72 
L 21.96 128.88 
" style="fill:#6dafd7;stroke:#ffffff;"/>
    <path clip-path="url(#p48ac11eba4)" d="M 33.12 128.88 
L 44.28 128.88 
L 44.28 117.72 
L 33.12 117.72 
L 33.12 128.88 
" style="fill:#ecf4fb;stroke:#ffffff;"/>
    <path clip-path="url(#p48ac11eba4)" d="M 44.28 128.88 
L 55.44 128.88 
L 55.44 117.72 
L 44.28 117.72 
L 44.28 128.88 
" style="fill:#c8dcf0;stroke:#ffffff;"/>
    <path clip-path="url(#p48ac11eba4)" d="M 55.44 128.88 
L 66.6 128.88 
L 66.6 117.72 
L 55.44 117.72 
L 55.44 128.88 
" style="fill:#0e58a2;stroke:#ffffff;"/>
    <path clip-path="url(#p48ac11eba4)" d="M 66.6 128.88 
L 77.76 128.88 
L 77.76 117.72 
L 66.6 117.72 
L 66.6 128.88 
" style="fill:#b4d3e9;stroke:#ffffff;"/>
    <path clip-path="url(#p48ac11eba4)" d="M 10.8 117.72 
L 21.96 117.72 
L 21.96 106.56 
L 10.8 106.56 
L 10.8 117.72 
" style="fill:#3181bd;stroke:#ffffff;"/>
    <path clip-path="url(#p48ac11eba4)" d="M 21.96 117.72 
L 33.12 117.72 
L 33.12 106.56 
L 21.96 106.56 
L 21.96 117.72 
" style="fill:#2c7cba;stroke:#ffffff;"/>
    <path clip-path="url(#p48ac11eba4)" d="M 33.12 117.72 
L 44.28 117.72 
L 44.28 106.56 
L 33.12 106.56 
L 33.12 117.72 
" style="fill:#8abfdd;stroke:#ffffff;"/>
    <path clip-path="url(#p48ac11eba4)" d="M 44.28 117.72 
L 55.44 117.72 
L 55.44 106.56 
L 44.28 106.56 
L 44.28 117.72 
" style="fill:#519ccc;stroke:#ffffff;"/>
    <path clip-path="url(#p48ac11eba4)" d="M 55.44 117.72 
L 66.6 117.72 
L 66.6 106.56 
L 55.44 106.56 
L 55.44 117.72 
" style="fill:#9ac8e0;stroke:#ffffff;"/>
    <path clip-path="url(#p48ac11eba4)" d="M 66.6 117.72 
L 77.76 117.72 
L 77.76 106.56 
L 66.6 106.56 
L 66.6 117.72 
" style="fill:#3787c0;stroke:#ffffff;"/>
    <path clip-path="url(#p48ac11eba4)" d="M 10.8 106.56 
L 21.96 106.56 
L 21.96 95.4 
L 10.8 95.4 
L 10.8 106.56 
" style="fill:#2171b5;stroke:#ffffff;"/>
    <path clip-path="url(#p48ac11eba4)" d="M 21.96 106.56 
L 33.12 106.56 
L 33.12 95.4 
L 21.96 95.4 
L 21.96 106.56 
" style="fill:#084d96;stroke:#ffffff;"/>
    <path clip-path="url(#p48ac11eba4)" d="M 33.12 106.56 
L 44.28 106.56 
L 44.28 95.4 
L 33.12 95.4 
L 33.12 106.56 
" style="fill:#4997c9;stroke:#ffffff;"/>
    <path clip-path="url(#p48ac11eba4)" d="M 44.28 106.56 
L 55.44 106.56 
L 55.44 95.4 
L 44.28 95.4 
L 44.28 106.56 
" style="fill:#4493c7;stroke:#ffffff;"/>
    <path clip-path="url(#p48ac11eba4)" d="M 55.44 106.56 
L 66.6 106.56 
L 66.6 95.4 
L 55.44 95.4 
L 55.44 106.56 
" style="fill:#083370;stroke:#ffffff;"/>
    <path clip-path="url(#p48ac11eba4)" d="M 66.6 106.56 
L 77.76 106.56 
L 77.76 95.4 
L 66.6 95.4 
L 66.6 106.56 
" style="fill:#c9ddf0;stroke:#ffffff;"/>
    <path clip-path="url(#p48ac11eba4)" d="M 10.8 95.4 
L 21.96 95.4 
L 21.96 84.24 
L 10.8 84.24 
L 10.8 95.4 
" style="fill:#3585bf;stroke:#ffffff;"/>
    <path clip-path="url(#p48ac11eba4)" d="M 21.96 95.4 
L 33.12 95.4 
L 33.12 84.24 
L 21.96 84.24 
L 21.96 95.4 
" style="fill:#cde0f1;stroke:#ffffff;"/>
    <path clip-path="url(#p48ac11eba4)" d="M 33.12 95.4 
L 44.28 95.4 
L 44.28 84.24 
L 33.12 84.24 
L 33.12 95.4 
" style="fill:#f7fbff;stroke:#ffffff;"/>
    <path clip-path="url(#p48ac11eba4)" d="M 44.28 95.4 
L 55.44 95.4 
L 55.44 84.24 
L 44.28 84.24 
L 44.28 95.4 
" style="fill:#79b5d9;stroke:#ffffff;"/>
    <path clip-path="url(#p48ac11eba4)" d="M 55.44 95.4 
L 66.6 95.4 
L 66.6 84.24 
L 55.44 84.24 
L 55.44 95.4 
" style="fill:#64a9d3;stroke:#ffffff;"/>
    <path clip-path="url(#p48ac11eba4)" d="M 66.6 95.4 
L 77.76 95.4 
L 77.76 84.24 
L 66.6 84.24 
L 66.6 95.4 
" style="fill:#b9d6ea;stroke:#ffffff;"/>
    <path clip-path="url(#p48ac11eba4)" d="M 10.8 84.24 
L 21.96 84.24 
L 21.96 73.08 
L 10.8 73.08 
L 10.8 84.24 
" style="fill:#6aaed6;stroke:#ffffff;"/>
    <path clip-path="url(#p48ac11eba4)" d="M 21.96 84.24 
L 33.12 84.24 
L 33.12 73.08 
L 21.96 73.08 
L 21.96 84.24 
" style="fill:#1d6cb1;stroke:#ffffff;"/>
    <path clip-path="url(#p48ac11eba4)" d="M 33.12 84.24 
L 44.28 84.24 
L 44.28 73.08 
L 33.12 73.08 
L 33.12 84.24 
" style="fill:#3888c1;stroke:#ffffff;"/>
    <path clip-path="url(#p48ac11eba4)" d="M 44.28 84.24 
L 55.44 84.24 
L 55.44 73.08 
L 44.28 73.08 
L 44.28 84.24 
" style="fill:#6dafd7;stroke:#ffffff;"/>
    <path clip-path="url(#p48ac11eba4)" d="M 55.44 84.24 
L 66.6 84.24 
L 66.6 73.08 
L 55.44 73.08 
L 55.44 84.24 
" style="fill:#a8cee4;stroke:#ffffff;"/>
    <path clip-path="url(#p48ac11eba4)" d="M 66.6 84.24 
L 77.76 84.24 
L 77.76 73.08 
L 66.6 73.08 
L 66.6 84.24 
" style="fill:#1e6db2;stroke:#ffffff;"/>
    <path clip-path="url(#p48ac11eba4)" d="M 10.8 73.08 
L 21.96 73.08 
L 21.96 61.92 
L 10.8 61.92 
L 10.8 73.08 
" style="fill:#95c5df;stroke:#ffffff;"/>
    <path clip-path="url(#p48ac11eba4)" d="M 21.96 73.08 
L 33.12 73.08 
L 33.12 61.92 
L 21.96 61.92 
L 21.96 73.08 
" style="fill:#afd1e7;stroke:#ffffff;"/>
    <path clip-path="url(#p48ac11eba4)" d="M 33.12 73.08 
L 44.28 73.08 
L 44.28 61.92 
L 33.12 61.92 
L 33.12 73.08 
" style="fill:#8fc2de;stroke:#ffffff;"/>
    <path clip-path="url(#p48ac11eba4)" d="M 44.28 73.08 
L 55.44 73.08 
L 55.44 61.92 
L 44.28 61.92 
L 44.28 73.08 
" style="fill:#b9d6ea;stroke:#ffffff;"/>
    <path clip-path="url(#p48ac11eba4)" d="M 55.44 73.08 
L 66.6 73.08 
L 66.6 61.92 
L 55.44 61.92 
L 55.44 73.08 
" style="fill:#dbe9f6;stroke:#ffffff;"/>
    <path clip-path="url(#p48ac11eba4)" d="M 66.6 73.08 
L 77.76 73.08 
L 77.76 61.92 
L 66.6 61.92 
L 66.6 73.08 
" style="fill:#08306b;stroke:#ffffff;"/>
    <path clip-path="url(#p48ac11eba4)" d="M 10.8 61.92 
L 21.96 61.92 
L 21.96 50.76 
L 10.8 50.76 
L 10.8 61.92 
" style="fill:#083e81;stroke:#ffffff;"/>
    <path clip-path="url(#p48ac11eba4)" d="M 21.96 61.92 
L 33.12 61.92 
L 33.12 50.76 
L 21.96 50.76 
L 21.96 61.92 
" style="fill:#92c4de;stroke:#ffffff;"/>
    <path clip-path="url(#p48ac11eba4)" d="M 33.12 61.92 
L 44.28 61.92 
L 44.28 50.76 
L 33.12 50.76 
L 33.12 61.92 
" style="fill:#4997c9;stroke:#ffffff;"/>
    <path clip-path="url(#p48ac11eba4)" d="M 44.28 61.92 
L 55.44 61.92 
L 55.44 50.76 
L 44.28 50.76 
L 44.28 61.92 
" style="fill:#4292c6;stroke:#ffffff;"/>
    <path clip-path="url(#p48ac11eba4)" d="M 55.44 61.92 
L 66.6 61.92 
L 66.6 50.76 
L 55.44 50.76 
L 55.44 61.92 
" style="fill:#6aaed6;stroke:#ffffff;"/>
    <path clip-path="url(#p48ac11eba4)" d="M 66.6 61.92 
L 77.76 61.92 
L 77.76 50.76 
L 66.6 50.76 
L 66.6 61.92 
" style="fill:#cbdef1;stroke:#ffffff;"/>
    <path clip-path="url(#p48ac11eba4)" d="M 10.8 50.76 
L 21.96 50.76 
L 21.96 39.6 
L 10.8 39.6 
L 10.8 50.76 
" style="fill:#2e7ebc;stroke:#ffffff;"/>
    <path clip-path="url(#p48ac11eba4)" d="M 21.96 50.76 
L 33.12 50.76 
L 33.12 39.6 
L 21.96 39.6 
L 21.96 50.76 
" style="fill:#2b7bba;stroke:#ffffff;"/>
    <path clip-path="url(#p48ac11eba4)" d="M 33.12 50.76 
L 44.28 50.76 
L 44.28 39.6 
L 33.12 39.6 
L 33.12 50.76 
" style="fill:#aed1e7;stroke:#ffffff;"/>
    <path clip-path="url(#p48ac11eba4)" d="M 44.28 50.76 
L 55.44 50.76 
L 55.44 39.6 
L 44.28 39.6 
L 44.28 50.76 
" style="fill:#81badb;stroke:#ffffff;"/>
    <path clip-path="url(#p48ac11eba4)" d="M 55.44 50.76 
L 66.6 50.76 
L 66.6 39.6 
L 55.44 39.6 
L 55.44 50.76 
" style="fill:#94c4df;stroke:#ffffff;"/>
    <path clip-path="url(#p48ac11eba4)" d="M 66.6 50.76 
L 77.76 50.76 
L 77.76 39.6 
L 66.6 39.6 
L 66.6 50.76 
" style="fill:#5aa2cf;stroke:#ffffff;"/>
    <path clip-path="url(#p48ac11eba4)" d="M 10.8 39.6 
L 21.96 39.6 
L 21.96 28.44 
L 10.8 28.44 
L 10.8 39.6 
" style="fill:#d1e2f3;stroke:#ffffff;"/>
    <path clip-path="url(#p48ac11eba4)" d="M 21.96 39.6 
L 33.12 39.6 
L 33.12 28.44 
L 21.96 28.44 
L 21.96 39.6 
" style="fill:#bad6eb;stroke:#ffffff;"/>
    <path clip-path="url(#p48ac11eba4)" d="M 33.12 39.6 
L 44.28 39.6 
L 44.28 28.44 
L 33.12 28.44 
L 33.12 39.6 
" style="fill:#1d6cb1;stroke:#ffffff;"/>
    <path clip-path="url(#p48ac11eba4)" d="M 44.28 39.6 
L 55.44 39.6 
L 55.44 28.44 
L 44.28 28.44 
L 44.28 39.6 
" style="fill:#81badb;stroke:#ffffff;"/>
    <path clip-path="url(#p48ac11eba4)" d="M 55.44 39.6 
L 66.6 39.6 
L 66.6 28.44 
L 55.44 28.44 
L 55.44 39.6 
" style="fill:#4f9bcb;stroke:#ffffff;"/>
    <path clip-path="url(#p48ac11eba4)" d="M 66.6 39.6 
L 77.76 39.6 
L 77.76 28.44 
L 66.6 28.44 
L 66.6 39.6 
" style="fill:#7ab6d9;stroke:#ffffff;"/>
    <path clip-path="url(#p48ac11eba4)" d="M 10.8 28.44 
L 21.96 28.44 
L 21.96 17.28 
L 10.8 17.28 
L 10.8 28.44 
" style="fill:#dfecf7;stroke:#ffffff;"/>
    <path clip-path="url(#p48ac11eba4)" d="M 21.96 28.44 
L 33.12 28.44 
L 33.12 17.28 
L 21.96 17.28 
L 21.96 28.44 
" style="fill:#cddff1;stroke:#ffffff;"/>
    <path clip-path="url(#p48ac11eba4)" d="M 33.12 28.44 
L 44.28 28.44 
L 44.28 17.28 
L 33.12 17.28 
L 33.12 28.44 
" style="fill:#3b8bc2;stroke:#ffffff;"/>
    <path clip-path="url(#p48ac11eba4)" d="M 44.28 28.44 
L 55.44 28.44 
L 55.44 17.28 
L 44.28 17.28 
L 44.28 28.44 
" style="fill:#539ecd;stroke:#ffffff;"/>
    <path clip-path="url(#p48ac11eba4)" d="M 55.44 28.44 
L 66.6 28.44 
L 66.6 17.28 
L 55.44 17.28 
L 55.44 28.44 
" style="fill:#1967ad;stroke:#ffffff;"/>
    <path clip-path="url(#p48ac11eba4)" d="M 66.6 28.44 
L 77.76 28.44 
L 77.76 17.28 
L 66.6 17.28 
L 66.6 28.44 
" style="fill:#a6cee4;stroke:#ffffff;"/>
   </g>
  </g>
 </g>
 <defs>
  <clipPath id="p48ac11eba4">
   <rect height="133.92" width="66.96" x="10.8" y="17.28"/>
  </clipPath>
 </defs>
</svg>
