<?xml version="1.0" encoding="utf-8" standalone="no"?>
<!DOCTYPE svg PUBLIC "-//W3C//DTD SVG 1.1//EN"
  "http://www.w3.org/Graphics/SVG/1.1/DTD/svg11.dtd">
<!-- Created with matplotlib (http://matplotlib.org/) -->
<svg height="288pt" version="1.1" viewBox="0 0 288 288" width="288pt" xmlns="http://www.w3.org/2000/svg" xmlns:xlink="http://www.w3.org/1999/xlink">
 <defs>
  <style type="text/css">
*{stroke-linecap:butt;stroke-linejoin:round;stroke-miterlimit:100000;}
  </style>
 </defs>
 <g id="figure_1">
  <g id="patch_1">
   <path d="M 0 288 
L 288 288 
L 288 0 
L 0 0 
z
" style="fill:#ffffff;"/>
  </g>
  <g id="axes_1">
   <g id="QuadMesh_1">
    <path clip-path="url(#p5d0914617a)" d="M 36 151.56 
L 47.16 151.56 
L 47.16 140.4 
L 36 140.4 
L 36 151.56 
" style="fill:#c6c6c6;stroke:#ffffff;"/>
    <path clip-path="url(#p5d0914617a)" d="M 47.16 151.56 
L 58.32 151.56 
L 58.32 140.4 
L 47.16 140.4 
L 47.16 151.56 
" style="fill:#959595;stroke:#ffffff;"/>
    <path clip-path="url(#p5d0914617a)" d="M 58.32 151.56 
L 69.48 151.56 
L 69.48 140.4 
L 58.32 140.4 
L 58.32 151.56 
" style="fill:#a2a2a2;stroke:#ffffff;"/>
    <path clip-path="url(#p5d0914617a)" d="M 69.48 151.56 
L 80.64 151.56 
L 80.64 140.4 
L 69.48 140.4 
L 69.48 151.56 
" style="fill:#838383;stroke:#ffffff;"/>
    <path clip-path="url(#p5d0914617a)" d="M 80.64 151.56 
L 91.8 151.56 
L 91.8 140.4 
L 80.64 140.4 
L 80.64 151.56 
" style="fill:#686868;stroke:#ffffff;"/>
    <path clip-path="url(#p5d0914617a)" d="M 91.8 151.56 
L 102.96 151.56 
L 102.96 140.4 
L 91.8 140.4 
L 91.8 151.56 
" style="fill:#4a4a4a;stroke:#ffffff;"/>
    <path clip-path="url(#p5d0914617a)" d="M 102.96 151.56 
L 114.12 151.56 
L 114.12 140.4 
L 102.96 140.4 
L 102.96 151.56 
" style="fill:#737373;stroke:#ffffff;"/>
    <path clip-path="url(#p5d0914617a)" d="M 114.12 151.56 
L 125.28 151.56 
L 125.28 140.4 
L 114.12 140.4 
L 114.12 151.56 
" style="fill:#959595;stroke:#ffffff;"/>
    <path clip-path="url(#p5d0914617a)" d="M 125.28 151.56 
L 136.44 151.56 
L 136.44 140.4 
L 125.28 140.4 
L 125.28 151.56 
" style="fill:#818181;stroke:#ffffff;"/>
    <path clip-path="url(#p5d0914617a)" d="M 136.44 151.56 
L 147.6 151.56 
L 147.6 140.4 
L 136.44 140.4 
L 136.44 151.56 
" style="fill:#c5c5c5;stroke:#ffffff;"/>
    <path clip-path="url(#p5d0914617a)" d="M 147.6 151.56 
L 158.76 151.56 
L 158.76 140.4 
L 147.6 140.4 
L 147.6 151.56 
" style="fill:#9d9d9d;stroke:#ffffff;"/>
    <path clip-path="url(#p5d0914617a)" d="M 158.76 151.56 
L 169.92 151.56 
L 169.92 140.4 
L 158.76 140.4 
L 158.76 151.56 
" style="fill:#959595;stroke:#ffffff;"/>
    <path clip-path="url(#p5d0914617a)" d="M 169.92 151.56 
L 181.08 151.56 
L 181.08 140.4 
L 169.92 140.4 
L 169.92 151.56 
" style="fill:none;stroke:#ffffff;"/>
    <path clip-path="url(#p5d0914617a)" d="M 181.08 151.56 
L 192.24 151.56 
L 192.24 140.4 
L 181.08 140.4 
L 181.08 151.56 
" style="fill:#7a7a7a;stroke:#ffffff;"/>
    <path clip-path="url(#p5d0914617a)" d="M 192.24 151.56 
L 203.4 151.56 
L 203.4 140.4 
L 192.24 140.4 
L 192.24 151.56 
" style="fill:#959595;stroke:#ffffff;"/>
    <path clip-path="url(#p5d0914617a)" d="M 203.4 151.56 
L 214.56 151.56 
L 214.56 140.4 
L 203.4 140.4 
L 203.4 151.56 
" style="fill:#555555;stroke:#ffffff;"/>
    <path clip-path="url(#p5d0914617a)" d="M 214.56 151.56 
L 225.72 151.56 
L 225.72 140.4 
L 214.56 140.4 
L 214.56 151.56 
" style="fill:#cecece;stroke:#ffffff;"/>
    <path clip-path="url(#p5d0914617a)" d="M 225.72 151.56 
L 236.88 151.56 
L 236.88 140.4 
L 225.72 140.4 
L 225.72 151.56 
" style="fill:#636363;stroke:#ffffff;"/>
    <path clip-path="url(#p5d0914617a)" d="M 236.88 151.56 
L 248.04 151.56 
L 248.04 140.4 
L 236.88 140.4 
L 236.88 151.56 
" style="fill:#7d7d7d;stroke:#ffffff;"/>
    <path clip-path="url(#p5d0914617a)" d="M 248.04 151.56 
L 259.2 151.56 
L 259.2 140.4 
L 248.04 140.4 
L 248.04 151.56 
" style="fill:#8e8e8e;stroke:#ffffff;"/>
    <path clip-path="url(#p5d0914617a)" d="M 36 140.4 
L 47.16 140.4 
L 47.16 129.24 
L 36 129.24 
L 36 140.4 
" style="fill:#626262;stroke:#ffffff;"/>
    <path clip-path="url(#p5d0914617a)" d="M 47.16 140.4 
L 58.32 140.4 
L 58.32 129.24 
L 47.16 129.24 
L 47.16 140.4 
" style="fill:#959595;stroke:#ffffff;"/>
    <path clip-path="url(#p5d0914617a)" d="M 58.32 140.4 
L 69.48 140.4 
L 69.48 129.24 
L 58.32 129.24 
L 58.32 140.4 
" style="fill:#bfbfbf;stroke:#ffffff;"/>
    <path clip-path="url(#p5d0914617a)" d="M 69.48 140.4 
L 80.64 140.4 
L 80.64 129.24 
L 69.48 129.24 
L 69.48 140.4 
" style="fill:#838383;stroke:#ffffff;"/>
    <path clip-path="url(#p5d0914617a)" d="M 80.64 140.4 
L 91.8 140.4 
L 91.8 129.24 
L 80.64 129.24 
L 80.64 140.4 
" style="fill:#aaaaaa;stroke:#ffffff;"/>
    <path clip-path="url(#p5d0914617a)" d="M 91.8 140.4 
L 102.96 140.4 
L 102.96 129.24 
L 91.8 129.24 
L 91.8 140.4 
" style="stroke:#ffffff;"/>
    <path clip-path="url(#p5d0914617a)" d="M 102.96 140.4 
L 114.12 140.4 
L 114.12 129.24 
L 102.96 129.24 
L 102.96 140.4 
" style="fill:#404040;stroke:#ffffff;"/>
    <path clip-path="url(#p5d0914617a)" d="M 114.12 140.4 
L 125.28 140.4 
L 125.28 129.24 
L 114.12 129.24 
L 114.12 140.4 
" style="fill:#959595;stroke:#ffffff;"/>
    <path clip-path="url(#p5d0914617a)" d="M 125.28 140.4 
L 136.44 140.4 
L 136.44 129.24 
L 125.28 129.24 
L 125.28 140.4 
" style="fill:#a5a5a5;stroke:#ffffff;"/>
    <path clip-path="url(#p5d0914617a)" d="M 136.44 140.4 
L 147.6 140.4 
L 147.6 129.24 
L 136.44 129.24 
L 136.44 140.4 
" style="fill:#a7a7a7;stroke:#ffffff;"/>
    <path clip-path="url(#p5d0914617a)" d="M 147.6 140.4 
L 158.76 140.4 
L 158.76 129.24 
L 147.6 129.24 
L 147.6 140.4 
" style="fill:#aaaaaa;stroke:#ffffff;"/>
    <path clip-path="url(#p5d0914617a)" d="M 158.76 140.4 
L 169.92 140.4 
L 169.92 129.24 
L 158.76 129.24 
L 158.76 140.4 
" style="fill:#959595;stroke:#ffffff;"/>
    <path clip-path="url(#p5d0914617a)" d="M 169.92 140.4 
L 181.08 140.4 
L 181.08 129.24 
L 169.92 129.24 
L 169.92 140.4 
" style="fill:#b9b9b9;stroke:#ffffff;"/>
    <path clip-path="url(#p5d0914617a)" d="M 181.08 140.4 
L 192.24 140.4 
L 192.24 129.24 
L 181.08 129.24 
L 181.08 140.4 
" style="fill:#b5b5b5;stroke:#ffffff;"/>
    <path clip-path="url(#p5d0914617a)" d="M 192.24 140.4 
L 203.4 140.4 
L 203.4 129.24 
L 192.24 129.24 
L 192.24 140.4 
" style="fill:#959595;stroke:#ffffff;"/>
    <path clip-path="url(#p5d0914617a)" d="M 203.4 140.4 
L 214.56 140.4 
L 214.56 129.24 
L 203.4 129.24 
L 203.4 140.4 
" style="fill:#bbbbbb;stroke:#ffffff;"/>
    <path clip-path="url(#p5d0914617a)" d="M 214.56 140.4 
L 225.72 140.4 
L 225.72 129.24 
L 214.56 129.24 
L 214.56 140.4 
" style="fill:#b4b4b4;stroke:#ffffff;"/>
    <path clip-path="url(#p5d0914617a)" d="M 225.72 140.4 
L 236.88 140.4 
L 236.88 129.24 
L 225.72 129.24 
L 225.72 140.4 
" style="fill:#cfcfcf;stroke:#ffffff;"/>
    <path clip-path="url(#p5d0914617a)" d="M 236.88 140.4 
L 248.04 140.4 
L 248.04 129.24 
L 236.88 129.24 
L 236.88 140.4 
" style="fill:#0f0f0f;stroke:#ffffff;"/>
    <path clip-path="url(#p5d0914617a)" d="M 248.04 140.4 
L 259.2 140.4 
L 259.2 129.24 
L 248.04 129.24 
L 248.04 140.4 
" style="fill:#ebebeb;stroke:#ffffff;"/>
   </g>
  </g>
 </g>
 <defs>
  <clipPath id="p5d0914617a">
   <rect height="22.32" width="223.2" x="36.0" y="129.24"/>
  </clipPath>
 </defs>
</svg>
