<?xml version="1.0" encoding="utf-8" standalone="no"?>
<!DOCTYPE svg PUBLIC "-//W3C//DTD SVG 1.1//EN"
  "http://www.w3.org/Graphics/SVG/1.1/DTD/svg11.dtd">
<!-- Created with matplotlib (http://matplotlib.org/) -->
<svg height="288pt" version="1.1" viewBox="0 0 288 288" width="288pt" xmlns="http://www.w3.org/2000/svg" xmlns:xlink="http://www.w3.org/1999/xlink">
 <defs>
  <style type="text/css">
*{stroke-linecap:butt;stroke-linejoin:round;stroke-miterlimit:100000;}
  </style>
 </defs>
 <g id="figure_1">
  <g id="patch_1">
   <path d="M 0 288 
L 288 288 
L 288 0 
L 0 0 
z
" style="fill:#ffffff;"/>
  </g>
  <g id="axes_1">
   <g id="QuadMesh_1">
    <path clip-path="url(#p56ca731c78)" d="M 36 196.2 
L 47.16 196.2 
L 47.16 185.04 
L 36 185.04 
L 36 196.2 
" style="fill:#3d8dc4;stroke:#ffffff;"/>
    <path clip-path="url(#p56ca731c78)" d="M 47.16 196.2 
L 58.32 196.2 
L 58.32 185.04 
L 47.16 185.04 
L 47.16 196.2 
" style="fill:none;stroke:#ffffff;"/>
    <path clip-path="url(#p56ca731c78)" d="M 58.32 196.2 
L 69.48 196.2 
L 69.48 185.04 
L 58.32 185.04 
L 58.32 196.2 
" style="fill:#a0cbe2;stroke:#ffffff;"/>
    <path clip-path="url(#p56ca731c78)" d="M 69.48 196.2 
L 80.64 196.2 
L 80.64 185.04 
L 69.48 185.04 
L 69.48 196.2 
" style="fill:#97c6df;stroke:#ffffff;"/>
    <path clip-path="url(#p56ca731c78)" d="M 80.64 196.2 
L 91.8 196.2 
L 91.8 185.04 
L 80.64 185.04 
L 80.64 196.2 
" style="fill:#5fa6d1;stroke:#ffffff;"/>
    <path clip-path="url(#p56ca731c78)" d="M 91.8 196.2 
L 102.96 196.2 
L 102.96 185.04 
L 91.8 185.04 
L 91.8 196.2 
" style="fill:none;stroke:#ffffff;"/>
    <path clip-path="url(#p56ca731c78)" d="M 102.96 196.2 
L 114.12 196.2 
L 114.12 185.04 
L 102.96 185.04 
L 102.96 196.2 
" style="fill:#9fcae1;stroke:#ffffff;"/>
    <path clip-path="url(#p56ca731c78)" d="M 114.12 196.2 
L 125.28 196.2 
L 125.28 185.04 
L 114.12 185.04 
L 114.12 196.2 
" style="fill:#6aaed6;stroke:#ffffff;"/>
    <path clip-path="url(#p56ca731c78)" d="M 125.28 196.2 
L 136.44 196.2 
L 136.44 185.04 
L 125.28 185.04 
L 125.28 196.2 
" style="fill:#58a1cf;stroke:#ffffff;"/>
    <path clip-path="url(#p56ca731c78)" d="M 136.44 196.2 
L 147.6 196.2 
L 147.6 185.04 
L 136.44 185.04 
L 136.44 196.2 
" style="fill:#82bbdb;stroke:#ffffff;"/>
    <path clip-path="url(#p56ca731c78)" d="M 147.6 196.2 
L 158.76 196.2 
L 158.76 185.04 
L 147.6 185.04 
L 147.6 196.2 
" style="fill:#3989c1;stroke:#ffffff;"/>
    <path clip-path="url(#p56ca731c78)" d="M 158.76 196.2 
L 169.92 196.2 
L 169.92 185.04 
L 158.76 185.04 
L 158.76 196.2 
" style="fill:none;stroke:#ffffff;"/>
    <path clip-path="url(#p56ca731c78)" d="M 169.92 196.2 
L 181.08 196.2 
L 181.08 185.04 
L 169.92 185.04 
L 169.92 196.2 
" style="fill:#b5d4e9;stroke:#ffffff;"/>
    <path clip-path="url(#p56ca731c78)" d="M 181.08 196.2 
L 192.24 196.2 
L 192.24 185.04 
L 181.08 185.04 
L 181.08 196.2 
" style="fill:#4f9bcb;stroke:#ffffff;"/>
    <path clip-path="url(#p56ca731c78)" d="M 192.24 196.2 
L 203.4 196.2 
L 203.4 185.04 
L 192.24 185.04 
L 192.24 196.2 
" style="fill:#6aaed6;stroke:#ffffff;"/>
    <path clip-path="url(#p56ca731c78)" d="M 203.4 196.2 
L 214.56 196.2 
L 214.56 185.04 
L 203.4 185.04 
L 203.4 196.2 
" style="fill:#c1d9ed;stroke:#ffffff;"/>
    <path clip-path="url(#p56ca731c78)" d="M 214.56 196.2 
L 225.72 196.2 
L 225.72 185.04 
L 214.56 185.04 
L 214.56 196.2 
" style="fill:#7ab6d9;stroke:#ffffff;"/>
    <path clip-path="url(#p56ca731c78)" d="M 225.72 196.2 
L 236.88 196.2 
L 236.88 185.04 
L 225.72 185.04 
L 225.72 196.2 
" style="fill:#a6cee4;stroke:#ffffff;"/>
    <path clip-path="url(#p56ca731c78)" d="M 236.88 196.2 
L 248.04 196.2 
L 248.04 185.04 
L 236.88 185.04 
L 236.88 196.2 
" style="fill:#58a1cf;stroke:#ffffff;"/>
    <path clip-path="url(#p56ca731c78)" d="M 248.04 196.2 
L 259.2 196.2 
L 259.2 185.04 
L 248.04 185.04 
L 248.04 196.2 
" style="fill:#d7e6f5;stroke:#ffffff;"/>
    <path clip-path="url(#p56ca731c78)" d="M 36 185.04 
L 47.16 185.04 
L 47.16 173.88 
L 36 173.88 
L 36 185.04 
" style="fill:none;stroke:#ffffff;"/>
    <path clip-path="url(#p56ca731c78)" d="M 47.16 185.04 
L 58.32 185.04 
L 58.32 173.88 
L 47.16 173.88 
L 47.16 185.04 
" style="fill:#6aaed6;stroke:#ffffff;"/>
    <path clip-path="url(#p56ca731c78)" d="M 58.32 185.04 
L 69.48 185.04 
L 69.48 173.88 
L 58.32 173.88 
L 58.32 185.04 
" style="fill:#6fb0d7;stroke:#ffffff;"/>
    <path clip-path="url(#p56ca731c78)" d="M 69.48 185.04 
L 80.64 185.04 
L 80.64 173.88 
L 69.48 173.88 
L 69.48 185.04 
" style="fill:#7fb9da;stroke:#ffffff;"/>
    <path clip-path="url(#p56ca731c78)" d="M 80.64 185.04 
L 91.8 185.04 
L 91.8 173.88 
L 80.64 173.88 
L 80.64 185.04 
" style="fill:#79b5d9;stroke:#ffffff;"/>
    <path clip-path="url(#p56ca731c78)" d="M 91.8 185.04 
L 102.96 185.04 
L 102.96 173.88 
L 91.8 173.88 
L 91.8 185.04 
" style="fill:#4493c7;stroke:#ffffff;"/>
    <path clip-path="url(#p56ca731c78)" d="M 102.96 185.04 
L 114.12 185.04 
L 114.12 173.88 
L 102.96 173.88 
L 102.96 185.04 
" style="fill:#94c4df;stroke:#ffffff;"/>
    <path clip-path="url(#p56ca731c78)" d="M 114.12 185.04 
L 125.28 185.04 
L 125.28 173.88 
L 114.12 173.88 
L 114.12 185.04 
" style="fill:#6aaed6;stroke:#ffffff;"/>
    <path clip-path="url(#p56ca731c78)" d="M 125.28 185.04 
L 136.44 185.04 
L 136.44 173.88 
L 125.28 173.88 
L 125.28 185.04 
" style="fill:#5fa6d1;stroke:#ffffff;"/>
    <path clip-path="url(#p56ca731c78)" d="M 136.44 185.04 
L 147.6 185.04 
L 147.6 173.88 
L 136.44 173.88 
L 136.44 185.04 
" style="fill:#77b5d9;stroke:#ffffff;"/>
    <path clip-path="url(#p56ca731c78)" d="M 147.6 185.04 
L 158.76 185.04 
L 158.76 173.88 
L 147.6 173.88 
L 147.6 185.04 
" style="fill:#82bbdb;stroke:#ffffff;"/>
    <path clip-path="url(#p56ca731c78)" d="M 158.76 185.04 
L 169.92 185.04 
L 169.92 173.88 
L 158.76 173.88 
L 158.76 185.04 
" style="fill:#6aaed6;stroke:#ffffff;"/>
    <path clip-path="url(#p56ca731c78)" d="M 169.92 185.04 
L 181.08 185.04 
L 181.08 173.88 
L 169.92 173.88 
L 169.92 185.04 
" style="fill:#69add5;stroke:#ffffff;"/>
    <path clip-path="url(#p56ca731c78)" d="M 181.08 185.04 
L 192.24 185.04 
L 192.24 173.88 
L 181.08 173.88 
L 181.08 185.04 
" style="fill:#63a8d3;stroke:#ffffff;"/>
    <path clip-path="url(#p56ca731c78)" d="M 192.24 185.04 
L 203.4 185.04 
L 203.4 173.88 
L 192.24 173.88 
L 192.24 185.04 
" style="fill:#6aaed6;stroke:#ffffff;"/>
    <path clip-path="url(#p56ca731c78)" d="M 203.4 185.04 
L 214.56 185.04 
L 214.56 173.88 
L 203.4 173.88 
L 203.4 185.04 
" style="fill:#66abd4;stroke:#ffffff;"/>
    <path clip-path="url(#p56ca731c78)" d="M 214.56 185.04 
L 225.72 185.04 
L 225.72 173.88 
L 214.56 173.88 
L 214.56 185.04 
" style="fill:#5aa2cf;stroke:#ffffff;"/>
    <path clip-path="url(#p56ca731c78)" d="M 225.72 185.04 
L 236.88 185.04 
L 236.88 173.88 
L 225.72 173.88 
L 225.72 185.04 
" style="fill:#77b5d9;stroke:#ffffff;"/>
    <path clip-path="url(#p56ca731c78)" d="M 236.88 185.04 
L 248.04 185.04 
L 248.04 173.88 
L 236.88 173.88 
L 236.88 185.04 
" style="fill:#57a0ce;stroke:#ffffff;"/>
    <path clip-path="url(#p56ca731c78)" d="M 248.04 185.04 
L 259.2 185.04 
L 259.2 173.88 
L 248.04 173.88 
L 248.04 185.04 
" style="fill:#083e81;stroke:#ffffff;"/>
    <path clip-path="url(#p56ca731c78)" d="M 36 173.88 
L 47.16 173.88 
L 47.16 162.72 
L 36 162.72 
L 36 173.88 
" style="fill:#81badb;stroke:#ffffff;"/>
    <path clip-path="url(#p56ca731c78)" d="M 47.16 173.88 
L 58.32 173.88 
L 58.32 162.72 
L 47.16 162.72 
L 47.16 173.88 
" style="fill:#6aaed6;stroke:#ffffff;"/>
    <path clip-path="url(#p56ca731c78)" d="M 58.32 173.88 
L 69.48 173.88 
L 69.48 162.72 
L 58.32 162.72 
L 58.32 173.88 
" style="fill:#66abd4;stroke:#ffffff;"/>
    <path clip-path="url(#p56ca731c78)" d="M 69.48 173.88 
L 80.64 173.88 
L 80.64 162.72 
L 69.48 162.72 
L 69.48 173.88 
" style="fill:#a1cbe2;stroke:#ffffff;"/>
    <path clip-path="url(#p56ca731c78)" d="M 80.64 173.88 
L 91.8 173.88 
L 91.8 162.72 
L 80.64 162.72 
L 80.64 173.88 
" style="fill:#66abd4;stroke:#ffffff;"/>
    <path clip-path="url(#p56ca731c78)" d="M 91.8 173.88 
L 102.96 173.88 
L 102.96 162.72 
L 91.8 162.72 
L 91.8 173.88 
" style="fill:#cde0f1;stroke:#ffffff;"/>
    <path clip-path="url(#p56ca731c78)" d="M 102.96 173.88 
L 114.12 173.88 
L 114.12 162.72 
L 102.96 162.72 
L 102.96 173.88 
" style="fill:#3282be;stroke:#ffffff;"/>
    <path clip-path="url(#p56ca731c78)" d="M 114.12 173.88 
L 125.28 173.88 
L 125.28 162.72 
L 114.12 162.72 
L 114.12 173.88 
" style="fill:#6aaed6;stroke:#ffffff;"/>
    <path clip-path="url(#p56ca731c78)" d="M 125.28 173.88 
L 136.44 173.88 
L 136.44 162.72 
L 125.28 162.72 
L 125.28 173.88 
" style="fill:#529dcc;stroke:#ffffff;"/>
    <path clip-path="url(#p56ca731c78)" d="M 136.44 173.88 
L 147.6 173.88 
L 147.6 162.72 
L 136.44 162.72 
L 136.44 173.88 
" style="fill:#4f9bcb;stroke:#ffffff;"/>
    <path clip-path="url(#p56ca731c78)" d="M 147.6 173.88 
L 158.76 173.88 
L 158.76 162.72 
L 147.6 162.72 
L 147.6 173.88 
" style="fill:#519ccc;stroke:#ffffff;"/>
    <path clip-path="url(#p56ca731c78)" d="M 158.76 173.88 
L 169.92 173.88 
L 169.92 162.72 
L 158.76 162.72 
L 158.76 173.88 
" style="fill:#6aaed6;stroke:#ffffff;"/>
    <path clip-path="url(#p56ca731c78)" d="M 169.92 173.88 
L 181.08 173.88 
L 181.08 162.72 
L 169.92 162.72 
L 169.92 173.88 
" style="fill:#64a9d3;stroke:#ffffff;"/>
    <path clip-path="url(#p56ca731c78)" d="M 181.08 173.88 
L 192.24 173.88 
L 192.24 162.72 
L 181.08 162.72 
L 181.08 173.88 
" style="fill:#99c7e0;stroke:#ffffff;"/>
    <path clip-path="url(#p56ca731c78)" d="M 192.24 173.88 
L 203.4 173.88 
L 203.4 162.72 
L 192.24 162.72 
L 192.24 173.88 
" style="fill:#6aaed6;stroke:#ffffff;"/>
    <path clip-path="url(#p56ca731c78)" d="M 203.4 173.88 
L 214.56 173.88 
L 214.56 162.72 
L 203.4 162.72 
L 203.4 173.88 
" style="fill:#95c5df;stroke:#ffffff;"/>
    <path clip-path="url(#p56ca731c78)" d="M 214.56 173.88 
L 225.72 173.88 
L 225.72 162.72 
L 214.56 162.72 
L 214.56 173.88 
" style="fill:#d7e6f5;stroke:#ffffff;"/>
    <path clip-path="url(#p56ca731c78)" d="M 225.72 173.88 
L 236.88 173.88 
L 236.88 162.72 
L 225.72 162.72 
L 225.72 173.88 
" style="fill:#084a91;stroke:#ffffff;"/>
    <path clip-path="url(#p56ca731c78)" d="M 236.88 173.88 
L 248.04 173.88 
L 248.04 162.72 
L 236.88 162.72 
L 236.88 173.88 
" style="fill:#d0e1f2;stroke:#ffffff;"/>
    <path clip-path="url(#p56ca731c78)" d="M 248.04 173.88 
L 259.2 173.88 
L 259.2 162.72 
L 248.04 162.72 
L 248.04 173.88 
" style="fill:#72b2d8;stroke:#ffffff;"/>
    <path clip-path="url(#p56ca731c78)" d="M 36 162.72 
L 47.16 162.72 
L 47.16 151.56 
L 36 151.56 
L 36 162.72 
" style="fill:#b3d3e8;stroke:#ffffff;"/>
    <path clip-path="url(#p56ca731c78)" d="M 47.16 162.72 
L 58.32 162.72 
L 58.32 151.56 
L 47.16 151.56 
L 47.16 162.72 
" style="fill:#6aaed6;stroke:#ffffff;"/>
    <path clip-path="url(#p56ca731c78)" d="M 58.32 162.72 
L 69.48 162.72 
L 69.48 151.56 
L 58.32 151.56 
L 58.32 162.72 
" style="fill:#72b2d8;stroke:#ffffff;"/>
    <path clip-path="url(#p56ca731c78)" d="M 69.48 162.72 
L 80.64 162.72 
L 80.64 151.56 
L 69.48 151.56 
L 69.48 162.72 
" style="fill:#2474b7;stroke:#ffffff;"/>
    <path clip-path="url(#p56ca731c78)" d="M 80.64 162.72 
L 91.8 162.72 
L 91.8 151.56 
L 80.64 151.56 
L 80.64 162.72 
" style="fill:#3383be;stroke:#ffffff;"/>
    <path clip-path="url(#p56ca731c78)" d="M 91.8 162.72 
L 102.96 162.72 
L 102.96 151.56 
L 91.8 151.56 
L 91.8 162.72 
" style="fill:#c1d9ed;stroke:#ffffff;"/>
    <path clip-path="url(#p56ca731c78)" d="M 102.96 162.72 
L 114.12 162.72 
L 114.12 151.56 
L 102.96 151.56 
L 102.96 162.72 
" style="fill:#4896c8;stroke:#ffffff;"/>
    <path clip-path="url(#p56ca731c78)" d="M 114.12 162.72 
L 125.28 162.72 
L 125.28 151.56 
L 114.12 151.56 
L 114.12 162.72 
" style="fill:#6aaed6;stroke:#ffffff;"/>
    <path clip-path="url(#p56ca731c78)" d="M 125.28 162.72 
L 136.44 162.72 
L 136.44 151.56 
L 125.28 151.56 
L 125.28 162.72 
" style="fill:#89bedc;stroke:#ffffff;"/>
    <path clip-path="url(#p56ca731c78)" d="M 136.44 162.72 
L 147.6 162.72 
L 147.6 151.56 
L 136.44 151.56 
L 136.44 162.72 
" style="fill:#6fb0d7;stroke:#ffffff;"/>
    <path clip-path="url(#p56ca731c78)" d="M 147.6 162.72 
L 158.76 162.72 
L 158.76 151.56 
L 147.6 151.56 
L 147.6 162.72 
" style="fill:#dfebf7;stroke:#ffffff;"/>
    <path clip-path="url(#p56ca731c78)" d="M 158.76 162.72 
L 169.92 162.72 
L 169.92 151.56 
L 158.76 151.56 
L 158.76 162.72 
" style="fill:#6aaed6;stroke:#ffffff;"/>
    <path clip-path="url(#p56ca731c78)" d="M 169.92 162.72 
L 181.08 162.72 
L 181.08 151.56 
L 169.92 151.56 
L 169.92 162.72 
" style="fill:#7ab6d9;stroke:#ffffff;"/>
    <path clip-path="url(#p56ca731c78)" d="M 181.08 162.72 
L 192.24 162.72 
L 192.24 151.56 
L 181.08 151.56 
L 181.08 162.72 
" style="fill:#bfd8ed;stroke:#ffffff;"/>
    <path clip-path="url(#p56ca731c78)" d="M 192.24 162.72 
L 203.4 162.72 
L 203.4 151.56 
L 192.24 151.56 
L 192.24 162.72 
" style="fill:#6aaed6;stroke:#ffffff;"/>
    <path clip-path="url(#p56ca731c78)" d="M 203.4 162.72 
L 214.56 162.72 
L 214.56 151.56 
L 203.4 151.56 
L 203.4 162.72 
" style="fill:#58a1cf;stroke:#ffffff;"/>
    <path clip-path="url(#p56ca731c78)" d="M 214.56 162.72 
L 225.72 162.72 
L 225.72 151.56 
L 214.56 151.56 
L 214.56 162.72 
" style="fill:#8abfdd;stroke:#ffffff;"/>
    <path clip-path="url(#p56ca731c78)" d="M 225.72 162.72 
L 236.88 162.72 
L 236.88 151.56 
L 225.72 151.56 
L 225.72 162.72 
" style="fill:#56a0ce;stroke:#ffffff;"/>
    <path clip-path="url(#p56ca731c78)" d="M 236.88 162.72 
L 248.04 162.72 
L 248.04 151.56 
L 236.88 151.56 
L 236.88 162.72 
" style="fill:#4b98ca;stroke:#ffffff;"/>
    <path clip-path="url(#p56ca731c78)" d="M 248.04 162.72 
L 259.2 162.72 
L 259.2 151.56 
L 248.04 151.56 
L 248.04 162.72 
" style="fill:#b5d4e9;stroke:#ffffff;"/>
    <path clip-path="url(#p56ca731c78)" d="M 36 151.56 
L 47.16 151.56 
L 47.16 140.4 
L 36 140.4 
L 36 151.56 
" style="fill:#2a7ab9;stroke:#ffffff;"/>
    <path clip-path="url(#p56ca731c78)" d="M 47.16 151.56 
L 58.32 151.56 
L 58.32 140.4 
L 47.16 140.4 
L 47.16 151.56 
" style="fill:#6aaed6;stroke:#ffffff;"/>
    <path clip-path="url(#p56ca731c78)" d="M 58.32 151.56 
L 69.48 151.56 
L 69.48 140.4 
L 58.32 140.4 
L 58.32 151.56 
" style="fill:#81badb;stroke:#ffffff;"/>
    <path clip-path="url(#p56ca731c78)" d="M 69.48 151.56 
L 80.64 151.56 
L 80.64 140.4 
L 69.48 140.4 
L 69.48 151.56 
" style="fill:#519ccc;stroke:#ffffff;"/>
    <path clip-path="url(#p56ca731c78)" d="M 80.64 151.56 
L 91.8 151.56 
L 91.8 140.4 
L 80.64 140.4 
L 80.64 151.56 
" style="fill:none;stroke:#ffffff;"/>
    <path clip-path="url(#p56ca731c78)" d="M 91.8 151.56 
L 102.96 151.56 
L 102.96 140.4 
L 91.8 140.4 
L 91.8 151.56 
" style="fill:#3f8fc5;stroke:#ffffff;"/>
    <path clip-path="url(#p56ca731c78)" d="M 102.96 151.56 
L 114.12 151.56 
L 114.12 140.4 
L 102.96 140.4 
L 102.96 151.56 
" style="fill:#c2d9ee;stroke:#ffffff;"/>
    <path clip-path="url(#p56ca731c78)" d="M 114.12 151.56 
L 125.28 151.56 
L 125.28 140.4 
L 114.12 140.4 
L 114.12 151.56 
" style="fill:#6aaed6;stroke:#ffffff;"/>
    <path clip-path="url(#p56ca731c78)" d="M 125.28 151.56 
L 136.44 151.56 
L 136.44 140.4 
L 125.28 140.4 
L 125.28 151.56 
" style="fill:#63a8d3;stroke:#ffffff;"/>
    <path clip-path="url(#p56ca731c78)" d="M 136.44 151.56 
L 147.6 151.56 
L 147.6 140.4 
L 136.44 140.4 
L 136.44 151.56 
" style="fill:#58a1cf;stroke:#ffffff;"/>
    <path clip-path="url(#p56ca731c78)" d="M 147.6 151.56 
L 158.76 151.56 
L 158.76 140.4 
L 147.6 140.4 
L 147.6 151.56 
" style="fill:#3080bd;stroke:#ffffff;"/>
    <path clip-path="url(#p56ca731c78)" d="M 158.76 151.56 
L 169.92 151.56 
L 169.92 140.4 
L 158.76 140.4 
L 158.76 151.56 
" style="fill:#6aaed6;stroke:#ffffff;"/>
    <path clip-path="url(#p56ca731c78)" d="M 169.92 151.56 
L 181.08 151.56 
L 181.08 140.4 
L 169.92 140.4 
L 169.92 151.56 
" style="fill:#a3cce3;stroke:#ffffff;"/>
    <path clip-path="url(#p56ca731c78)" d="M 181.08 151.56 
L 192.24 151.56 
L 192.24 140.4 
L 181.08 140.4 
L 181.08 151.56 
" style="fill:#9cc9e1;stroke:#ffffff;"/>
    <path clip-path="url(#p56ca731c78)" d="M 192.24 151.56 
L 203.4 151.56 
L 203.4 140.4 
L 192.24 140.4 
L 192.24 151.56 
" style="fill:#6aaed6;stroke:#ffffff;"/>
    <path clip-path="url(#p56ca731c78)" d="M 203.4 151.56 
L 214.56 151.56 
L 214.56 140.4 
L 203.4 140.4 
L 203.4 151.56 
" style="fill:#08458a;stroke:#ffffff;"/>
    <path clip-path="url(#p56ca731c78)" d="M 214.56 151.56 
L 225.72 151.56 
L 225.72 140.4 
L 214.56 140.4 
L 214.56 151.56 
" style="fill:#63a8d3;stroke:#ffffff;"/>
    <path clip-path="url(#p56ca731c78)" d="M 225.72 151.56 
L 236.88 151.56 
L 236.88 140.4 
L 225.72 140.4 
L 225.72 151.56 
" style="fill:#4292c6;stroke:#ffffff;"/>
    <path clip-path="url(#p56ca731c78)" d="M 236.88 151.56 
L 248.04 151.56 
L 248.04 140.4 
L 236.88 140.4 
L 236.88 151.56 
" style="fill:#3383be;stroke:#ffffff;"/>
    <path clip-path="url(#p56ca731c78)" d="M 248.04 151.56 
L 259.2 151.56 
L 259.2 140.4 
L 248.04 140.4 
L 248.04 151.56 
" style="fill:#8abfdd;stroke:#ffffff;"/>
    <path clip-path="url(#p56ca731c78)" d="M 36 140.4 
L 47.16 140.4 
L 47.16 129.24 
L 36 129.24 
L 36 140.4 
" style="fill:#b8d5ea;stroke:#ffffff;"/>
    <path clip-path="url(#p56ca731c78)" d="M 47.16 140.4 
L 58.32 140.4 
L 58.32 129.24 
L 47.16 129.24 
L 47.16 140.4 
" style="fill:#6aaed6;stroke:#ffffff;"/>
    <path clip-path="url(#p56ca731c78)" d="M 58.32 140.4 
L 69.48 140.4 
L 69.48 129.24 
L 58.32 129.24 
L 58.32 140.4 
" style="fill:#82bbdb;stroke:#ffffff;"/>
    <path clip-path="url(#p56ca731c78)" d="M 69.48 140.4 
L 80.64 140.4 
L 80.64 129.24 
L 69.48 129.24 
L 69.48 140.4 
" style="fill:#b5d4e9;stroke:#ffffff;"/>
    <path clip-path="url(#p56ca731c78)" d="M 80.64 140.4 
L 91.8 140.4 
L 91.8 129.24 
L 80.64 129.24 
L 80.64 140.4 
" style="fill:#63a8d3;stroke:#ffffff;"/>
    <path clip-path="url(#p56ca731c78)" d="M 91.8 140.4 
L 102.96 140.4 
L 102.96 129.24 
L 91.8 129.24 
L 91.8 140.4 
" style="fill:#3888c1;stroke:#ffffff;"/>
    <path clip-path="url(#p56ca731c78)" d="M 102.96 140.4 
L 114.12 140.4 
L 114.12 129.24 
L 102.96 129.24 
L 102.96 140.4 
" style="fill:#5da5d1;stroke:#ffffff;"/>
    <path clip-path="url(#p56ca731c78)" d="M 114.12 140.4 
L 125.28 140.4 
L 125.28 129.24 
L 114.12 129.24 
L 114.12 140.4 
" style="fill:#6aaed6;stroke:#ffffff;"/>
    <path clip-path="url(#p56ca731c78)" d="M 125.28 140.4 
L 136.44 140.4 
L 136.44 129.24 
L 125.28 129.24 
L 125.28 140.4 
" style="fill:#1a68ae;stroke:#ffffff;"/>
    <path clip-path="url(#p56ca731c78)" d="M 136.44 140.4 
L 147.6 140.4 
L 147.6 129.24 
L 136.44 129.24 
L 136.44 140.4 
" style="fill:#529dcc;stroke:#ffffff;"/>
    <path clip-path="url(#p56ca731c78)" d="M 147.6 140.4 
L 158.76 140.4 
L 158.76 129.24 
L 147.6 129.24 
L 147.6 140.4 
" style="fill:none;stroke:#ffffff;"/>
    <path clip-path="url(#p56ca731c78)" d="M 158.76 140.4 
L 169.92 140.4 
L 169.92 129.24 
L 158.76 129.24 
L 158.76 140.4 
" style="fill:#6aaed6;stroke:#ffffff;"/>
    <path clip-path="url(#p56ca731c78)" d="M 169.92 140.4 
L 181.08 140.4 
L 181.08 129.24 
L 169.92 129.24 
L 169.92 140.4 
" style="fill:#5ca4d0;stroke:#ffffff;"/>
    <path clip-path="url(#p56ca731c78)" d="M 181.08 140.4 
L 192.24 140.4 
L 192.24 129.24 
L 181.08 129.24 
L 181.08 140.4 
" style="fill:#4090c5;stroke:#ffffff;"/>
    <path clip-path="url(#p56ca731c78)" d="M 192.24 140.4 
L 203.4 140.4 
L 203.4 129.24 
L 192.24 129.24 
L 192.24 140.4 
" style="fill:#6aaed6;stroke:#ffffff;"/>
    <path clip-path="url(#p56ca731c78)" d="M 203.4 140.4 
L 214.56 140.4 
L 214.56 129.24 
L 203.4 129.24 
L 203.4 140.4 
" style="fill:#b8d5ea;stroke:#ffffff;"/>
    <path clip-path="url(#p56ca731c78)" d="M 214.56 140.4 
L 225.72 140.4 
L 225.72 129.24 
L 214.56 129.24 
L 214.56 140.4 
" style="fill:#5aa2cf;stroke:#ffffff;"/>
    <path clip-path="url(#p56ca731c78)" d="M 225.72 140.4 
L 236.88 140.4 
L 236.88 129.24 
L 225.72 129.24 
L 225.72 140.4 
" style="fill:#87bddc;stroke:#ffffff;"/>
    <path clip-path="url(#p56ca731c78)" d="M 236.88 140.4 
L 248.04 140.4 
L 248.04 129.24 
L 236.88 129.24 
L 236.88 140.4 
" style="fill:#95c5df;stroke:#ffffff;"/>
    <path clip-path="url(#p56ca731c78)" d="M 248.04 140.4 
L 259.2 140.4 
L 259.2 129.24 
L 248.04 129.24 
L 248.04 140.4 
" style="fill:#1d6cb1;stroke:#ffffff;"/>
    <path clip-path="url(#p56ca731c78)" d="M 36 129.24 
L 47.16 129.24 
L 47.16 118.08 
L 36 118.08 
L 36 129.24 
" style="fill:#c1d9ed;stroke:#ffffff;"/>
    <path clip-path="url(#p56ca731c78)" d="M 47.16 129.24 
L 58.32 129.24 
L 58.32 118.08 
L 47.16 118.08 
L 47.16 129.24 
" style="fill:#6aaed6;stroke:#ffffff;"/>
    <path clip-path="url(#p56ca731c78)" d="M 58.32 129.24 
L 69.48 129.24 
L 69.48 118.08 
L 58.32 118.08 
L 58.32 129.24 
" style="fill:none;stroke:#ffffff;"/>
    <path clip-path="url(#p56ca731c78)" d="M 69.48 129.24 
L 80.64 129.24 
L 80.64 118.08 
L 69.48 118.08 
L 69.48 129.24 
" style="fill:none;stroke:#ffffff;"/>
    <path clip-path="url(#p56ca731c78)" d="M 80.64 129.24 
L 91.8 129.24 
L 91.8 118.08 
L 80.64 118.08 
L 80.64 129.24 
" style="fill:#08306b;stroke:#ffffff;"/>
    <path clip-path="url(#p56ca731c78)" d="M 91.8 129.24 
L 102.96 129.24 
L 102.96 118.08 
L 91.8 118.08 
L 91.8 129.24 
" style="fill:#2c7cba;stroke:#ffffff;"/>
    <path clip-path="url(#p56ca731c78)" d="M 102.96 129.24 
L 114.12 129.24 
L 114.12 118.08 
L 102.96 118.08 
L 102.96 129.24 
" style="fill:#1966ad;stroke:#ffffff;"/>
    <path clip-path="url(#p56ca731c78)" d="M 114.12 129.24 
L 125.28 129.24 
L 125.28 118.08 
L 114.12 118.08 
L 114.12 129.24 
" style="fill:#6aaed6;stroke:#ffffff;"/>
    <path clip-path="url(#p56ca731c78)" d="M 125.28 129.24 
L 136.44 129.24 
L 136.44 118.08 
L 125.28 118.08 
L 125.28 129.24 
" style="fill:#5ba3d0;stroke:#ffffff;"/>
    <path clip-path="url(#p56ca731c78)" d="M 136.44 129.24 
L 147.6 129.24 
L 147.6 118.08 
L 136.44 118.08 
L 136.44 129.24 
" style="fill:none;stroke:#ffffff;"/>
    <path clip-path="url(#p56ca731c78)" d="M 147.6 129.24 
L 158.76 129.24 
L 158.76 118.08 
L 147.6 118.08 
L 147.6 129.24 
" style="fill:#4292c6;stroke:#ffffff;"/>
    <path clip-path="url(#p56ca731c78)" d="M 158.76 129.24 
L 169.92 129.24 
L 169.92 118.08 
L 158.76 118.08 
L 158.76 129.24 
" style="fill:none;stroke:#ffffff;"/>
    <path clip-path="url(#p56ca731c78)" d="M 169.92 129.24 
L 181.08 129.24 
L 181.08 118.08 
L 169.92 118.08 
L 169.92 129.24 
" style="fill:#77b5d9;stroke:#ffffff;"/>
    <path clip-path="url(#p56ca731c78)" d="M 181.08 129.24 
L 192.24 129.24 
L 192.24 118.08 
L 181.08 118.08 
L 181.08 129.24 
" style="fill:#d9e8f5;stroke:#ffffff;"/>
    <path clip-path="url(#p56ca731c78)" d="M 192.24 129.24 
L 203.4 129.24 
L 203.4 118.08 
L 192.24 118.08 
L 192.24 129.24 
" style="fill:#6aaed6;stroke:#ffffff;"/>
    <path clip-path="url(#p56ca731c78)" d="M 203.4 129.24 
L 214.56 129.24 
L 214.56 118.08 
L 203.4 118.08 
L 203.4 129.24 
" style="fill:#4a98c9;stroke:#ffffff;"/>
    <path clip-path="url(#p56ca731c78)" d="M 214.56 129.24 
L 225.72 129.24 
L 225.72 118.08 
L 214.56 118.08 
L 214.56 129.24 
" style="fill:#3b8bc2;stroke:#ffffff;"/>
    <path clip-path="url(#p56ca731c78)" d="M 225.72 129.24 
L 236.88 129.24 
L 236.88 118.08 
L 225.72 118.08 
L 225.72 129.24 
" style="fill:#84bcdb;stroke:#ffffff;"/>
    <path clip-path="url(#p56ca731c78)" d="M 236.88 129.24 
L 248.04 129.24 
L 248.04 118.08 
L 236.88 118.08 
L 236.88 129.24 
" style="fill:#1562a9;stroke:#ffffff;"/>
    <path clip-path="url(#p56ca731c78)" d="M 248.04 129.24 
L 259.2 129.24 
L 259.2 118.08 
L 248.04 118.08 
L 248.04 129.24 
" style="fill:#95c5df;stroke:#ffffff;"/>
    <path clip-path="url(#p56ca731c78)" d="M 36 118.08 
L 47.16 118.08 
L 47.16 106.92 
L 36 106.92 
L 36 118.08 
" style="fill:#abd0e6;stroke:#ffffff;"/>
    <path clip-path="url(#p56ca731c78)" d="M 47.16 118.08 
L 58.32 118.08 
L 58.32 106.92 
L 47.16 106.92 
L 47.16 118.08 
" style="fill:#6aaed6;stroke:#ffffff;"/>
    <path clip-path="url(#p56ca731c78)" d="M 58.32 118.08 
L 69.48 118.08 
L 69.48 106.92 
L 58.32 106.92 
L 58.32 118.08 
" style="fill:#7ab6d9;stroke:#ffffff;"/>
    <path clip-path="url(#p56ca731c78)" d="M 69.48 118.08 
L 80.64 118.08 
L 80.64 106.92 
L 69.48 106.92 
L 69.48 118.08 
" style="fill:#549fcd;stroke:#ffffff;"/>
    <path clip-path="url(#p56ca731c78)" d="M 80.64 118.08 
L 91.8 118.08 
L 91.8 106.92 
L 80.64 106.92 
L 80.64 118.08 
" style="fill:#3787c0;stroke:#ffffff;"/>
    <path clip-path="url(#p56ca731c78)" d="M 91.8 118.08 
L 102.96 118.08 
L 102.96 106.92 
L 91.8 106.92 
L 91.8 118.08 
" style="fill:#1c6bb0;stroke:#ffffff;"/>
    <path clip-path="url(#p56ca731c78)" d="M 102.96 118.08 
L 114.12 118.08 
L 114.12 106.92 
L 102.96 106.92 
L 102.96 118.08 
" style="fill:#4292c6;stroke:#ffffff;"/>
    <path clip-path="url(#p56ca731c78)" d="M 114.12 118.08 
L 125.28 118.08 
L 125.28 106.92 
L 114.12 106.92 
L 114.12 118.08 
" style="fill:#6aaed6;stroke:#ffffff;"/>
    <path clip-path="url(#p56ca731c78)" d="M 125.28 118.08 
L 136.44 118.08 
L 136.44 106.92 
L 125.28 106.92 
L 125.28 118.08 
" style="fill:#529dcc;stroke:#ffffff;"/>
    <path clip-path="url(#p56ca731c78)" d="M 136.44 118.08 
L 147.6 118.08 
L 147.6 106.92 
L 136.44 106.92 
L 136.44 118.08 
" style="fill:#aacfe5;stroke:#ffffff;"/>
    <path clip-path="url(#p56ca731c78)" d="M 147.6 118.08 
L 158.76 118.08 
L 158.76 106.92 
L 147.6 106.92 
L 147.6 118.08 
" style="fill:#74b3d8;stroke:#ffffff;"/>
    <path clip-path="url(#p56ca731c78)" d="M 158.76 118.08 
L 169.92 118.08 
L 169.92 106.92 
L 158.76 106.92 
L 158.76 118.08 
" style="fill:#6aaed6;stroke:#ffffff;"/>
    <path clip-path="url(#p56ca731c78)" d="M 169.92 118.08 
L 181.08 118.08 
L 181.08 106.92 
L 169.92 106.92 
L 169.92 118.08 
" style="fill:none;stroke:#ffffff;"/>
    <path clip-path="url(#p56ca731c78)" d="M 181.08 118.08 
L 192.24 118.08 
L 192.24 106.92 
L 181.08 106.92 
L 181.08 118.08 
" style="fill:#4a98c9;stroke:#ffffff;"/>
    <path clip-path="url(#p56ca731c78)" d="M 192.24 118.08 
L 203.4 118.08 
L 203.4 106.92 
L 192.24 106.92 
L 192.24 118.08 
" style="fill:#6aaed6;stroke:#ffffff;"/>
    <path clip-path="url(#p56ca731c78)" d="M 203.4 118.08 
L 214.56 118.08 
L 214.56 106.92 
L 203.4 106.92 
L 203.4 118.08 
" style="fill:#2474b7;stroke:#ffffff;"/>
    <path clip-path="url(#p56ca731c78)" d="M 214.56 118.08 
L 225.72 118.08 
L 225.72 106.92 
L 214.56 106.92 
L 214.56 118.08 
" style="fill:#b7d4ea;stroke:#ffffff;"/>
    <path clip-path="url(#p56ca731c78)" d="M 225.72 118.08 
L 236.88 118.08 
L 236.88 106.92 
L 225.72 106.92 
L 225.72 118.08 
" style="fill:#3282be;stroke:#ffffff;"/>
    <path clip-path="url(#p56ca731c78)" d="M 236.88 118.08 
L 248.04 118.08 
L 248.04 106.92 
L 236.88 106.92 
L 236.88 118.08 
" style="fill:#4e9acb;stroke:#ffffff;"/>
    <path clip-path="url(#p56ca731c78)" d="M 248.04 118.08 
L 259.2 118.08 
L 259.2 106.92 
L 248.04 106.92 
L 248.04 118.08 
" style="fill:#61a7d2;stroke:#ffffff;"/>
    <path clip-path="url(#p56ca731c78)" d="M 36 106.92 
L 47.16 106.92 
L 47.16 95.76 
L 36 95.76 
L 36 106.92 
" style="fill:#3181bd;stroke:#ffffff;"/>
    <path clip-path="url(#p56ca731c78)" d="M 47.16 106.92 
L 58.32 106.92 
L 58.32 95.76 
L 47.16 95.76 
L 47.16 106.92 
" style="fill:#6aaed6;stroke:#ffffff;"/>
    <path clip-path="url(#p56ca731c78)" d="M 58.32 106.92 
L 69.48 106.92 
L 69.48 95.76 
L 58.32 95.76 
L 58.32 106.92 
" style="fill:#a1cbe2;stroke:#ffffff;"/>
    <path clip-path="url(#p56ca731c78)" d="M 69.48 106.92 
L 80.64 106.92 
L 80.64 95.76 
L 69.48 95.76 
L 69.48 106.92 
" style="fill:#549fcd;stroke:#ffffff;"/>
    <path clip-path="url(#p56ca731c78)" d="M 80.64 106.92 
L 91.8 106.92 
L 91.8 95.76 
L 80.64 95.76 
L 80.64 106.92 
" style="fill:#85bcdc;stroke:#ffffff;"/>
    <path clip-path="url(#p56ca731c78)" d="M 91.8 106.92 
L 102.96 106.92 
L 102.96 95.76 
L 91.8 95.76 
L 91.8 106.92 
" style="fill:#08306b;stroke:#ffffff;"/>
    <path clip-path="url(#p56ca731c78)" d="M 102.96 106.92 
L 114.12 106.92 
L 114.12 95.76 
L 102.96 95.76 
L 102.96 106.92 
" style="fill:#1764ab;stroke:#ffffff;"/>
    <path clip-path="url(#p56ca731c78)" d="M 114.12 106.92 
L 125.28 106.92 
L 125.28 95.76 
L 114.12 95.76 
L 114.12 106.92 
" style="fill:#6aaed6;stroke:#ffffff;"/>
    <path clip-path="url(#p56ca731c78)" d="M 125.28 106.92 
L 136.44 106.92 
L 136.44 95.76 
L 125.28 95.76 
L 125.28 106.92 
" style="fill:#7fb9da;stroke:#ffffff;"/>
    <path clip-path="url(#p56ca731c78)" d="M 136.44 106.92 
L 147.6 106.92 
L 147.6 95.76 
L 136.44 95.76 
L 136.44 106.92 
" style="fill:#81badb;stroke:#ffffff;"/>
    <path clip-path="url(#p56ca731c78)" d="M 147.6 106.92 
L 158.76 106.92 
L 158.76 95.76 
L 147.6 95.76 
L 147.6 106.92 
" style="fill:#85bcdc;stroke:#ffffff;"/>
    <path clip-path="url(#p56ca731c78)" d="M 158.76 106.92 
L 169.92 106.92 
L 169.92 95.76 
L 158.76 95.76 
L 158.76 106.92 
" style="fill:#6aaed6;stroke:#ffffff;"/>
    <path clip-path="url(#p56ca731c78)" d="M 169.92 106.92 
L 181.08 106.92 
L 181.08 95.76 
L 169.92 95.76 
L 169.92 106.92 
" style="fill:#99c7e0;stroke:#ffffff;"/>
    <path clip-path="url(#p56ca731c78)" d="M 181.08 106.92 
L 192.24 106.92 
L 192.24 95.76 
L 181.08 95.76 
L 181.08 106.92 
" style="fill:#94c4df;stroke:#ffffff;"/>
    <path clip-path="url(#p56ca731c78)" d="M 192.24 106.92 
L 203.4 106.92 
L 203.4 95.76 
L 192.24 95.76 
L 192.24 106.92 
" style="fill:#6aaed6;stroke:#ffffff;"/>
    <path clip-path="url(#p56ca731c78)" d="M 203.4 106.92 
L 214.56 106.92 
L 214.56 95.76 
L 203.4 95.76 
L 203.4 106.92 
" style="fill:#9cc9e1;stroke:#ffffff;"/>
    <path clip-path="url(#p56ca731c78)" d="M 214.56 106.92 
L 225.72 106.92 
L 225.72 95.76 
L 214.56 95.76 
L 214.56 106.92 
" style="fill:#92c4de;stroke:#ffffff;"/>
    <path clip-path="url(#p56ca731c78)" d="M 225.72 106.92 
L 236.88 106.92 
L 236.88 95.76 
L 225.72 95.76 
L 225.72 106.92 
" style="fill:#b8d5ea;stroke:#ffffff;"/>
    <path clip-path="url(#p56ca731c78)" d="M 236.88 106.92 
L 248.04 106.92 
L 248.04 95.76 
L 236.88 95.76 
L 236.88 106.92 
" style="fill:#083d7f;stroke:#ffffff;"/>
    <path clip-path="url(#p56ca731c78)" d="M 248.04 106.92 
L 259.2 106.92 
L 259.2 95.76 
L 248.04 95.76 
L 248.04 106.92 
" style="fill:#d9e7f5;stroke:#ffffff;"/>
    <path clip-path="url(#p56ca731c78)" d="M 36 95.76 
L 47.16 95.76 
L 47.16 84.6 
L 36 84.6 
L 36 95.76 
" style="fill:#81badb;stroke:#ffffff;"/>
    <path clip-path="url(#p56ca731c78)" d="M 47.16 95.76 
L 58.32 95.76 
L 58.32 84.6 
L 47.16 84.6 
L 47.16 95.76 
" style="fill:#6aaed6;stroke:#ffffff;"/>
    <path clip-path="url(#p56ca731c78)" d="M 58.32 95.76 
L 69.48 95.76 
L 69.48 84.6 
L 58.32 84.6 
L 58.32 95.76 
" style="fill:#bdd7ec;stroke:#ffffff;"/>
    <path clip-path="url(#p56ca731c78)" d="M 69.48 95.76 
L 80.64 95.76 
L 80.64 84.6 
L 69.48 84.6 
L 69.48 95.76 
" style="fill:#1c6ab0;stroke:#ffffff;"/>
    <path clip-path="url(#p56ca731c78)" d="M 80.64 95.76 
L 91.8 95.76 
L 91.8 84.6 
L 80.64 84.6 
L 80.64 95.76 
" style="fill:#1562a9;stroke:#ffffff;"/>
    <path clip-path="url(#p56ca731c78)" d="M 91.8 95.76 
L 102.96 95.76 
L 102.96 84.6 
L 91.8 84.6 
L 91.8 95.76 
" style="fill:#89bedc;stroke:#ffffff;"/>
    <path clip-path="url(#p56ca731c78)" d="M 102.96 95.76 
L 114.12 95.76 
L 114.12 84.6 
L 102.96 84.6 
L 102.96 95.76 
" style="fill:#4a98c9;stroke:#ffffff;"/>
    <path clip-path="url(#p56ca731c78)" d="M 114.12 95.76 
L 125.28 95.76 
L 125.28 84.6 
L 114.12 84.6 
L 114.12 95.76 
" style="fill:#6aaed6;stroke:#ffffff;"/>
    <path clip-path="url(#p56ca731c78)" d="M 125.28 95.76 
L 136.44 95.76 
L 136.44 84.6 
L 125.28 84.6 
L 125.28 95.76 
" style="fill:#82bbdb;stroke:#ffffff;"/>
    <path clip-path="url(#p56ca731c78)" d="M 136.44 95.76 
L 147.6 95.76 
L 147.6 84.6 
L 136.44 84.6 
L 136.44 95.76 
" style="fill:#68acd5;stroke:#ffffff;"/>
    <path clip-path="url(#p56ca731c78)" d="M 147.6 95.76 
L 158.76 95.76 
L 158.76 84.6 
L 147.6 84.6 
L 147.6 95.76 
" style="fill:#2e7ebc;stroke:#ffffff;"/>
    <path clip-path="url(#p56ca731c78)" d="M 158.76 95.76 
L 169.92 95.76 
L 169.92 84.6 
L 158.76 84.6 
L 158.76 95.76 
" style="fill:#6aaed6;stroke:#ffffff;"/>
    <path clip-path="url(#p56ca731c78)" d="M 169.92 95.76 
L 181.08 95.76 
L 181.08 84.6 
L 169.92 84.6 
L 169.92 95.76 
" style="fill:#7db8da;stroke:#ffffff;"/>
    <path clip-path="url(#p56ca731c78)" d="M 181.08 95.76 
L 192.24 95.76 
L 192.24 84.6 
L 181.08 84.6 
L 181.08 95.76 
" style="fill:#71b1d7;stroke:#ffffff;"/>
    <path clip-path="url(#p56ca731c78)" d="M 192.24 95.76 
L 203.4 95.76 
L 203.4 84.6 
L 192.24 84.6 
L 192.24 95.76 
" style="fill:#6aaed6;stroke:#ffffff;"/>
    <path clip-path="url(#p56ca731c78)" d="M 203.4 95.76 
L 214.56 95.76 
L 214.56 84.6 
L 203.4 84.6 
L 203.4 95.76 
" style="fill:#1764ab;stroke:#ffffff;"/>
    <path clip-path="url(#p56ca731c78)" d="M 214.56 95.76 
L 225.72 95.76 
L 225.72 84.6 
L 214.56 84.6 
L 214.56 95.76 
" style="fill:#8dc1dd;stroke:#ffffff;"/>
    <path clip-path="url(#p56ca731c78)" d="M 225.72 95.76 
L 236.88 95.76 
L 236.88 84.6 
L 225.72 84.6 
L 225.72 95.76 
" style="fill:#4695c8;stroke:#ffffff;"/>
    <path clip-path="url(#p56ca731c78)" d="M 236.88 95.76 
L 248.04 95.76 
L 248.04 84.6 
L 236.88 84.6 
L 236.88 95.76 
" style="fill:#5fa6d1;stroke:#ffffff;"/>
    <path clip-path="url(#p56ca731c78)" d="M 248.04 95.76 
L 259.2 95.76 
L 259.2 84.6 
L 248.04 84.6 
L 248.04 95.76 
" style="fill:#eaf3fb;stroke:#ffffff;"/>
   </g>
  </g>
 </g>
 <defs>
  <clipPath id="p56ca731c78">
   <rect height="111.6" width="223.2" x="36.0" y="84.6"/>
  </clipPath>
 </defs>
</svg>
