<?xml version="1.0" encoding="utf-8" standalone="no"?>
<!DOCTYPE svg PUBLIC "-//W3C//DTD SVG 1.1//EN"
  "http://www.w3.org/Graphics/SVG/1.1/DTD/svg11.dtd">
<!-- Created with matplotlib (http://matplotlib.org/) -->
<svg height="288pt" version="1.1" viewBox="0 0 288 288" width="288pt" xmlns="http://www.w3.org/2000/svg" xmlns:xlink="http://www.w3.org/1999/xlink">
 <defs>
  <style type="text/css">
*{stroke-linecap:butt;stroke-linejoin:round;stroke-miterlimit:100000;}
  </style>
 </defs>
 <g id="figure_1">
  <g id="patch_1">
   <path d="M 0 288 
L 288 288 
L 288 0 
L 0 0 
z
" style="fill:#ffffff;"/>
  </g>
  <g id="axes_1">
   <g id="QuadMesh_1">
    <path clip-path="url(#pbe2c9861d0)" d="M 36 162.72 
L 47.16 162.72 
L 47.16 151.56 
L 36 151.56 
L 36 162.72 
" style="fill:#3181bd;stroke:#ffffff;"/>
    <path clip-path="url(#pbe2c9861d0)" d="M 47.16 162.72 
L 58.32 162.72 
L 58.32 151.56 
L 47.16 151.56 
L 47.16 162.72 
" style="fill:#6aaed6;stroke:#ffffff;"/>
    <path clip-path="url(#pbe2c9861d0)" d="M 58.32 162.72 
L 69.48 162.72 
L 69.48 151.56 
L 58.32 151.56 
L 58.32 162.72 
" style="fill:#a1cbe2;stroke:#ffffff;"/>
    <path clip-path="url(#pbe2c9861d0)" d="M 69.48 162.72 
L 80.64 162.72 
L 80.64 151.56 
L 69.48 151.56 
L 69.48 162.72 
" style="fill:#549fcd;stroke:#ffffff;"/>
    <path clip-path="url(#pbe2c9861d0)" d="M 80.64 162.72 
L 91.8 162.72 
L 91.8 151.56 
L 80.64 151.56 
L 80.64 162.72 
" style="fill:#85bcdc;stroke:#ffffff;"/>
    <path clip-path="url(#pbe2c9861d0)" d="M 91.8 162.72 
L 102.96 162.72 
L 102.96 151.56 
L 91.8 151.56 
L 91.8 162.72 
" style="fill:#08306b;stroke:#ffffff;"/>
    <path clip-path="url(#pbe2c9861d0)" d="M 102.96 162.72 
L 114.12 162.72 
L 114.12 151.56 
L 102.96 151.56 
L 102.96 162.72 
" style="fill:#1764ab;stroke:#ffffff;"/>
    <path clip-path="url(#pbe2c9861d0)" d="M 114.12 162.72 
L 125.28 162.72 
L 125.28 151.56 
L 114.12 151.56 
L 114.12 162.72 
" style="fill:#6aaed6;stroke:#ffffff;"/>
    <path clip-path="url(#pbe2c9861d0)" d="M 125.28 162.72 
L 136.44 162.72 
L 136.44 151.56 
L 125.28 151.56 
L 125.28 162.72 
" style="fill:#7fb9da;stroke:#ffffff;"/>
    <path clip-path="url(#pbe2c9861d0)" d="M 136.44 162.72 
L 147.6 162.72 
L 147.6 151.56 
L 136.44 151.56 
L 136.44 162.72 
" style="fill:#81badb;stroke:#ffffff;"/>
    <path clip-path="url(#pbe2c9861d0)" d="M 147.6 162.72 
L 158.76 162.72 
L 158.76 151.56 
L 147.6 151.56 
L 147.6 162.72 
" style="fill:#85bcdc;stroke:#ffffff;"/>
    <path clip-path="url(#pbe2c9861d0)" d="M 158.76 162.72 
L 169.92 162.72 
L 169.92 151.56 
L 158.76 151.56 
L 158.76 162.72 
" style="fill:#6aaed6;stroke:#ffffff;"/>
    <path clip-path="url(#pbe2c9861d0)" d="M 169.92 162.72 
L 181.08 162.72 
L 181.08 151.56 
L 169.92 151.56 
L 169.92 162.72 
" style="fill:#99c7e0;stroke:#ffffff;"/>
    <path clip-path="url(#pbe2c9861d0)" d="M 181.08 162.72 
L 192.24 162.72 
L 192.24 151.56 
L 181.08 151.56 
L 181.08 162.72 
" style="fill:#94c4df;stroke:#ffffff;"/>
    <path clip-path="url(#pbe2c9861d0)" d="M 192.24 162.72 
L 203.4 162.72 
L 203.4 151.56 
L 192.24 151.56 
L 192.24 162.72 
" style="fill:#6aaed6;stroke:#ffffff;"/>
    <path clip-path="url(#pbe2c9861d0)" d="M 203.4 162.72 
L 214.56 162.72 
L 214.56 151.56 
L 203.4 151.56 
L 203.4 162.72 
" style="fill:#9cc9e1;stroke:#ffffff;"/>
    <path clip-path="url(#pbe2c9861d0)" d="M 214.56 162.72 
L 225.72 162.72 
L 225.72 151.56 
L 214.56 151.56 
L 214.56 162.72 
" style="fill:#92c4de;stroke:#ffffff;"/>
    <path clip-path="url(#pbe2c9861d0)" d="M 225.72 162.72 
L 236.88 162.72 
L 236.88 151.56 
L 225.72 151.56 
L 225.72 162.72 
" style="fill:#b8d5ea;stroke:#ffffff;"/>
    <path clip-path="url(#pbe2c9861d0)" d="M 236.88 162.72 
L 248.04 162.72 
L 248.04 151.56 
L 236.88 151.56 
L 236.88 162.72 
" style="fill:#083d7f;stroke:#ffffff;"/>
    <path clip-path="url(#pbe2c9861d0)" d="M 248.04 162.72 
L 259.2 162.72 
L 259.2 151.56 
L 248.04 151.56 
L 248.04 162.72 
" style="fill:#d9e7f5;stroke:#ffffff;"/>
    <path clip-path="url(#pbe2c9861d0)" d="M 36 151.56 
L 47.16 151.56 
L 47.16 140.4 
L 36 140.4 
L 36 151.56 
" style="fill:#81badb;stroke:#ffffff;"/>
    <path clip-path="url(#pbe2c9861d0)" d="M 47.16 151.56 
L 58.32 151.56 
L 58.32 140.4 
L 47.16 140.4 
L 47.16 151.56 
" style="fill:#6aaed6;stroke:#ffffff;"/>
    <path clip-path="url(#pbe2c9861d0)" d="M 58.32 151.56 
L 69.48 151.56 
L 69.48 140.4 
L 58.32 140.4 
L 58.32 151.56 
" style="fill:#bdd7ec;stroke:#ffffff;"/>
    <path clip-path="url(#pbe2c9861d0)" d="M 69.48 151.56 
L 80.64 151.56 
L 80.64 140.4 
L 69.48 140.4 
L 69.48 151.56 
" style="fill:#1c6ab0;stroke:#ffffff;"/>
    <path clip-path="url(#pbe2c9861d0)" d="M 80.64 151.56 
L 91.8 151.56 
L 91.8 140.4 
L 80.64 140.4 
L 80.64 151.56 
" style="fill:#1562a9;stroke:#ffffff;"/>
    <path clip-path="url(#pbe2c9861d0)" d="M 91.8 151.56 
L 102.96 151.56 
L 102.96 140.4 
L 91.8 140.4 
L 91.8 151.56 
" style="fill:#89bedc;stroke:#ffffff;"/>
    <path clip-path="url(#pbe2c9861d0)" d="M 102.96 151.56 
L 114.12 151.56 
L 114.12 140.4 
L 102.96 140.4 
L 102.96 151.56 
" style="fill:#4a98c9;stroke:#ffffff;"/>
    <path clip-path="url(#pbe2c9861d0)" d="M 114.12 151.56 
L 125.28 151.56 
L 125.28 140.4 
L 114.12 140.4 
L 114.12 151.56 
" style="fill:#6aaed6;stroke:#ffffff;"/>
    <path clip-path="url(#pbe2c9861d0)" d="M 125.28 151.56 
L 136.44 151.56 
L 136.44 140.4 
L 125.28 140.4 
L 125.28 151.56 
" style="fill:#82bbdb;stroke:#ffffff;"/>
    <path clip-path="url(#pbe2c9861d0)" d="M 136.44 151.56 
L 147.6 151.56 
L 147.6 140.4 
L 136.44 140.4 
L 136.44 151.56 
" style="fill:#68acd5;stroke:#ffffff;"/>
    <path clip-path="url(#pbe2c9861d0)" d="M 147.6 151.56 
L 158.76 151.56 
L 158.76 140.4 
L 147.6 140.4 
L 147.6 151.56 
" style="fill:#2e7ebc;stroke:#ffffff;"/>
    <path clip-path="url(#pbe2c9861d0)" d="M 158.76 151.56 
L 169.92 151.56 
L 169.92 140.4 
L 158.76 140.4 
L 158.76 151.56 
" style="fill:#6aaed6;stroke:#ffffff;"/>
    <path clip-path="url(#pbe2c9861d0)" d="M 169.92 151.56 
L 181.08 151.56 
L 181.08 140.4 
L 169.92 140.4 
L 169.92 151.56 
" style="fill:#7db8da;stroke:#ffffff;"/>
    <path clip-path="url(#pbe2c9861d0)" d="M 181.08 151.56 
L 192.24 151.56 
L 192.24 140.4 
L 181.08 140.4 
L 181.08 151.56 
" style="fill:#71b1d7;stroke:#ffffff;"/>
    <path clip-path="url(#pbe2c9861d0)" d="M 192.24 151.56 
L 203.4 151.56 
L 203.4 140.4 
L 192.24 140.4 
L 192.24 151.56 
" style="fill:#6aaed6;stroke:#ffffff;"/>
    <path clip-path="url(#pbe2c9861d0)" d="M 203.4 151.56 
L 214.56 151.56 
L 214.56 140.4 
L 203.4 140.4 
L 203.4 151.56 
" style="fill:#1764ab;stroke:#ffffff;"/>
    <path clip-path="url(#pbe2c9861d0)" d="M 214.56 151.56 
L 225.72 151.56 
L 225.72 140.4 
L 214.56 140.4 
L 214.56 151.56 
" style="fill:#8dc1dd;stroke:#ffffff;"/>
    <path clip-path="url(#pbe2c9861d0)" d="M 225.72 151.56 
L 236.88 151.56 
L 236.88 140.4 
L 225.72 140.4 
L 225.72 151.56 
" style="fill:#4695c8;stroke:#ffffff;"/>
    <path clip-path="url(#pbe2c9861d0)" d="M 236.88 151.56 
L 248.04 151.56 
L 248.04 140.4 
L 236.88 140.4 
L 236.88 151.56 
" style="fill:#5fa6d1;stroke:#ffffff;"/>
    <path clip-path="url(#pbe2c9861d0)" d="M 248.04 151.56 
L 259.2 151.56 
L 259.2 140.4 
L 248.04 140.4 
L 248.04 151.56 
" style="fill:#eaf3fb;stroke:#ffffff;"/>
    <path clip-path="url(#pbe2c9861d0)" d="M 36 140.4 
L 47.16 140.4 
L 47.16 129.24 
L 36 129.24 
L 36 140.4 
" style="fill:#a4cce3;stroke:#ffffff;"/>
    <path clip-path="url(#pbe2c9861d0)" d="M 47.16 140.4 
L 58.32 140.4 
L 58.32 129.24 
L 47.16 129.24 
L 47.16 140.4 
" style="fill:#6aaed6;stroke:#ffffff;"/>
    <path clip-path="url(#pbe2c9861d0)" d="M 58.32 140.4 
L 69.48 140.4 
L 69.48 129.24 
L 58.32 129.24 
L 58.32 140.4 
" style="fill:#61a7d2;stroke:#ffffff;"/>
    <path clip-path="url(#pbe2c9861d0)" d="M 69.48 140.4 
L 80.64 140.4 
L 80.64 129.24 
L 69.48 129.24 
L 69.48 140.4 
" style="fill:#a9cfe5;stroke:#ffffff;"/>
    <path clip-path="url(#pbe2c9861d0)" d="M 80.64 140.4 
L 91.8 140.4 
L 91.8 129.24 
L 80.64 129.24 
L 80.64 140.4 
" style="fill:none;stroke:#ffffff;"/>
    <path clip-path="url(#pbe2c9861d0)" d="M 91.8 140.4 
L 102.96 140.4 
L 102.96 129.24 
L 91.8 129.24 
L 91.8 140.4 
" style="fill:#7fb9da;stroke:#ffffff;"/>
    <path clip-path="url(#pbe2c9861d0)" d="M 102.96 140.4 
L 114.12 140.4 
L 114.12 129.24 
L 102.96 129.24 
L 102.96 140.4 
" style="fill:#95c5df;stroke:#ffffff;"/>
    <path clip-path="url(#pbe2c9861d0)" d="M 114.12 140.4 
L 125.28 140.4 
L 125.28 129.24 
L 114.12 129.24 
L 114.12 140.4 
" style="fill:#6aaed6;stroke:#ffffff;"/>
    <path clip-path="url(#pbe2c9861d0)" d="M 125.28 140.4 
L 136.44 140.4 
L 136.44 129.24 
L 125.28 129.24 
L 125.28 140.4 
" style="fill:#94c4df;stroke:#ffffff;"/>
    <path clip-path="url(#pbe2c9861d0)" d="M 136.44 140.4 
L 147.6 140.4 
L 147.6 129.24 
L 136.44 129.24 
L 136.44 140.4 
" style="fill:#71b1d7;stroke:#ffffff;"/>
    <path clip-path="url(#pbe2c9861d0)" d="M 147.6 140.4 
L 158.76 140.4 
L 158.76 129.24 
L 147.6 129.24 
L 147.6 140.4 
" style="fill:#81badb;stroke:#ffffff;"/>
    <path clip-path="url(#pbe2c9861d0)" d="M 158.76 140.4 
L 169.92 140.4 
L 169.92 129.24 
L 158.76 129.24 
L 158.76 140.4 
" style="fill:#6aaed6;stroke:#ffffff;"/>
    <path clip-path="url(#pbe2c9861d0)" d="M 169.92 140.4 
L 181.08 140.4 
L 181.08 129.24 
L 169.92 129.24 
L 169.92 140.4 
" style="fill:#d0e1f2;stroke:#ffffff;"/>
    <path clip-path="url(#pbe2c9861d0)" d="M 181.08 140.4 
L 192.24 140.4 
L 192.24 129.24 
L 181.08 129.24 
L 181.08 140.4 
" style="fill:#65aad4;stroke:#ffffff;"/>
    <path clip-path="url(#pbe2c9861d0)" d="M 192.24 140.4 
L 203.4 140.4 
L 203.4 129.24 
L 192.24 129.24 
L 192.24 140.4 
" style="fill:#6aaed6;stroke:#ffffff;"/>
    <path clip-path="url(#pbe2c9861d0)" d="M 203.4 140.4 
L 214.56 140.4 
L 214.56 129.24 
L 203.4 129.24 
L 203.4 140.4 
" style="fill:#135fa7;stroke:#ffffff;"/>
    <path clip-path="url(#pbe2c9861d0)" d="M 214.56 140.4 
L 225.72 140.4 
L 225.72 129.24 
L 214.56 129.24 
L 214.56 140.4 
" style="fill:none;stroke:#ffffff;"/>
    <path clip-path="url(#pbe2c9861d0)" d="M 225.72 140.4 
L 236.88 140.4 
L 236.88 129.24 
L 225.72 129.24 
L 225.72 140.4 
" style="fill:none;stroke:#ffffff;"/>
    <path clip-path="url(#pbe2c9861d0)" d="M 236.88 140.4 
L 248.04 140.4 
L 248.04 129.24 
L 236.88 129.24 
L 236.88 140.4 
" style="fill:#6aaed6;stroke:#ffffff;"/>
    <path clip-path="url(#pbe2c9861d0)" d="M 248.04 140.4 
L 259.2 140.4 
L 259.2 129.24 
L 248.04 129.24 
L 248.04 140.4 
" style="fill:#4191c6;stroke:#ffffff;"/>
    <path clip-path="url(#pbe2c9861d0)" d="M 36 129.24 
L 47.16 129.24 
L 47.16 118.08 
L 36 118.08 
L 36 129.24 
" style="fill:#87bddc;stroke:#ffffff;"/>
    <path clip-path="url(#pbe2c9861d0)" d="M 47.16 129.24 
L 58.32 129.24 
L 58.32 118.08 
L 47.16 118.08 
L 47.16 129.24 
" style="fill:#6aaed6;stroke:#ffffff;"/>
    <path clip-path="url(#pbe2c9861d0)" d="M 58.32 129.24 
L 69.48 129.24 
L 69.48 118.08 
L 58.32 118.08 
L 58.32 129.24 
" style="fill:#c7dcef;stroke:#ffffff;"/>
    <path clip-path="url(#pbe2c9861d0)" d="M 69.48 129.24 
L 80.64 129.24 
L 80.64 118.08 
L 69.48 118.08 
L 69.48 129.24 
" style="fill:#1f6eb3;stroke:#ffffff;"/>
    <path clip-path="url(#pbe2c9861d0)" d="M 80.64 129.24 
L 91.8 129.24 
L 91.8 118.08 
L 80.64 118.08 
L 80.64 129.24 
" style="fill:#dfebf7;stroke:#ffffff;"/>
    <path clip-path="url(#pbe2c9861d0)" d="M 91.8 129.24 
L 102.96 129.24 
L 102.96 118.08 
L 91.8 118.08 
L 91.8 129.24 
" style="fill:#b0d2e7;stroke:#ffffff;"/>
    <path clip-path="url(#pbe2c9861d0)" d="M 102.96 129.24 
L 114.12 129.24 
L 114.12 118.08 
L 102.96 118.08 
L 102.96 129.24 
" style="fill:#519ccc;stroke:#ffffff;"/>
    <path clip-path="url(#pbe2c9861d0)" d="M 114.12 129.24 
L 125.28 129.24 
L 125.28 118.08 
L 114.12 118.08 
L 114.12 129.24 
" style="fill:#6aaed6;stroke:#ffffff;"/>
    <path clip-path="url(#pbe2c9861d0)" d="M 125.28 129.24 
L 136.44 129.24 
L 136.44 118.08 
L 125.28 118.08 
L 125.28 129.24 
" style="fill:#89bedc;stroke:#ffffff;"/>
    <path clip-path="url(#pbe2c9861d0)" d="M 136.44 129.24 
L 147.6 129.24 
L 147.6 118.08 
L 136.44 118.08 
L 136.44 129.24 
" style="fill:#8dc1dd;stroke:#ffffff;"/>
    <path clip-path="url(#pbe2c9861d0)" d="M 147.6 129.24 
L 158.76 129.24 
L 158.76 118.08 
L 147.6 118.08 
L 147.6 129.24 
" style="fill:#4695c8;stroke:#ffffff;"/>
    <path clip-path="url(#pbe2c9861d0)" d="M 158.76 129.24 
L 169.92 129.24 
L 169.92 118.08 
L 158.76 118.08 
L 158.76 129.24 
" style="fill:none;stroke:#ffffff;"/>
    <path clip-path="url(#pbe2c9861d0)" d="M 169.92 129.24 
L 181.08 129.24 
L 181.08 118.08 
L 169.92 118.08 
L 169.92 129.24 
" style="fill:#69add5;stroke:#ffffff;"/>
    <path clip-path="url(#pbe2c9861d0)" d="M 181.08 129.24 
L 192.24 129.24 
L 192.24 118.08 
L 181.08 118.08 
L 181.08 129.24 
" style="fill:#b3d3e8;stroke:#ffffff;"/>
    <path clip-path="url(#pbe2c9861d0)" d="M 192.24 129.24 
L 203.4 129.24 
L 203.4 118.08 
L 192.24 118.08 
L 192.24 129.24 
" style="fill:#6aaed6;stroke:#ffffff;"/>
    <path clip-path="url(#pbe2c9861d0)" d="M 203.4 129.24 
L 214.56 129.24 
L 214.56 118.08 
L 203.4 118.08 
L 203.4 129.24 
" style="fill:#a3cce3;stroke:#ffffff;"/>
    <path clip-path="url(#pbe2c9861d0)" d="M 214.56 129.24 
L 225.72 129.24 
L 225.72 118.08 
L 214.56 118.08 
L 214.56 129.24 
" style="fill:#6caed6;stroke:#ffffff;"/>
    <path clip-path="url(#pbe2c9861d0)" d="M 225.72 129.24 
L 236.88 129.24 
L 236.88 118.08 
L 225.72 118.08 
L 225.72 129.24 
" style="fill:#206fb4;stroke:#ffffff;"/>
    <path clip-path="url(#pbe2c9861d0)" d="M 236.88 129.24 
L 248.04 129.24 
L 248.04 118.08 
L 236.88 118.08 
L 236.88 129.24 
" style="fill:#a0cbe2;stroke:#ffffff;"/>
    <path clip-path="url(#pbe2c9861d0)" d="M 248.04 129.24 
L 259.2 129.24 
L 259.2 118.08 
L 248.04 118.08 
L 248.04 129.24 
" style="fill:#6aaed6;stroke:#ffffff;"/>
   </g>
  </g>
 </g>
 <defs>
  <clipPath id="pbe2c9861d0">
   <rect height="44.64" width="223.2" x="36.0" y="118.08"/>
  </clipPath>
 </defs>
</svg>
