<?xml version="1.0" encoding="utf-8" standalone="no"?>
<!DOCTYPE svg PUBLIC "-//W3C//DTD SVG 1.1//EN"
  "http://www.w3.org/Graphics/SVG/1.1/DTD/svg11.dtd">
<!-- Created with matplotlib (http://matplotlib.org/) -->
<svg height="288pt" version="1.1" viewBox="0 0 288 288" width="288pt" xmlns="http://www.w3.org/2000/svg" xmlns:xlink="http://www.w3.org/1999/xlink">
 <defs>
  <style type="text/css">
*{stroke-linecap:butt;stroke-linejoin:round;stroke-miterlimit:100000;}
  </style>
 </defs>
 <g id="figure_1">
  <g id="patch_1">
   <path d="M 0 288 
L 288 288 
L 288 0 
L 0 0 
L 0 288 
z
" style="fill:none;"/>
  </g>
  <g id="axes_1">
   <g id="patch_2">
    <path d="M 57.596875 241.2 
L 274.545313 241.2 
L 274.545313 24.251562 
L 57.596875 24.251562 
L 57.596875 241.2 
z
" style="fill:none;"/>
   </g>
   <g id="line2d_1">
    <path clip-path="url(#pf6a9b7ba86)" d="M 71.156152 227.640723 
L 267.765674 31.031201 
" style="fill:none;stroke:#808080;stroke-dasharray:6.000000,6.000000;stroke-dashoffset:0.0;stroke-width:1.75;"/>
   </g>
   <g id="matplotlib.axis_1">
    <g id="xtick_1">
     <g id="line2d_2">
      <defs>
       <path d="M 0 0 
L 0 6 
" id="m378b5eaa24" style="stroke:#262626;"/>
      </defs>
      <g>
       <use style="fill:#262626;stroke:#262626;" x="71.1561523437" xlink:href="#m378b5eaa24" y="241.2"/>
      </g>
     </g>
     <g id="text_1">
      <!-- −40 -->
      <defs>
       <path d="M 32.328125 0 
L 32.328125 17.140625 
L 1.265625 17.140625 
L 1.265625 25.203125 
L 33.9375 71.578125 
L 41.109375 71.578125 
L 41.109375 25.203125 
L 50.78125 25.203125 
L 50.78125 17.140625 
L 41.109375 17.140625 
L 41.109375 0 
z
M 32.328125 25.203125 
L 32.328125 57.46875 
L 9.90625 25.203125 
z
" id="ArialMT-34"/>
       <path d="M 4.15625 35.296875 
Q 4.15625 48 6.765625 55.734375 
Q 9.375 63.484375 14.515625 67.671875 
Q 19.671875 71.875 27.484375 71.875 
Q 33.25 71.875 37.59375 69.546875 
Q 41.9375 67.234375 44.765625 62.859375 
Q 47.609375 58.5 49.21875 52.21875 
Q 50.828125 45.953125 50.828125 35.296875 
Q 50.828125 22.703125 48.234375 14.96875 
Q 45.65625 7.234375 40.5 3 
Q 35.359375 -1.21875 27.484375 -1.21875 
Q 17.140625 -1.21875 11.234375 6.203125 
Q 4.15625 15.140625 4.15625 35.296875 
M 13.1875 35.296875 
Q 13.1875 17.671875 17.3125 11.828125 
Q 21.4375 6 27.484375 6 
Q 33.546875 6 37.671875 11.859375 
Q 41.796875 17.71875 41.796875 35.296875 
Q 41.796875 52.984375 37.671875 58.78125 
Q 33.546875 64.59375 27.390625 64.59375 
Q 21.34375 64.59375 17.71875 59.46875 
Q 13.1875 52.9375 13.1875 35.296875 
" id="ArialMT-30"/>
       <path d="M 52.828125 31.203125 
L 5.5625 31.203125 
L 5.5625 39.40625 
L 52.828125 39.40625 
z
" id="ArialMT-2212"/>
      </defs>
      <g style="fill:#262626;" transform="translate(62.6749023437 261.3578125)scale(0.1 -0.1)">
       <use xlink:href="#ArialMT-2212"/>
       <use x="58.3984375" xlink:href="#ArialMT-34"/>
       <use x="114.013671875" xlink:href="#ArialMT-30"/>
      </g>
     </g>
    </g>
    <g id="xtick_2">
     <g id="line2d_3">
      <g>
       <use style="fill:#262626;stroke:#262626;" x="98.2747070313" xlink:href="#m378b5eaa24" y="241.2"/>
      </g>
     </g>
     <g id="text_2">
      <!-- −20 -->
      <defs>
       <path d="M 50.34375 8.453125 
L 50.34375 0 
L 3.03125 0 
Q 2.9375 3.171875 4.046875 6.109375 
Q 5.859375 10.9375 9.828125 15.625 
Q 13.8125 20.3125 21.34375 26.46875 
Q 33.015625 36.03125 37.109375 41.625 
Q 41.21875 47.21875 41.21875 52.203125 
Q 41.21875 57.421875 37.46875 61 
Q 33.734375 64.59375 27.734375 64.59375 
Q 21.390625 64.59375 17.578125 60.78125 
Q 13.765625 56.984375 13.71875 50.25 
L 4.6875 51.171875 
Q 5.609375 61.28125 11.65625 66.578125 
Q 17.71875 71.875 27.9375 71.875 
Q 38.234375 71.875 44.234375 66.15625 
Q 50.25 60.453125 50.25 52 
Q 50.25 47.703125 48.484375 43.546875 
Q 46.734375 39.40625 42.65625 34.8125 
Q 38.578125 30.21875 29.109375 22.21875 
Q 21.1875 15.578125 18.9375 13.203125 
Q 16.703125 10.84375 15.234375 8.453125 
z
" id="ArialMT-32"/>
      </defs>
      <g style="fill:#262626;" transform="translate(89.7934570312 261.3578125)scale(0.1 -0.1)">
       <use xlink:href="#ArialMT-2212"/>
       <use x="58.3984375" xlink:href="#ArialMT-32"/>
       <use x="114.013671875" xlink:href="#ArialMT-30"/>
      </g>
     </g>
    </g>
    <g id="xtick_3">
     <g id="line2d_4">
      <g>
       <use style="fill:#262626;stroke:#262626;" x="125.393261719" xlink:href="#m378b5eaa24" y="241.2"/>
      </g>
     </g>
     <g id="text_3">
      <!-- 0 -->
      <g style="fill:#262626;" transform="translate(122.612792969 261.3578125)scale(0.1 -0.1)">
       <use xlink:href="#ArialMT-30"/>
      </g>
     </g>
    </g>
    <g id="xtick_4">
     <g id="line2d_5">
      <g>
       <use style="fill:#262626;stroke:#262626;" x="152.511816406" xlink:href="#m378b5eaa24" y="241.2"/>
      </g>
     </g>
     <g id="text_4">
      <!-- 20 -->
      <g style="fill:#262626;" transform="translate(146.950878906 261.3578125)scale(0.1 -0.1)">
       <use xlink:href="#ArialMT-32"/>
       <use x="55.615234375" xlink:href="#ArialMT-30"/>
      </g>
     </g>
    </g>
    <g id="xtick_5">
     <g id="line2d_6">
      <g>
       <use style="fill:#262626;stroke:#262626;" x="179.630371094" xlink:href="#m378b5eaa24" y="241.2"/>
      </g>
     </g>
     <g id="text_5">
      <!-- 40 -->
      <g style="fill:#262626;" transform="translate(174.069433594 261.3578125)scale(0.1 -0.1)">
       <use xlink:href="#ArialMT-34"/>
       <use x="55.615234375" xlink:href="#ArialMT-30"/>
      </g>
     </g>
    </g>
    <g id="xtick_6">
     <g id="line2d_7">
      <g>
       <use style="fill:#262626;stroke:#262626;" x="206.748925781" xlink:href="#m378b5eaa24" y="241.2"/>
      </g>
     </g>
     <g id="text_6">
      <!-- 60 -->
      <defs>
       <path d="M 49.75 54.046875 
L 41.015625 53.375 
Q 39.84375 58.546875 37.703125 60.890625 
Q 34.125 64.65625 28.90625 64.65625 
Q 24.703125 64.65625 21.53125 62.3125 
Q 17.390625 59.28125 14.984375 53.46875 
Q 12.59375 47.65625 12.5 36.921875 
Q 15.671875 41.75 20.265625 44.09375 
Q 24.859375 46.4375 29.890625 46.4375 
Q 38.671875 46.4375 44.84375 39.96875 
Q 51.03125 33.5 51.03125 23.25 
Q 51.03125 16.5 48.125 10.71875 
Q 45.21875 4.9375 40.140625 1.859375 
Q 35.0625 -1.21875 28.609375 -1.21875 
Q 17.625 -1.21875 10.6875 6.859375 
Q 3.765625 14.9375 3.765625 33.5 
Q 3.765625 54.25 11.421875 63.671875 
Q 18.109375 71.875 29.4375 71.875 
Q 37.890625 71.875 43.28125 67.140625 
Q 48.6875 62.40625 49.75 54.046875 
M 13.875 23.1875 
Q 13.875 18.65625 15.796875 14.5 
Q 17.71875 10.359375 21.1875 8.171875 
Q 24.65625 6 28.46875 6 
Q 34.03125 6 38.03125 10.484375 
Q 42.046875 14.984375 42.046875 22.703125 
Q 42.046875 30.125 38.078125 34.390625 
Q 34.125 38.671875 28.125 38.671875 
Q 22.171875 38.671875 18.015625 34.390625 
Q 13.875 30.125 13.875 23.1875 
" id="ArialMT-36"/>
      </defs>
      <g style="fill:#262626;" transform="translate(201.187988281 261.3578125)scale(0.1 -0.1)">
       <use xlink:href="#ArialMT-36"/>
       <use x="55.615234375" xlink:href="#ArialMT-30"/>
      </g>
     </g>
    </g>
    <g id="xtick_7">
     <g id="line2d_8">
      <g>
       <use style="fill:#262626;stroke:#262626;" x="233.867480469" xlink:href="#m378b5eaa24" y="241.2"/>
      </g>
     </g>
     <g id="text_7">
      <!-- 80 -->
      <defs>
       <path d="M 17.671875 38.8125 
Q 12.203125 40.828125 9.5625 44.53125 
Q 6.9375 48.25 6.9375 53.421875 
Q 6.9375 61.234375 12.546875 66.546875 
Q 18.171875 71.875 27.484375 71.875 
Q 36.859375 71.875 42.578125 66.421875 
Q 48.296875 60.984375 48.296875 53.171875 
Q 48.296875 48.1875 45.671875 44.5 
Q 43.0625 40.828125 37.75 38.8125 
Q 44.34375 36.671875 47.78125 31.875 
Q 51.21875 27.09375 51.21875 20.453125 
Q 51.21875 11.28125 44.71875 5.03125 
Q 38.234375 -1.21875 27.640625 -1.21875 
Q 17.046875 -1.21875 10.546875 5.046875 
Q 4.046875 11.328125 4.046875 20.703125 
Q 4.046875 27.6875 7.59375 32.390625 
Q 11.140625 37.109375 17.671875 38.8125 
M 15.921875 53.71875 
Q 15.921875 48.640625 19.1875 45.40625 
Q 22.46875 42.1875 27.6875 42.1875 
Q 32.765625 42.1875 36.015625 45.375 
Q 39.265625 48.578125 39.265625 53.21875 
Q 39.265625 58.0625 35.90625 61.359375 
Q 32.5625 64.65625 27.59375 64.65625 
Q 22.5625 64.65625 19.234375 61.421875 
Q 15.921875 58.203125 15.921875 53.71875 
M 13.09375 20.65625 
Q 13.09375 16.890625 14.875 13.375 
Q 16.65625 9.859375 20.171875 7.921875 
Q 23.6875 6 27.734375 6 
Q 34.03125 6 38.125 10.046875 
Q 42.234375 14.109375 42.234375 20.359375 
Q 42.234375 26.703125 38.015625 30.859375 
Q 33.796875 35.015625 27.4375 35.015625 
Q 21.234375 35.015625 17.15625 30.90625 
Q 13.09375 26.8125 13.09375 20.65625 
" id="ArialMT-38"/>
      </defs>
      <g style="fill:#262626;" transform="translate(228.306542969 261.3578125)scale(0.1 -0.1)">
       <use xlink:href="#ArialMT-38"/>
       <use x="55.615234375" xlink:href="#ArialMT-30"/>
      </g>
     </g>
    </g>
    <g id="xtick_8">
     <g id="line2d_9">
      <g>
       <use style="fill:#262626;stroke:#262626;" x="260.986035156" xlink:href="#m378b5eaa24" y="241.2"/>
      </g>
     </g>
     <g id="text_8">
      <!-- 100 -->
      <defs>
       <path d="M 37.25 0 
L 28.46875 0 
L 28.46875 56 
Q 25.296875 52.984375 20.140625 49.953125 
Q 14.984375 46.921875 10.890625 45.40625 
L 10.890625 53.90625 
Q 18.265625 57.375 23.78125 62.296875 
Q 29.296875 67.234375 31.59375 71.875 
L 37.25 71.875 
z
" id="ArialMT-31"/>
      </defs>
      <g style="fill:#262626;" transform="translate(252.644628906 261.3578125)scale(0.1 -0.1)">
       <use xlink:href="#ArialMT-31"/>
       <use x="55.615234375" xlink:href="#ArialMT-30"/>
       <use x="111.23046875" xlink:href="#ArialMT-30"/>
      </g>
     </g>
    </g>
    <g id="text_9">
     <!-- YSI (measured) -->
     <defs>
      <path d="M 40.578125 0 
L 40.578125 7.625 
Q 34.515625 -1.171875 24.125 -1.171875 
Q 19.53125 -1.171875 15.546875 0.578125 
Q 11.578125 2.34375 9.640625 5 
Q 7.71875 7.671875 6.9375 11.53125 
Q 6.390625 14.109375 6.390625 19.734375 
L 6.390625 51.859375 
L 15.1875 51.859375 
L 15.1875 23.09375 
Q 15.1875 16.21875 15.71875 13.8125 
Q 16.546875 10.359375 19.234375 8.375 
Q 21.921875 6.390625 25.875 6.390625 
Q 29.828125 6.390625 33.296875 8.421875 
Q 36.765625 10.453125 38.203125 13.9375 
Q 39.65625 17.4375 39.65625 24.078125 
L 39.65625 51.859375 
L 48.4375 51.859375 
L 48.4375 0 
z
" id="ArialMT-75"/>
      <path id="ArialMT-20"/>
      <path d="M 23.390625 -21.046875 
Q 16.109375 -11.859375 11.078125 0.4375 
Q 6.0625 12.75 6.0625 25.921875 
Q 6.0625 37.546875 9.8125 48.1875 
Q 14.203125 60.546875 23.390625 72.796875 
L 29.6875 72.796875 
Q 23.78125 62.640625 21.875 58.296875 
Q 18.890625 51.5625 17.1875 44.234375 
Q 15.09375 35.109375 15.09375 25.875 
Q 15.09375 2.390625 29.6875 -21.046875 
z
" id="ArialMT-28"/>
      <path d="M 12.359375 -21.046875 
L 6.0625 -21.046875 
Q 20.65625 2.390625 20.65625 25.875 
Q 20.65625 35.0625 18.5625 44.09375 
Q 16.890625 51.421875 13.921875 58.15625 
Q 12.015625 62.546875 6.0625 72.796875 
L 12.359375 72.796875 
Q 21.53125 60.546875 25.921875 48.1875 
Q 29.6875 37.546875 29.6875 25.921875 
Q 29.6875 12.75 24.625 0.4375 
Q 19.578125 -11.859375 12.359375 -21.046875 
" id="ArialMT-29"/>
      <path d="M 9.328125 0 
L 9.328125 71.578125 
L 18.796875 71.578125 
L 18.796875 0 
z
" id="ArialMT-49"/>
      <path d="M 27.875 0 
L 27.875 30.328125 
L 0.296875 71.578125 
L 11.8125 71.578125 
L 25.921875 50 
Q 29.828125 43.953125 33.203125 37.890625 
Q 36.421875 43.5 41.015625 50.53125 
L 54.890625 71.578125 
L 65.921875 71.578125 
L 37.359375 30.328125 
L 37.359375 0 
z
" id="ArialMT-59"/>
      <path d="M 40.234375 0 
L 40.234375 6.546875 
Q 35.296875 -1.171875 25.734375 -1.171875 
Q 19.53125 -1.171875 14.328125 2.25 
Q 9.125 5.671875 6.265625 11.796875 
Q 3.421875 17.921875 3.421875 25.875 
Q 3.421875 33.640625 6 39.96875 
Q 8.59375 46.296875 13.765625 49.65625 
Q 18.953125 53.03125 25.34375 53.03125 
Q 30.03125 53.03125 33.6875 51.046875 
Q 37.359375 49.078125 39.65625 45.90625 
L 39.65625 71.578125 
L 48.390625 71.578125 
L 48.390625 0 
z
M 12.453125 25.875 
Q 12.453125 15.921875 16.640625 10.984375 
Q 20.84375 6.0625 26.5625 6.0625 
Q 32.328125 6.0625 36.34375 10.765625 
Q 40.375 15.484375 40.375 25.140625 
Q 40.375 35.796875 36.265625 40.765625 
Q 32.171875 45.75 26.171875 45.75 
Q 20.3125 45.75 16.375 40.96875 
Q 12.453125 36.1875 12.453125 25.875 
" id="ArialMT-64"/>
      <path d="M 42.09375 16.703125 
L 51.171875 15.578125 
Q 49.03125 7.625 43.21875 3.21875 
Q 37.40625 -1.171875 28.375 -1.171875 
Q 17 -1.171875 10.328125 5.828125 
Q 3.65625 12.84375 3.65625 25.484375 
Q 3.65625 38.578125 10.390625 45.796875 
Q 17.140625 53.03125 27.875 53.03125 
Q 38.28125 53.03125 44.875 45.953125 
Q 51.46875 38.875 51.46875 26.03125 
Q 51.46875 25.25 51.421875 23.6875 
L 12.75 23.6875 
Q 13.234375 15.140625 17.578125 10.59375 
Q 21.921875 6.0625 28.421875 6.0625 
Q 33.25 6.0625 36.671875 8.59375 
Q 40.09375 11.140625 42.09375 16.703125 
M 13.234375 30.90625 
L 42.1875 30.90625 
Q 41.609375 37.453125 38.875 40.71875 
Q 34.671875 45.796875 27.984375 45.796875 
Q 21.921875 45.796875 17.796875 41.75 
Q 13.671875 37.703125 13.234375 30.90625 
" id="ArialMT-65"/>
      <path d="M 6.59375 0 
L 6.59375 51.859375 
L 14.453125 51.859375 
L 14.453125 44.578125 
Q 16.890625 48.390625 20.9375 50.703125 
Q 25 53.03125 30.171875 53.03125 
Q 35.9375 53.03125 39.625 50.640625 
Q 43.3125 48.25 44.828125 43.953125 
Q 50.984375 53.03125 60.84375 53.03125 
Q 68.5625 53.03125 72.703125 48.75 
Q 76.859375 44.484375 76.859375 35.59375 
L 76.859375 0 
L 68.109375 0 
L 68.109375 32.671875 
Q 68.109375 37.9375 67.25 40.25 
Q 66.40625 42.578125 64.15625 43.984375 
Q 61.921875 45.40625 58.890625 45.40625 
Q 53.421875 45.40625 49.796875 41.765625 
Q 46.1875 38.140625 46.1875 30.125 
L 46.1875 0 
L 37.40625 0 
L 37.40625 33.6875 
Q 37.40625 39.546875 35.25 42.46875 
Q 33.109375 45.40625 28.21875 45.40625 
Q 24.515625 45.40625 21.359375 43.453125 
Q 18.21875 41.5 16.796875 37.734375 
Q 15.375 33.984375 15.375 26.90625 
L 15.375 0 
z
" id="ArialMT-6d"/>
      <path d="M 4.5 23 
L 13.421875 23.78125 
Q 14.0625 18.40625 16.375 14.96875 
Q 18.703125 11.53125 23.578125 9.40625 
Q 28.46875 7.28125 34.578125 7.28125 
Q 39.984375 7.28125 44.140625 8.890625 
Q 48.296875 10.5 50.3125 13.296875 
Q 52.34375 16.109375 52.34375 19.4375 
Q 52.34375 22.796875 50.390625 25.3125 
Q 48.4375 27.828125 43.953125 29.546875 
Q 41.0625 30.671875 31.203125 33.03125 
Q 21.34375 35.40625 17.390625 37.5 
Q 12.25 40.1875 9.734375 44.15625 
Q 7.234375 48.140625 7.234375 53.078125 
Q 7.234375 58.5 10.296875 63.203125 
Q 13.375 67.921875 19.28125 70.359375 
Q 25.203125 72.796875 32.421875 72.796875 
Q 40.375 72.796875 46.453125 70.234375 
Q 52.546875 67.671875 55.8125 62.6875 
Q 59.078125 57.71875 59.328125 51.421875 
L 50.25 50.734375 
Q 49.515625 57.515625 45.28125 60.984375 
Q 41.0625 64.453125 32.8125 64.453125 
Q 24.21875 64.453125 20.28125 61.296875 
Q 16.359375 58.15625 16.359375 53.71875 
Q 16.359375 49.859375 19.140625 47.359375 
Q 21.875 44.875 33.421875 42.265625 
Q 44.96875 39.65625 49.265625 37.703125 
Q 55.515625 34.8125 58.484375 30.390625 
Q 61.46875 25.984375 61.46875 20.21875 
Q 61.46875 14.5 58.203125 9.4375 
Q 54.9375 4.390625 48.796875 1.578125 
Q 42.671875 -1.21875 35.015625 -1.21875 
Q 25.296875 -1.21875 18.71875 1.609375 
Q 12.15625 4.4375 8.421875 10.125 
Q 4.6875 15.828125 4.5 23 
" id="ArialMT-53"/>
      <path d="M 40.4375 6.390625 
Q 35.546875 2.25 31.03125 0.53125 
Q 26.515625 -1.171875 21.34375 -1.171875 
Q 12.796875 -1.171875 8.203125 3 
Q 3.609375 7.171875 3.609375 13.671875 
Q 3.609375 17.484375 5.34375 20.625 
Q 7.078125 23.78125 9.890625 25.6875 
Q 12.703125 27.59375 16.21875 28.5625 
Q 18.796875 29.25 24.03125 29.890625 
Q 34.671875 31.15625 39.703125 32.90625 
Q 39.75 34.71875 39.75 35.203125 
Q 39.75 40.578125 37.25 42.78125 
Q 33.890625 45.75 27.25 45.75 
Q 21.046875 45.75 18.09375 43.578125 
Q 15.140625 41.40625 13.71875 35.890625 
L 5.125 37.0625 
Q 6.296875 42.578125 8.984375 45.96875 
Q 11.671875 49.359375 16.75 51.1875 
Q 21.828125 53.03125 28.515625 53.03125 
Q 35.15625 53.03125 39.296875 51.46875 
Q 43.453125 49.90625 45.40625 47.53125 
Q 47.359375 45.171875 48.140625 41.546875 
Q 48.578125 39.3125 48.578125 33.453125 
L 48.578125 21.734375 
Q 48.578125 9.46875 49.140625 6.21875 
Q 49.703125 2.984375 51.375 0 
L 42.1875 0 
Q 40.828125 2.734375 40.4375 6.390625 
M 39.703125 26.03125 
Q 34.90625 24.078125 25.34375 22.703125 
Q 19.921875 21.921875 17.671875 20.9375 
Q 15.4375 19.96875 14.203125 18.09375 
Q 12.984375 16.21875 12.984375 13.921875 
Q 12.984375 10.40625 15.640625 8.0625 
Q 18.3125 5.71875 23.4375 5.71875 
Q 28.515625 5.71875 32.46875 7.9375 
Q 36.421875 10.15625 38.28125 14.015625 
Q 39.703125 17 39.703125 22.796875 
z
" id="ArialMT-61"/>
      <path d="M 3.078125 15.484375 
L 11.765625 16.84375 
Q 12.5 11.625 15.84375 8.84375 
Q 19.1875 6.0625 25.203125 6.0625 
Q 31.25 6.0625 34.171875 8.515625 
Q 37.109375 10.984375 37.109375 14.3125 
Q 37.109375 17.28125 34.515625 19 
Q 32.71875 20.171875 25.53125 21.96875 
Q 15.875 24.421875 12.140625 26.203125 
Q 8.40625 27.984375 6.46875 31.125 
Q 4.546875 34.28125 4.546875 38.09375 
Q 4.546875 41.546875 6.125 44.5 
Q 7.71875 47.46875 10.453125 49.421875 
Q 12.5 50.921875 16.03125 51.96875 
Q 19.578125 53.03125 23.640625 53.03125 
Q 29.734375 53.03125 34.34375 51.265625 
Q 38.96875 49.515625 41.15625 46.5 
Q 43.359375 43.5 44.1875 38.484375 
L 35.59375 37.3125 
Q 35.015625 41.3125 32.203125 43.546875 
Q 29.390625 45.796875 24.265625 45.796875 
Q 18.21875 45.796875 15.625 43.796875 
Q 13.03125 41.796875 13.03125 39.109375 
Q 13.03125 37.40625 14.109375 36.03125 
Q 15.1875 34.625 17.484375 33.6875 
Q 18.796875 33.203125 25.25 31.453125 
Q 34.578125 28.953125 38.25 27.359375 
Q 41.9375 25.78125 44.03125 22.75 
Q 46.140625 19.734375 46.140625 15.234375 
Q 46.140625 10.84375 43.578125 6.953125 
Q 41.015625 3.078125 36.171875 0.953125 
Q 31.34375 -1.171875 25.25 -1.171875 
Q 15.140625 -1.171875 9.84375 3.03125 
Q 4.546875 7.234375 3.078125 15.484375 
" id="ArialMT-73"/>
      <path d="M 6.5 0 
L 6.5 51.859375 
L 14.40625 51.859375 
L 14.40625 44 
Q 17.4375 49.515625 20 51.265625 
Q 22.5625 53.03125 25.640625 53.03125 
Q 30.078125 53.03125 34.671875 50.203125 
L 31.640625 42.046875 
Q 28.421875 43.953125 25.203125 43.953125 
Q 22.3125 43.953125 20.015625 42.21875 
Q 17.71875 40.484375 16.75 37.40625 
Q 15.28125 32.71875 15.28125 27.15625 
L 15.28125 0 
z
" id="ArialMT-72"/>
     </defs>
     <g style="fill:#262626;" transform="translate(127.559921875 276.35296875)scale(0.11 -0.11)">
      <use xlink:href="#ArialMT-59"/>
      <use x="66.69921875" xlink:href="#ArialMT-53"/>
      <use x="133.3984375" xlink:href="#ArialMT-49"/>
      <use x="161.181640625" xlink:href="#ArialMT-20"/>
      <use x="188.96484375" xlink:href="#ArialMT-28"/>
      <use x="222.265625" xlink:href="#ArialMT-6d"/>
      <use x="305.56640625" xlink:href="#ArialMT-65"/>
      <use x="361.181640625" xlink:href="#ArialMT-61"/>
      <use x="416.796875" xlink:href="#ArialMT-73"/>
      <use x="466.796875" xlink:href="#ArialMT-75"/>
      <use x="522.412109375" xlink:href="#ArialMT-72"/>
      <use x="555.712890625" xlink:href="#ArialMT-65"/>
      <use x="611.328125" xlink:href="#ArialMT-64"/>
      <use x="666.943359375" xlink:href="#ArialMT-29"/>
     </g>
    </g>
   </g>
   <g id="matplotlib.axis_2">
    <g id="ytick_1">
     <g id="line2d_10">
      <defs>
       <path d="M 0 0 
L -6 0 
" id="m9622ce9863" style="stroke:#262626;"/>
      </defs>
      <g>
       <use style="fill:#262626;stroke:#262626;" x="57.596875" xlink:href="#m9622ce9863" y="227.640722656"/>
      </g>
     </g>
     <g id="text_10">
      <!-- −40 -->
      <g style="fill:#262626;" transform="translate(27.634375 230.225878906)scale(0.1 -0.1)">
       <use xlink:href="#ArialMT-2212"/>
       <use x="58.3984375" xlink:href="#ArialMT-34"/>
       <use x="114.013671875" xlink:href="#ArialMT-30"/>
      </g>
     </g>
    </g>
    <g id="ytick_2">
     <g id="line2d_11">
      <g>
       <use style="fill:#262626;stroke:#262626;" x="57.596875" xlink:href="#m9622ce9863" y="200.522167969"/>
      </g>
     </g>
     <g id="text_11">
      <!-- −20 -->
      <g style="fill:#262626;" transform="translate(27.634375 203.107324219)scale(0.1 -0.1)">
       <use xlink:href="#ArialMT-2212"/>
       <use x="58.3984375" xlink:href="#ArialMT-32"/>
       <use x="114.013671875" xlink:href="#ArialMT-30"/>
      </g>
     </g>
    </g>
    <g id="ytick_3">
     <g id="line2d_12">
      <g>
       <use style="fill:#262626;stroke:#262626;" x="57.596875" xlink:href="#m9622ce9863" y="173.403613281"/>
      </g>
     </g>
     <g id="text_12">
      <!-- 0 -->
      <g style="fill:#262626;" transform="translate(39.0359375 175.988769531)scale(0.1 -0.1)">
       <use xlink:href="#ArialMT-30"/>
      </g>
     </g>
    </g>
    <g id="ytick_4">
     <g id="line2d_13">
      <g>
       <use style="fill:#262626;stroke:#262626;" x="57.596875" xlink:href="#m9622ce9863" y="146.285058594"/>
      </g>
     </g>
     <g id="text_13">
      <!-- 20 -->
      <g style="fill:#262626;" transform="translate(33.475 148.870214844)scale(0.1 -0.1)">
       <use xlink:href="#ArialMT-32"/>
       <use x="55.615234375" xlink:href="#ArialMT-30"/>
      </g>
     </g>
    </g>
    <g id="ytick_5">
     <g id="line2d_14">
      <g>
       <use style="fill:#262626;stroke:#262626;" x="57.596875" xlink:href="#m9622ce9863" y="119.166503906"/>
      </g>
     </g>
     <g id="text_14">
      <!-- 40 -->
      <g style="fill:#262626;" transform="translate(33.475 121.751660156)scale(0.1 -0.1)">
       <use xlink:href="#ArialMT-34"/>
       <use x="55.615234375" xlink:href="#ArialMT-30"/>
      </g>
     </g>
    </g>
    <g id="ytick_6">
     <g id="line2d_15">
      <g>
       <use style="fill:#262626;stroke:#262626;" x="57.596875" xlink:href="#m9622ce9863" y="92.0479492187"/>
      </g>
     </g>
     <g id="text_15">
      <!-- 60 -->
      <g style="fill:#262626;" transform="translate(33.475 94.6331054687)scale(0.1 -0.1)">
       <use xlink:href="#ArialMT-36"/>
       <use x="55.615234375" xlink:href="#ArialMT-30"/>
      </g>
     </g>
    </g>
    <g id="ytick_7">
     <g id="line2d_16">
      <g>
       <use style="fill:#262626;stroke:#262626;" x="57.596875" xlink:href="#m9622ce9863" y="64.9293945312"/>
      </g>
     </g>
     <g id="text_16">
      <!-- 80 -->
      <g style="fill:#262626;" transform="translate(33.475 67.5145507812)scale(0.1 -0.1)">
       <use xlink:href="#ArialMT-38"/>
       <use x="55.615234375" xlink:href="#ArialMT-30"/>
      </g>
     </g>
    </g>
    <g id="ytick_8">
     <g id="line2d_17">
      <g>
       <use style="fill:#262626;stroke:#262626;" x="57.596875" xlink:href="#m9622ce9863" y="37.8108398437"/>
      </g>
     </g>
     <g id="text_17">
      <!-- 100 -->
      <g style="fill:#262626;" transform="translate(27.9140625 40.3959960938)scale(0.1 -0.1)">
       <use xlink:href="#ArialMT-31"/>
       <use x="55.615234375" xlink:href="#ArialMT-30"/>
       <use x="111.23046875" xlink:href="#ArialMT-30"/>
      </g>
     </g>
    </g>
    <g id="text_18">
     <!-- YSI (predicted) -->
     <defs>
      <path d="M 6.640625 61.46875 
L 6.640625 71.578125 
L 15.4375 71.578125 
L 15.4375 61.46875 
z
M 6.640625 0 
L 6.640625 51.859375 
L 15.4375 51.859375 
L 15.4375 0 
z
" id="ArialMT-69"/>
      <path d="M 40.4375 19 
L 49.078125 17.875 
Q 47.65625 8.9375 41.8125 3.875 
Q 35.984375 -1.171875 27.484375 -1.171875 
Q 16.84375 -1.171875 10.375 5.78125 
Q 3.90625 12.75 3.90625 25.734375 
Q 3.90625 34.125 6.6875 40.421875 
Q 9.46875 46.734375 15.15625 49.875 
Q 20.84375 53.03125 27.546875 53.03125 
Q 35.984375 53.03125 41.359375 48.75 
Q 46.734375 44.484375 48.25 36.625 
L 39.703125 35.296875 
Q 38.484375 40.53125 35.375 43.15625 
Q 32.28125 45.796875 27.875 45.796875 
Q 21.234375 45.796875 17.078125 41.03125 
Q 12.9375 36.28125 12.9375 25.984375 
Q 12.9375 15.53125 16.9375 10.796875 
Q 20.953125 6.0625 27.390625 6.0625 
Q 32.5625 6.0625 36.03125 9.234375 
Q 39.5 12.40625 40.4375 19 
" id="ArialMT-63"/>
      <path d="M 25.78125 7.859375 
L 27.046875 0.09375 
Q 23.34375 -0.6875 20.40625 -0.6875 
Q 15.625 -0.6875 12.984375 0.828125 
Q 10.359375 2.34375 9.28125 4.8125 
Q 8.203125 7.28125 8.203125 15.1875 
L 8.203125 45.015625 
L 1.765625 45.015625 
L 1.765625 51.859375 
L 8.203125 51.859375 
L 8.203125 64.703125 
L 16.9375 69.96875 
L 16.9375 51.859375 
L 25.78125 51.859375 
L 25.78125 45.015625 
L 16.9375 45.015625 
L 16.9375 14.703125 
Q 16.9375 10.9375 17.40625 9.859375 
Q 17.875 8.796875 18.921875 8.15625 
Q 19.96875 7.515625 21.921875 7.515625 
Q 23.390625 7.515625 25.78125 7.859375 
" id="ArialMT-74"/>
      <path d="M 6.59375 -19.875 
L 6.59375 51.859375 
L 14.59375 51.859375 
L 14.59375 45.125 
Q 17.4375 49.078125 21 51.046875 
Q 24.5625 53.03125 29.640625 53.03125 
Q 36.28125 53.03125 41.359375 49.609375 
Q 46.4375 46.1875 49.015625 39.953125 
Q 51.609375 33.734375 51.609375 26.3125 
Q 51.609375 18.359375 48.75 11.984375 
Q 45.90625 5.609375 40.453125 2.21875 
Q 35.015625 -1.171875 29 -1.171875 
Q 24.609375 -1.171875 21.109375 0.6875 
Q 17.625 2.546875 15.375 5.375 
L 15.375 -19.875 
z
M 14.546875 25.640625 
Q 14.546875 15.625 18.59375 10.84375 
Q 22.65625 6.0625 28.421875 6.0625 
Q 34.28125 6.0625 38.453125 11.015625 
Q 42.625 15.96875 42.625 26.375 
Q 42.625 36.28125 38.546875 41.203125 
Q 34.46875 46.140625 28.8125 46.140625 
Q 23.1875 46.140625 18.859375 40.890625 
Q 14.546875 35.640625 14.546875 25.640625 
" id="ArialMT-70"/>
     </defs>
     <g style="fill:#262626;" transform="translate(20.31921875 169.405625)rotate(-90.0)scale(0.11 -0.11)">
      <use xlink:href="#ArialMT-59"/>
      <use x="66.69921875" xlink:href="#ArialMT-53"/>
      <use x="133.3984375" xlink:href="#ArialMT-49"/>
      <use x="161.181640625" xlink:href="#ArialMT-20"/>
      <use x="188.96484375" xlink:href="#ArialMT-28"/>
      <use x="222.265625" xlink:href="#ArialMT-70"/>
      <use x="277.880859375" xlink:href="#ArialMT-72"/>
      <use x="311.181640625" xlink:href="#ArialMT-65"/>
      <use x="366.796875" xlink:href="#ArialMT-64"/>
      <use x="422.412109375" xlink:href="#ArialMT-69"/>
      <use x="444.62890625" xlink:href="#ArialMT-63"/>
      <use x="494.62890625" xlink:href="#ArialMT-74"/>
      <use x="522.412109375" xlink:href="#ArialMT-65"/>
      <use x="578.02734375" xlink:href="#ArialMT-64"/>
      <use x="633.642578125" xlink:href="#ArialMT-29"/>
     </g>
    </g>
   </g>
   <g id="line2d_18">
    <defs>
     <path d="M 0 1.75 
C 0.464105 1.75 0.909265 1.565609 1.237437 1.237437 
C 1.565609 0.909265 1.75 0.464105 1.75 0 
C 1.75 -0.464105 1.565609 -0.909265 1.237437 -1.237437 
C 0.909265 -1.565609 0.464105 -1.75 0 -1.75 
C -0.464105 -1.75 -0.909265 -1.565609 -1.237437 -1.237437 
C -1.565609 -0.909265 -1.75 -0.464105 -1.75 0 
C -1.75 0.464105 -1.565609 0.909265 -1.237437 1.237437 
C -0.909265 1.565609 -0.464105 1.75 0 1.75 
z
" id="m01ef3b62ab"/>
    </defs>
    <g clip-path="url(#pf6a9b7ba86)">
     <use style="fill:#4c72b0;" x="113.325504883" xlink:href="#m01ef3b62ab" y="188.346506505"/>
     <use style="fill:#4c72b0;" x="125.393261719" xlink:href="#m01ef3b62ab" y="174.747189519"/>
     <use style="fill:#4c72b0;" x="138.681353516" xlink:href="#m01ef3b62ab" y="160.760306388"/>
     <use style="fill:#4c72b0;" x="141.935580078" xlink:href="#m01ef3b62ab" y="159.072745484"/>
     <use style="fill:#4c72b0;" x="152.783001953" xlink:href="#m01ef3b62ab" y="145.696984215"/>
     <use style="fill:#4c72b0;" x="137.189833008" xlink:href="#m01ef3b62ab" y="157.611065638"/>
     <use style="fill:#4c72b0;" x="161.32534668" xlink:href="#m01ef3b62ab" y="135.421806424"/>
     <use style="fill:#4c72b0;" x="165.528722656" xlink:href="#m01ef3b62ab" y="133.61109586"/>
     <use style="fill:#4c72b0;" x="165.935500977" xlink:href="#m01ef3b62ab" y="133.777204042"/>
     <use style="fill:#4c72b0;" x="177.867665039" xlink:href="#m01ef3b62ab" y="125.231764636"/>
     <use style="fill:#4c72b0;" x="151.020295898" xlink:href="#m01ef3b62ab" y="146.957464659"/>
     <use style="fill:#4c72b0;" x="164.037202148" xlink:href="#m01ef3b62ab" y="131.494739827"/>
     <use style="fill:#4c72b0;" x="162.681274414" xlink:href="#m01ef3b62ab" y="135.82534834"/>
     <use style="fill:#4c72b0;" x="172.579546875" xlink:href="#m01ef3b62ab" y="122.857153156"/>
     <use style="fill:#4c72b0;" x="179.49477832" xlink:href="#m01ef3b62ab" y="122.254582976"/>
     <use style="fill:#4c72b0;" x="179.49477832" xlink:href="#m01ef3b62ab" y="117.481752938"/>
     <use style="fill:#4c72b0;" x="177.596479492" xlink:href="#m01ef3b62ab" y="121.835402146"/>
     <use style="fill:#4c72b0;" x="189.528643555" xlink:href="#m01ef3b62ab" y="107.897025317"/>
     <use style="fill:#4c72b0;" x="166.884650391" xlink:href="#m01ef3b62ab" y="130.89483346"/>
     <use style="fill:#4c72b0;" x="188.17271582" xlink:href="#m01ef3b62ab" y="95.2850259934"/>
     <use style="fill:#4c72b0;" x="197.664209961" xlink:href="#m01ef3b62ab" y="106.399480969"/>
     <use style="fill:#4c72b0;" x="270.341936523" xlink:href="#m01ef3b62ab" y="52.6681755085"/>
     <use style="fill:#4c72b0;" x="174.206660156" xlink:href="#m01ef3b62ab" y="123.888855968"/>
     <use style="fill:#4c72b0;" x="184.782896484" xlink:href="#m01ef3b62ab" y="103.516075897"/>
     <use style="fill:#4c72b0;" x="182.884597656" xlink:href="#m01ef3b62ab" y="98.4736317032"/>
     <use style="fill:#4c72b0;" x="189.257458008" xlink:href="#m01ef3b62ab" y="106.860687987"/>
     <use style="fill:#4c72b0;" x="204.308255859" xlink:href="#m01ef3b62ab" y="98.6273053062"/>
     <use style="fill:#4c72b0;" x="198.748952148" xlink:href="#m01ef3b62ab" y="94.6175053104"/>
     <use style="fill:#4c72b0;" x="203.630291992" xlink:href="#m01ef3b62ab" y="91.9916522314"/>
     <use style="fill:#4c72b0;" x="203.630291992" xlink:href="#m01ef3b62ab" y="101.956343137"/>
     <use style="fill:#4c72b0;" x="207.155704102" xlink:href="#m01ef3b62ab" y="101.600023139"/>
     <use style="fill:#4c72b0;" x="218.681089844" xlink:href="#m01ef3b62ab" y="70.1748523652"/>
     <use style="fill:#4c72b0;" x="235.765779297" xlink:href="#m01ef3b62ab" y="62.8726924083"/>
     <use style="fill:#4c72b0;" x="145.325399414" xlink:href="#m01ef3b62ab" y="149.873096705"/>
     <use style="fill:#4c72b0;" x="153.0541875" xlink:href="#m01ef3b62ab" y="134.412270163"/>
     <use style="fill:#4c72b0;" x="150.749110352" xlink:href="#m01ef3b62ab" y="147.95015941"/>
     <use style="fill:#4c72b0;" x="155.630450195" xlink:href="#m01ef3b62ab" y="136.779071238"/>
     <use style="fill:#4c72b0;" x="157.79993457" xlink:href="#m01ef3b62ab" y="136.976783112"/>
     <use style="fill:#4c72b0;" x="160.782975586" xlink:href="#m01ef3b62ab" y="143.99303827"/>
     <use style="fill:#4c72b0;" x="156.444006836" xlink:href="#m01ef3b62ab" y="130.57545254"/>
     <use style="fill:#4c72b0;" x="167.155835938" xlink:href="#m01ef3b62ab" y="135.842391575"/>
     <use style="fill:#4c72b0;" x="174.477845703" xlink:href="#m01ef3b62ab" y="137.854274386"/>
     <use style="fill:#4c72b0;" x="175.291402344" xlink:href="#m01ef3b62ab" y="121.617843566"/>
     <use style="fill:#4c72b0;" x="157.39315625" xlink:href="#m01ef3b62ab" y="144.803530749"/>
     <use style="fill:#4c72b0;" x="192.782870117" xlink:href="#m01ef3b62ab" y="101.279056862"/>
     <use style="fill:#4c72b0;" x="173.257510742" xlink:href="#m01ef3b62ab" y="107.215125212"/>
     <use style="fill:#4c72b0;" x="163.223645508" xlink:href="#m01ef3b62ab" y="137.980151222"/>
     <use style="fill:#4c72b0;" x="164.850758789" xlink:href="#m01ef3b62ab" y="121.936983967"/>
     <use style="fill:#4c72b0;" x="187.35915918" xlink:href="#m01ef3b62ab" y="103.696635915"/>
     <use style="fill:#4c72b0;" x="190.613385742" xlink:href="#m01ef3b62ab" y="112.158739331"/>
     <use style="fill:#4c72b0;" x="214.748899414" xlink:href="#m01ef3b62ab" y="98.9591802883"/>
     <use style="fill:#4c72b0;" x="179.359185547" xlink:href="#m01ef3b62ab" y="124.744090172"/>
     <use style="fill:#4c72b0;" x="180.715113281" xlink:href="#m01ef3b62ab" y="113.310241346"/>
     <use style="fill:#4c72b0;" x="185.189674805" xlink:href="#m01ef3b62ab" y="107.916737538"/>
     <use style="fill:#4c72b0;" x="197.257431641" xlink:href="#m01ef3b62ab" y="96.9707752456"/>
     <use style="fill:#4c72b0;" x="244.57930957" xlink:href="#m01ef3b62ab" y="67.4989764852"/>
     <use style="fill:#4c72b0;" x="205.664183594" xlink:href="#m01ef3b62ab" y="71.6523844889"/>
     <use style="fill:#4c72b0;" x="249.325056641" xlink:href="#m01ef3b62ab" y="71.3633994939"/>
     <use style="fill:#4c72b0;" x="196.986246094" xlink:href="#m01ef3b62ab" y="112.338321755"/>
     <use style="fill:#4c72b0;" x="218.952275391" xlink:href="#m01ef3b62ab" y="96.843491502"/>
     <use style="fill:#4c72b0;" x="264.647040039" xlink:href="#m01ef3b62ab" y="31.8161934535"/>
     <use style="fill:#4c72b0;" x="160.918568359" xlink:href="#m01ef3b62ab" y="105.514965504"/>
     <use style="fill:#4c72b0;" x="176.511737305" xlink:href="#m01ef3b62ab" y="130.98069878"/>
     <use style="fill:#4c72b0;" x="204.037070313" xlink:href="#m01ef3b62ab" y="102.613984433"/>
     <use style="fill:#4c72b0;" x="83.2239091797" xlink:href="#m01ef3b62ab" y="212.20099714"/>
     <use style="fill:#4c72b0;" x="95.5628515625" xlink:href="#m01ef3b62ab" y="198.510031708"/>
     <use style="fill:#4c72b0;" x="101.935711914" xlink:href="#m01ef3b62ab" y="193.696790581"/>
     <use style="fill:#4c72b0;" x="107.766201172" xlink:href="#m01ef3b62ab" y="191.783908536"/>
     <use style="fill:#4c72b0;" x="113.732283203" xlink:href="#m01ef3b62ab" y="183.984972537"/>
     <use style="fill:#4c72b0;" x="114.41024707" xlink:href="#m01ef3b62ab" y="189.771445118"/>
     <use style="fill:#4c72b0;" x="114.817025391" xlink:href="#m01ef3b62ab" y="182.813830715"/>
     <use style="fill:#4c72b0;" x="116.579731445" xlink:href="#m01ef3b62ab" y="183.058322909"/>
     <use style="fill:#4c72b0;" x="119.291586914" xlink:href="#m01ef3b62ab" y="179.508964407"/>
     <use style="fill:#4c72b0;" x="114.952618164" xlink:href="#m01ef3b62ab" y="179.746647712"/>
     <use style="fill:#4c72b0;" x="122.68140625" xlink:href="#m01ef3b62ab" y="177.96958396"/>
     <use style="fill:#4c72b0;" x="130.681379883" xlink:href="#m01ef3b62ab" y="169.724521556"/>
     <use style="fill:#4c72b0;" x="128.647488281" xlink:href="#m01ef3b62ab" y="167.034969385"/>
     <use style="fill:#4c72b0;" x="124.579705078" xlink:href="#m01ef3b62ab" y="166.907254388"/>
     <use style="fill:#4c72b0;" x="133.257642578" xlink:href="#m01ef3b62ab" y="165.616160776"/>
     <use style="fill:#4c72b0;" x="132.850864258" xlink:href="#m01ef3b62ab" y="164.031992051"/>
     <use style="fill:#4c72b0;" x="136.783054688" xlink:href="#m01ef3b62ab" y="162.049674987"/>
     <use style="fill:#4c72b0;" x="137.867796875" xlink:href="#m01ef3b62ab" y="157.076548139"/>
     <use style="fill:#4c72b0;" x="140.850837891" xlink:href="#m01ef3b62ab" y="152.505742509"/>
     <use style="fill:#4c72b0;" x="136.376276367" xlink:href="#m01ef3b62ab" y="168.299019468"/>
     <use style="fill:#4c72b0;" x="149.935553711" xlink:href="#m01ef3b62ab" y="154.552531624"/>
     <use style="fill:#4c72b0;" x="149.257589844" xlink:href="#m01ef3b62ab" y="159.140918425"/>
     <use style="fill:#4c72b0;" x="146.952512695" xlink:href="#m01ef3b62ab" y="156.133961535"/>
     <use style="fill:#4c72b0;" x="147.494883789" xlink:href="#m01ef3b62ab" y="149.77946236"/>
     <use style="fill:#4c72b0;" x="146.410141602" xlink:href="#m01ef3b62ab" y="148.817246293"/>
     <use style="fill:#4c72b0;" x="150.477924805" xlink:href="#m01ef3b62ab" y="142.965351869"/>
     <use style="fill:#4c72b0;" x="134.477977539" xlink:href="#m01ef3b62ab" y="161.621547104"/>
     <use style="fill:#4c72b0;" x="142.477951172" xlink:href="#m01ef3b62ab" y="156.932012969"/>
     <use style="fill:#4c72b0;" x="142.477951172" xlink:href="#m01ef3b62ab" y="154.321514319"/>
     <use style="fill:#4c72b0;" x="149.528775391" xlink:href="#m01ef3b62ab" y="147.265499802"/>
     <use style="fill:#4c72b0;" x="146.681327148" xlink:href="#m01ef3b62ab" y="152.159131206"/>
     <use style="fill:#4c72b0;" x="158.206712891" xlink:href="#m01ef3b62ab" y="145.382010226"/>
     <use style="fill:#4c72b0;" x="149.664368164" xlink:href="#m01ef3b62ab" y="135.527412413"/>
     <use style="fill:#4c72b0;" x="148.037254883" xlink:href="#m01ef3b62ab" y="157.933542271"/>
     <use style="fill:#4c72b0;" x="158.477898438" xlink:href="#m01ef3b62ab" y="145.048477473"/>
     <use style="fill:#4c72b0;" x="153.325373047" xlink:href="#m01ef3b62ab" y="143.32814778"/>
     <use style="fill:#4c72b0;" x="153.596558594" xlink:href="#m01ef3b62ab" y="135.712257809"/>
     <use style="fill:#4c72b0;" x="167.562614258" xlink:href="#m01ef3b62ab" y="135.914743859"/>
     <use style="fill:#4c72b0;" x="167.698207031" xlink:href="#m01ef3b62ab" y="142.340485827"/>
     <use style="fill:#4c72b0;" x="99.3594492188" xlink:href="#m01ef3b62ab" y="198.744486109"/>
     <use style="fill:#4c72b0;" x="96.7831865234" xlink:href="#m01ef3b62ab" y="199.159707425"/>
     <use style="fill:#4c72b0;" x="121.596664063" xlink:href="#m01ef3b62ab" y="187.875003718"/>
     <use style="fill:#4c72b0;" x="127.698338867" xlink:href="#m01ef3b62ab" y="161.095355963"/>
     <use style="fill:#4c72b0;" x="120.376329102" xlink:href="#m01ef3b62ab" y="179.725113494"/>
     <use style="fill:#4c72b0;" x="142.884729492" xlink:href="#m01ef3b62ab" y="147.851324163"/>
     <use style="fill:#4c72b0;" x="141.257616211" xlink:href="#m01ef3b62ab" y="161.226799653"/>
     <use style="fill:#4c72b0;" x="192.647277344" xlink:href="#m01ef3b62ab" y="143.195756239"/>
     <use style="fill:#4c72b0;" x="142.884729492" xlink:href="#m01ef3b62ab" y="146.456196987"/>
     <use style="fill:#4c72b0;" x="175.020216797" xlink:href="#m01ef3b62ab" y="122.910755295"/>
     <use style="fill:#4c72b0;" x="195.359132813" xlink:href="#m01ef3b62ab" y="105.67130292"/>
     <use style="fill:#4c72b0;" x="97.5967431641" xlink:href="#m01ef3b62ab" y="200.384862596"/>
     <use style="fill:#4c72b0;" x="105.867902344" xlink:href="#m01ef3b62ab" y="191.224858089"/>
     <use style="fill:#4c72b0;" x="105.867902344" xlink:href="#m01ef3b62ab" y="193.698200075"/>
     <use style="fill:#4c72b0;" x="117.393288086" xlink:href="#m01ef3b62ab" y="183.213376911"/>
     <use style="fill:#4c72b0;" x="115.359396484" xlink:href="#m01ef3b62ab" y="176.845133233"/>
     <use style="fill:#4c72b0;" x="115.088210938" xlink:href="#m01ef3b62ab" y="187.686864762"/>
     <use style="fill:#4c72b0;" x="126.071225586" xlink:href="#m01ef3b62ab" y="175.387511662"/>
     <use style="fill:#4c72b0;" x="122.545813477" xlink:href="#m01ef3b62ab" y="171.293771792"/>
     <use style="fill:#4c72b0;" x="130.410194336" xlink:href="#m01ef3b62ab" y="170.783181095"/>
     <use style="fill:#4c72b0;" x="125.393261719" xlink:href="#m01ef3b62ab" y="163.105557727"/>
     <use style="fill:#4c72b0;" x="126.071225586" xlink:href="#m01ef3b62ab" y="173.288909461"/>
     <use style="fill:#4c72b0;" x="121.461071289" xlink:href="#m01ef3b62ab" y="174.400780669"/>
     <use style="fill:#4c72b0;" x="136.918647461" xlink:href="#m01ef3b62ab" y="164.924509949"/>
     <use style="fill:#4c72b0;" x="151.020295898" xlink:href="#m01ef3b62ab" y="153.185002076"/>
     <use style="fill:#4c72b0;" x="151.427074219" xlink:href="#m01ef3b62ab" y="143.541795985"/>
     <use style="fill:#4c72b0;" x="141.257616211" xlink:href="#m01ef3b62ab" y="153.924343573"/>
     <use style="fill:#4c72b0;" x="137.325425781" xlink:href="#m01ef3b62ab" y="163.621554608"/>
     <use style="fill:#4c72b0;" x="152.918594727" xlink:href="#m01ef3b62ab" y="155.002201483"/>
     <use style="fill:#4c72b0;" x="151.969445313" xlink:href="#m01ef3b62ab" y="147.113220175"/>
     <use style="fill:#4c72b0;" x="149.393182617" xlink:href="#m01ef3b62ab" y="139.738545002"/>
     <use style="fill:#4c72b0;" x="178.816814453" xlink:href="#m01ef3b62ab" y="128.861642726"/>
     <use style="fill:#4c72b0;" x="199.969287109" xlink:href="#m01ef3b62ab" y="89.8438476793"/>
     <use style="fill:#4c72b0;" x="170.681248047" xlink:href="#m01ef3b62ab" y="126.078940158"/>
     <use style="fill:#4c72b0;" x="167.020243164" xlink:href="#m01ef3b62ab" y="128.46751209"/>
     <use style="fill:#4c72b0;" x="90.8171044922" xlink:href="#m01ef3b62ab" y="218.488417347"/>
     <use style="fill:#4c72b0;" x="106.003495117" xlink:href="#m01ef3b62ab" y="191.896303372"/>
     <use style="fill:#4c72b0;" x="105.867902344" xlink:href="#m01ef3b62ab" y="187.071023358"/>
     <use style="fill:#4c72b0;" x="109.25772168" xlink:href="#m01ef3b62ab" y="186.992050333"/>
     <use style="fill:#4c72b0;" x="120.240736328" xlink:href="#m01ef3b62ab" y="186.413089819"/>
     <use style="fill:#4c72b0;" x="125.935632813" xlink:href="#m01ef3b62ab" y="176.96872837"/>
     <use style="fill:#4c72b0;" x="117.664473633" xlink:href="#m01ef3b62ab" y="172.617290628"/>
     <use style="fill:#4c72b0;" x="119.562772461" xlink:href="#m01ef3b62ab" y="176.0814395"/>
     <use style="fill:#4c72b0;" x="142.206765625" xlink:href="#m01ef3b62ab" y="161.865911927"/>
     <use style="fill:#4c72b0;" x="132.579678711" xlink:href="#m01ef3b62ab" y="164.923685589"/>
     <use style="fill:#4c72b0;" x="153.46096582" xlink:href="#m01ef3b62ab" y="138.63585802"/>
     <use style="fill:#4c72b0;" x="192.51168457" xlink:href="#m01ef3b62ab" y="119.504301348"/>
     <use style="fill:#4c72b0;" x="172.579546875" xlink:href="#m01ef3b62ab" y="127.040214838"/>
     <use style="fill:#4c72b0;" x="162.816867188" xlink:href="#m01ef3b62ab" y="107.348879696"/>
     <use style="fill:#4c72b0;" x="101.122155273" xlink:href="#m01ef3b62ab" y="197.512138641"/>
     <use style="fill:#4c72b0;" x="107.901793945" xlink:href="#m01ef3b62ab" y="154.691903392"/>
     <use style="fill:#4c72b0;" x="80.7832392578" xlink:href="#m01ef3b62ab" y="208.836900417"/>
     <use style="fill:#4c72b0;" x="86.0713574219" xlink:href="#m01ef3b62ab" y="218.331800618"/>
     <use style="fill:#4c72b0;" x="104.105196289" xlink:href="#m01ef3b62ab" y="194.066858962"/>
     <use style="fill:#4c72b0;" x="104.240789062" xlink:href="#m01ef3b62ab" y="191.017679331"/>
     <use style="fill:#4c72b0;" x="92.9865888672" xlink:href="#m01ef3b62ab" y="200.799892532"/>
     <use style="fill:#4c72b0;" x="99.6306347656" xlink:href="#m01ef3b62ab" y="204.587662361"/>
     <use style="fill:#4c72b0;" x="126.749189453" xlink:href="#m01ef3b62ab" y="185.76138262"/>
     <use style="fill:#4c72b0;" x="125.393261719" xlink:href="#m01ef3b62ab" y="158.478071054"/>
     <use style="fill:#4c72b0;" x="124.579705078" xlink:href="#m01ef3b62ab" y="176.935555808"/>
     <use style="fill:#4c72b0;" x="112.783133789" xlink:href="#m01ef3b62ab" y="192.025268163"/>
     <use style="fill:#4c72b0;" x="111.291613281" xlink:href="#m01ef3b62ab" y="189.458064245"/>
     <use style="fill:#4c72b0;" x="100.715376953" xlink:href="#m01ef3b62ab" y="195.059833025"/>
     <use style="fill:#4c72b0;" x="136.647461914" xlink:href="#m01ef3b62ab" y="167.901442685"/>
     <use style="fill:#4c72b0;" x="141.799987305" xlink:href="#m01ef3b62ab" y="157.373700439"/>
     <use style="fill:#4c72b0;" x="134.884755859" xlink:href="#m01ef3b62ab" y="173.940774146"/>
     <use style="fill:#4c72b0;" x="130.274601563" xlink:href="#m01ef3b62ab" y="160.911388592"/>
     <use style="fill:#4c72b0;" x="128.647488281" xlink:href="#m01ef3b62ab" y="180.294259278"/>
     <use style="fill:#4c72b0;" x="116.444138672" xlink:href="#m01ef3b62ab" y="179.334640429"/>
     <use style="fill:#4c72b0;" x="108.308572266" xlink:href="#m01ef3b62ab" y="181.15129091"/>
     <use style="fill:#4c72b0;" x="113.867875977" xlink:href="#m01ef3b62ab" y="182.648662627"/>
     <use style="fill:#4c72b0;" x="126.342411133" xlink:href="#m01ef3b62ab" y="170.461050208"/>
     <use style="fill:#4c72b0;" x="115.901767578" xlink:href="#m01ef3b62ab" y="180.983479697"/>
     <use style="fill:#4c72b0;" x="124.579705078" xlink:href="#m01ef3b62ab" y="172.609517804"/>
     <use style="fill:#4c72b0;" x="146.545734375" xlink:href="#m01ef3b62ab" y="162.976577418"/>
     <use style="fill:#4c72b0;" x="153.325373047" xlink:href="#m01ef3b62ab" y="149.490024775"/>
     <use style="fill:#4c72b0;" x="148.037254883" xlink:href="#m01ef3b62ab" y="152.026694405"/>
     <use style="fill:#4c72b0;" x="137.867796875" xlink:href="#m01ef3b62ab" y="166.238551799"/>
     <use style="fill:#4c72b0;" x="121.325478516" xlink:href="#m01ef3b62ab" y="172.643038376"/>
     <use style="fill:#4c72b0;" x="138.545760742" xlink:href="#m01ef3b62ab" y="167.55001712"/>
     <use style="fill:#4c72b0;" x="123.223777344" xlink:href="#m01ef3b62ab" y="166.879905685"/>
     <use style="fill:#4c72b0;" x="117.664473633" xlink:href="#m01ef3b62ab" y="171.046302043"/>
     <use style="fill:#4c72b0;" x="129.867823242" xlink:href="#m01ef3b62ab" y="159.655159905"/>
     <use style="fill:#4c72b0;" x="143.427100586" xlink:href="#m01ef3b62ab" y="152.465035297"/>
     <use style="fill:#4c72b0;" x="102.342490234" xlink:href="#m01ef3b62ab" y="199.271422083"/>
     <use style="fill:#4c72b0;" x="132.172900391" xlink:href="#m01ef3b62ab" y="172.790055314"/>
     <use style="fill:#4c72b0;" x="131.494936523" xlink:href="#m01ef3b62ab" y="160.081222684"/>
     <use style="fill:#4c72b0;" x="141.393208984" xlink:href="#m01ef3b62ab" y="170.908687616"/>
     <use style="fill:#4c72b0;" x="138.138982422" xlink:href="#m01ef3b62ab" y="154.539318591"/>
     <use style="fill:#4c72b0;" x="125.257668945" xlink:href="#m01ef3b62ab" y="171.820139443"/>
     <use style="fill:#4c72b0;" x="124.579705078" xlink:href="#m01ef3b62ab" y="160.851110108"/>
     <use style="fill:#4c72b0;" x="137.054240234" xlink:href="#m01ef3b62ab" y="158.599603029"/>
     <use style="fill:#4c72b0;" x="156.715192383" xlink:href="#m01ef3b62ab" y="158.899623454"/>
     <use style="fill:#4c72b0;" x="143.96947168" xlink:href="#m01ef3b62ab" y="159.717984529"/>
     <use style="fill:#4c72b0;" x="149.799960938" xlink:href="#m01ef3b62ab" y="155.243828784"/>
     <use style="fill:#4c72b0;" x="132.986457031" xlink:href="#m01ef3b62ab" y="158.840930328"/>
     <use style="fill:#4c72b0;" x="144.647435547" xlink:href="#m01ef3b62ab" y="152.237513278"/>
     <use style="fill:#4c72b0;" x="139.63050293" xlink:href="#m01ef3b62ab" y="159.21914791"/>
     <use style="fill:#4c72b0;" x="78.7493476562" xlink:href="#m01ef3b62ab" y="230.661032236"/>
     <use style="fill:#4c72b0;" x="84.3086513672" xlink:href="#m01ef3b62ab" y="219.900781725"/>
     <use style="fill:#4c72b0;" x="91.3594755859" xlink:href="#m01ef3b62ab" y="205.810720102"/>
     <use style="fill:#4c72b0;" x="95.9696298828" xlink:href="#m01ef3b62ab" y="199.793829574"/>
     <use style="fill:#4c72b0;" x="99.2238564453" xlink:href="#m01ef3b62ab" y="202.633522239"/>
     <use style="fill:#4c72b0;" x="94.478109375" xlink:href="#m01ef3b62ab" y="200.353013211"/>
     <use style="fill:#4c72b0;" x="88.5120273438" xlink:href="#m01ef3b62ab" y="211.687672478"/>
     <use style="fill:#4c72b0;" x="81.5967958984" xlink:href="#m01ef3b62ab" y="202.734426468"/>
     <use style="fill:#4c72b0;" x="95.9696298828" xlink:href="#m01ef3b62ab" y="199.327641483"/>
     <use style="fill:#4c72b0;" x="103.156046875" xlink:href="#m01ef3b62ab" y="195.203946641"/>
     <use style="fill:#4c72b0;" x="100.444191406" xlink:href="#m01ef3b62ab" y="199.848779137"/>
     <use style="fill:#4c72b0;" x="88.1052490234" xlink:href="#m01ef3b62ab" y="205.932652942"/>
     <use style="fill:#4c72b0;" x="93.6645527344" xlink:href="#m01ef3b62ab" y="194.476667306"/>
     <use style="fill:#4c72b0;" x="92.5798105469" xlink:href="#m01ef3b62ab" y="207.09971887"/>
     <use style="fill:#4c72b0;" x="92.7154033203" xlink:href="#m01ef3b62ab" y="215.251231951"/>
     <use style="fill:#4c72b0;" x="114.817025391" xlink:href="#m01ef3b62ab" y="185.48303607"/>
     <use style="fill:#4c72b0;" x="95.4272587891" xlink:href="#m01ef3b62ab" y="196.093963011"/>
     <use style="fill:#4c72b0;" x="108.715350586" xlink:href="#m01ef3b62ab" y="189.523860443"/>
     <use style="fill:#4c72b0;" x="131.35934375" xlink:href="#m01ef3b62ab" y="174.758595831"/>
     <use style="fill:#4c72b0;" x="115.766174805" xlink:href="#m01ef3b62ab" y="176.607341306"/>
     <use style="fill:#4c72b0;" x="104.376381836" xlink:href="#m01ef3b62ab" y="192.07676382"/>
     <use style="fill:#4c72b0;" x="128.105117188" xlink:href="#m01ef3b62ab" y="163.884744575"/>
     <use style="fill:#4c72b0;" x="154.003336914" xlink:href="#m01ef3b62ab" y="152.331513575"/>
     <use style="fill:#4c72b0;" x="119.020401367" xlink:href="#m01ef3b62ab" y="176.730009282"/>
     <use style="fill:#4c72b0;" x="134.071199219" xlink:href="#m01ef3b62ab" y="178.842963779"/>
    </g>
   </g>
   <g id="patch_3">
    <path d="M 57.596875 241.2 
L 57.596875 24.251562 
" style="fill:none;stroke:#262626;stroke-linecap:square;stroke-linejoin:miter;stroke-width:1.25;"/>
   </g>
   <g id="patch_4">
    <path d="M 57.596875 241.2 
L 274.545313 241.2 
" style="fill:none;stroke:#262626;stroke-linecap:square;stroke-linejoin:miter;stroke-width:1.25;"/>
   </g>
   <g id="text_19">
    <!-- MAE (CV): 4.31 -->
    <defs>
     <path d="M 7.90625 0 
L 7.90625 71.578125 
L 59.671875 71.578125 
L 59.671875 63.140625 
L 17.390625 63.140625 
L 17.390625 41.21875 
L 56.984375 41.21875 
L 56.984375 32.8125 
L 17.390625 32.8125 
L 17.390625 8.453125 
L 61.328125 8.453125 
L 61.328125 0 
z
" id="ArialMT-45"/>
     <path d="M 7.421875 0 
L 7.421875 71.578125 
L 21.6875 71.578125 
L 38.625 20.90625 
Q 40.96875 13.8125 42.046875 10.296875 
Q 43.265625 14.203125 45.84375 21.78125 
L 62.984375 71.578125 
L 75.734375 71.578125 
L 75.734375 0 
L 66.609375 0 
L 66.609375 59.90625 
L 45.796875 0 
L 37.25 0 
L 16.546875 60.9375 
L 16.546875 0 
z
" id="ArialMT-4d"/>
     <path d="M 4.203125 18.890625 
L 12.984375 20.0625 
Q 14.5 12.59375 18.140625 9.296875 
Q 21.78125 6 27 6 
Q 33.203125 6 37.46875 10.296875 
Q 41.75 14.59375 41.75 20.953125 
Q 41.75 27 37.796875 30.921875 
Q 33.84375 34.859375 27.734375 34.859375 
Q 25.25 34.859375 21.53125 33.890625 
L 22.515625 41.609375 
Q 23.390625 41.5 23.921875 41.5 
Q 29.546875 41.5 34.03125 44.421875 
Q 38.53125 47.359375 38.53125 53.46875 
Q 38.53125 58.296875 35.25 61.46875 
Q 31.984375 64.65625 26.8125 64.65625 
Q 21.6875 64.65625 18.265625 61.421875 
Q 14.84375 58.203125 13.875 51.765625 
L 5.078125 53.328125 
Q 6.6875 62.15625 12.390625 67.015625 
Q 18.109375 71.875 26.609375 71.875 
Q 32.46875 71.875 37.390625 69.359375 
Q 42.328125 66.84375 44.9375 62.5 
Q 47.5625 58.15625 47.5625 53.265625 
Q 47.5625 48.640625 45.0625 44.828125 
Q 42.578125 41.015625 37.703125 38.765625 
Q 44.046875 37.3125 47.5625 32.6875 
Q 51.078125 28.078125 51.078125 21.140625 
Q 51.078125 11.765625 44.234375 5.25 
Q 37.40625 -1.265625 26.953125 -1.265625 
Q 17.53125 -1.265625 11.296875 4.34375 
Q 5.078125 9.96875 4.203125 18.890625 
" id="ArialMT-33"/>
     <path d="M 58.796875 25.09375 
L 68.265625 22.703125 
Q 65.28125 11.03125 57.546875 4.90625 
Q 49.8125 -1.21875 38.625 -1.21875 
Q 27.046875 -1.21875 19.796875 3.484375 
Q 12.546875 8.203125 8.765625 17.140625 
Q 4.984375 26.078125 4.984375 36.328125 
Q 4.984375 47.515625 9.25 55.828125 
Q 13.53125 64.15625 21.40625 68.46875 
Q 29.296875 72.796875 38.765625 72.796875 
Q 49.515625 72.796875 56.828125 67.328125 
Q 64.15625 61.859375 67.046875 51.953125 
L 57.71875 49.75 
Q 55.21875 57.5625 50.484375 61.125 
Q 45.75 64.703125 38.578125 64.703125 
Q 30.328125 64.703125 24.78125 60.734375 
Q 19.234375 56.78125 16.984375 50.109375 
Q 14.75 43.453125 14.75 36.375 
Q 14.75 27.25 17.40625 20.4375 
Q 20.0625 13.625 25.671875 10.25 
Q 31.296875 6.890625 37.84375 6.890625 
Q 45.796875 6.890625 51.3125 11.46875 
Q 56.84375 16.0625 58.796875 25.09375 
" id="ArialMT-43"/>
     <path d="M -0.140625 0 
L 27.34375 71.578125 
L 37.546875 71.578125 
L 66.84375 0 
L 56.0625 0 
L 47.703125 21.6875 
L 17.78125 21.6875 
L 9.90625 0 
z
M 20.515625 29.390625 
L 44.78125 29.390625 
L 37.3125 49.21875 
Q 33.890625 58.25 32.234375 64.0625 
Q 30.859375 57.171875 28.375 50.390625 
z
" id="ArialMT-41"/>
     <path d="M 9.078125 0 
L 9.078125 10.015625 
L 19.09375 10.015625 
L 19.09375 0 
z
" id="ArialMT-2e"/>
     <path d="M 9.03125 41.84375 
L 9.03125 51.859375 
L 19.046875 51.859375 
L 19.046875 41.84375 
z
M 9.03125 0 
L 9.03125 10.015625 
L 19.046875 10.015625 
L 19.046875 0 
z
" id="ArialMT-3a"/>
     <path d="M 28.171875 0 
L 0.4375 71.578125 
L 10.6875 71.578125 
L 29.296875 19.578125 
Q 31.546875 13.328125 33.0625 7.859375 
Q 34.71875 13.71875 36.921875 19.578125 
L 56.25 71.578125 
L 65.921875 71.578125 
L 37.890625 0 
z
" id="ArialMT-56"/>
    </defs>
    <g style="fill:#262626;" transform="translate(68.444296875 42.378671875)scale(0.1 -0.1)">
     <use xlink:href="#ArialMT-4d"/>
     <use x="83.30078125" xlink:href="#ArialMT-41"/>
     <use x="150.0" xlink:href="#ArialMT-45"/>
     <use x="216.69921875" xlink:href="#ArialMT-20"/>
     <use x="244.482421875" xlink:href="#ArialMT-28"/>
     <use x="277.783203125" xlink:href="#ArialMT-43"/>
     <use x="350.0" xlink:href="#ArialMT-56"/>
     <use x="416.69921875" xlink:href="#ArialMT-29"/>
     <use x="450.0" xlink:href="#ArialMT-3a"/>
     <use x="477.783203125" xlink:href="#ArialMT-20"/>
     <use x="505.56640625" xlink:href="#ArialMT-34"/>
     <use x="561.181640625" xlink:href="#ArialMT-2e"/>
     <use x="588.96484375" xlink:href="#ArialMT-33"/>
     <use x="644.580078125" xlink:href="#ArialMT-31"/>
    </g>
   </g>
   <g id="text_20">
    <!-- Training set cross-validation -->
    <defs>
     <path d="M 6.390625 0 
L 6.390625 71.578125 
L 15.1875 71.578125 
L 15.1875 0 
z
" id="ArialMT-6c"/>
     <path d="M 3.328125 25.921875 
Q 3.328125 40.328125 11.328125 47.265625 
Q 18.015625 53.03125 27.640625 53.03125 
Q 38.328125 53.03125 45.109375 46.015625 
Q 51.90625 39.015625 51.90625 26.65625 
Q 51.90625 16.65625 48.90625 10.90625 
Q 45.90625 5.171875 40.15625 2 
Q 34.421875 -1.171875 27.640625 -1.171875 
Q 16.75 -1.171875 10.03125 5.8125 
Q 3.328125 12.796875 3.328125 25.921875 
M 12.359375 25.921875 
Q 12.359375 15.96875 16.703125 11.015625 
Q 21.046875 6.0625 27.640625 6.0625 
Q 34.1875 6.0625 38.53125 11.03125 
Q 42.875 16.015625 42.875 26.21875 
Q 42.875 35.84375 38.5 40.796875 
Q 34.125 45.75 27.640625 45.75 
Q 21.046875 45.75 16.703125 40.8125 
Q 12.359375 35.890625 12.359375 25.921875 
" id="ArialMT-6f"/>
     <path d="M 25.921875 0 
L 25.921875 63.140625 
L 2.34375 63.140625 
L 2.34375 71.578125 
L 59.078125 71.578125 
L 59.078125 63.140625 
L 35.40625 63.140625 
L 35.40625 0 
z
" id="ArialMT-54"/>
     <path d="M 21 0 
L 1.265625 51.859375 
L 10.546875 51.859375 
L 21.6875 20.796875 
Q 23.484375 15.765625 25 10.359375 
Q 26.171875 14.453125 28.265625 20.21875 
L 39.796875 51.859375 
L 48.828125 51.859375 
L 29.203125 0 
z
" id="ArialMT-76"/>
     <path d="M 4.984375 -4.296875 
L 13.53125 -5.5625 
Q 14.0625 -9.515625 16.5 -11.328125 
Q 19.78125 -13.765625 25.4375 -13.765625 
Q 31.546875 -13.765625 34.859375 -11.328125 
Q 38.1875 -8.890625 39.359375 -4.5 
Q 40.046875 -1.8125 39.984375 6.78125 
Q 34.234375 0 25.640625 0 
Q 14.9375 0 9.078125 7.71875 
Q 3.21875 15.4375 3.21875 26.21875 
Q 3.21875 33.640625 5.90625 39.90625 
Q 8.59375 46.1875 13.6875 49.609375 
Q 18.796875 53.03125 25.6875 53.03125 
Q 34.859375 53.03125 40.828125 45.609375 
L 40.828125 51.859375 
L 48.921875 51.859375 
L 48.921875 7.03125 
Q 48.921875 -5.078125 46.453125 -10.125 
Q 44 -15.1875 38.640625 -18.109375 
Q 33.296875 -21.046875 25.484375 -21.046875 
Q 16.21875 -21.046875 10.5 -16.875 
Q 4.78125 -12.703125 4.984375 -4.296875 
M 12.25 26.859375 
Q 12.25 16.65625 16.296875 11.96875 
Q 20.359375 7.28125 26.46875 7.28125 
Q 32.515625 7.28125 36.609375 11.9375 
Q 40.71875 16.609375 40.71875 26.5625 
Q 40.71875 36.078125 36.5 40.90625 
Q 32.28125 45.75 26.3125 45.75 
Q 20.453125 45.75 16.34375 40.984375 
Q 12.25 36.234375 12.25 26.859375 
" id="ArialMT-67"/>
     <path d="M 6.59375 0 
L 6.59375 51.859375 
L 14.5 51.859375 
L 14.5 44.484375 
Q 20.21875 53.03125 31 53.03125 
Q 35.6875 53.03125 39.625 51.34375 
Q 43.5625 49.65625 45.515625 46.921875 
Q 47.46875 44.1875 48.25 40.4375 
Q 48.734375 37.984375 48.734375 31.890625 
L 48.734375 0 
L 39.9375 0 
L 39.9375 31.546875 
Q 39.9375 36.921875 38.90625 39.578125 
Q 37.890625 42.234375 35.28125 43.8125 
Q 32.671875 45.40625 29.15625 45.40625 
Q 23.53125 45.40625 19.453125 41.84375 
Q 15.375 38.28125 15.375 28.328125 
L 15.375 0 
z
" id="ArialMT-6e"/>
     <path d="M 3.171875 21.484375 
L 3.171875 30.328125 
L 30.171875 30.328125 
L 30.171875 21.484375 
z
" id="ArialMT-2d"/>
    </defs>
    <g style="fill:#262626;" transform="translate(91.38046875 19.2515625)scale(0.12 -0.12)">
     <use xlink:href="#ArialMT-54"/>
     <use x="61.037109375" xlink:href="#ArialMT-72"/>
     <use x="94.337890625" xlink:href="#ArialMT-61"/>
     <use x="149.953125" xlink:href="#ArialMT-69"/>
     <use x="172.169921875" xlink:href="#ArialMT-6e"/>
     <use x="227.78515625" xlink:href="#ArialMT-69"/>
     <use x="250.001953125" xlink:href="#ArialMT-6e"/>
     <use x="305.6171875" xlink:href="#ArialMT-67"/>
     <use x="361.232421875" xlink:href="#ArialMT-20"/>
     <use x="389.015625" xlink:href="#ArialMT-73"/>
     <use x="439.015625" xlink:href="#ArialMT-65"/>
     <use x="494.630859375" xlink:href="#ArialMT-74"/>
     <use x="522.4140625" xlink:href="#ArialMT-20"/>
     <use x="550.197265625" xlink:href="#ArialMT-63"/>
     <use x="600.197265625" xlink:href="#ArialMT-72"/>
     <use x="633.498046875" xlink:href="#ArialMT-6f"/>
     <use x="689.11328125" xlink:href="#ArialMT-73"/>
     <use x="739.11328125" xlink:href="#ArialMT-73"/>
     <use x="789.11328125" xlink:href="#ArialMT-2d"/>
     <use x="822.4140625" xlink:href="#ArialMT-76"/>
     <use x="872.4140625" xlink:href="#ArialMT-61"/>
     <use x="928.029296875" xlink:href="#ArialMT-6c"/>
     <use x="950.24609375" xlink:href="#ArialMT-69"/>
     <use x="972.462890625" xlink:href="#ArialMT-64"/>
     <use x="1028.078125" xlink:href="#ArialMT-61"/>
     <use x="1083.693359375" xlink:href="#ArialMT-74"/>
     <use x="1111.4765625" xlink:href="#ArialMT-69"/>
     <use x="1133.693359375" xlink:href="#ArialMT-6f"/>
     <use x="1189.30859375" xlink:href="#ArialMT-6e"/>
    </g>
   </g>
   <g id="legend_1">
    <g id="line2d_19"/>
    <g id="line2d_20">
     <g>
      <use style="fill:#4c72b0;" x="226.428125" xlink:href="#m01ef3b62ab" y="226.7125"/>
     </g>
    </g>
    <g id="text_21">
     <!-- inlier -->
     <g style="fill:#262626;" transform="translate(244.428125 230.2125)scale(0.1 -0.1)">
      <use xlink:href="#ArialMT-69"/>
      <use x="22.216796875" xlink:href="#ArialMT-6e"/>
      <use x="77.83203125" xlink:href="#ArialMT-6c"/>
      <use x="100.048828125" xlink:href="#ArialMT-69"/>
      <use x="122.265625" xlink:href="#ArialMT-65"/>
      <use x="177.880859375" xlink:href="#ArialMT-72"/>
     </g>
    </g>
   </g>
  </g>
 </g>
 <defs>
  <clipPath id="pf6a9b7ba86">
   <rect height="216.9484375" width="216.9484375" x="57.596875" y="24.2515625"/>
  </clipPath>
 </defs>
</svg>
