<?xml version="1.0" encoding="utf-8" standalone="no"?>
<!DOCTYPE svg PUBLIC "-//W3C//DTD SVG 1.1//EN"
  "http://www.w3.org/Graphics/SVG/1.1/DTD/svg11.dtd">
<!-- Created with matplotlib (http://matplotlib.org/) -->
<svg height="288pt" version="1.1" viewBox="0 0 288 288" width="288pt" xmlns="http://www.w3.org/2000/svg" xmlns:xlink="http://www.w3.org/1999/xlink">
 <defs>
  <style type="text/css">
*{stroke-linecap:butt;stroke-linejoin:round;stroke-miterlimit:100000;}
  </style>
 </defs>
 <g id="figure_1">
  <g id="patch_1">
   <path d="M 0 288 
L 288 288 
L 288 0 
L 0 0 
L 0 288 
z
" style="fill:none;"/>
  </g>
  <g id="axes_1">
   <g id="patch_2">
    <path d="M 36 252 
L 259.2 252 
L 259.2 28.8 
L 36 28.8 
L 36 252 
z
" style="fill:none;"/>
   </g>
   <g id="matplotlib.axis_1">
    <g id="xtick_1">
     <g id="line2d_1">
      <defs>
       <path d="M 0 0 
L 0 6 
" id="m4105f0aad1" style="stroke:#262626;"/>
      </defs>
      <g>
       <use style="fill:#262626;stroke:#262626;" x="36.0" xlink:href="#m4105f0aad1" y="252.0"/>
      </g>
     </g>
     <g id="text_1">
      <!-- 0 -->
      <defs>
       <path d="M 4.15625 35.296875 
Q 4.15625 48 6.765625 55.734375 
Q 9.375 63.484375 14.515625 67.671875 
Q 19.671875 71.875 27.484375 71.875 
Q 33.25 71.875 37.59375 69.546875 
Q 41.9375 67.234375 44.765625 62.859375 
Q 47.609375 58.5 49.21875 52.21875 
Q 50.828125 45.953125 50.828125 35.296875 
Q 50.828125 22.703125 48.234375 14.96875 
Q 45.65625 7.234375 40.5 3 
Q 35.359375 -1.21875 27.484375 -1.21875 
Q 17.140625 -1.21875 11.234375 6.203125 
Q 4.15625 15.140625 4.15625 35.296875 
M 13.1875 35.296875 
Q 13.1875 17.671875 17.3125 11.828125 
Q 21.4375 6 27.484375 6 
Q 33.546875 6 37.671875 11.859375 
Q 41.796875 17.71875 41.796875 35.296875 
Q 41.796875 52.984375 37.671875 58.78125 
Q 33.546875 64.59375 27.390625 64.59375 
Q 21.34375 64.59375 17.71875 59.46875 
Q 13.1875 52.9375 13.1875 35.296875 
" id="ArialMT-30"/>
      </defs>
      <g style="fill:#262626;" transform="translate(33.21953125 272.1578125)scale(0.1 -0.1)">
       <use xlink:href="#ArialMT-30"/>
      </g>
     </g>
    </g>
    <g id="xtick_2">
     <g id="line2d_2">
      <g>
       <use style="fill:#262626;stroke:#262626;" x="60.8" xlink:href="#m4105f0aad1" y="252.0"/>
      </g>
     </g>
     <g id="text_2">
      <!-- 5 -->
      <defs>
       <path d="M 4.15625 18.75 
L 13.375 19.53125 
Q 14.40625 12.796875 18.140625 9.390625 
Q 21.875 6 27.15625 6 
Q 33.5 6 37.890625 10.78125 
Q 42.28125 15.578125 42.28125 23.484375 
Q 42.28125 31 38.0625 35.34375 
Q 33.84375 39.703125 27 39.703125 
Q 22.75 39.703125 19.328125 37.765625 
Q 15.921875 35.84375 13.96875 32.765625 
L 5.71875 33.84375 
L 12.640625 70.609375 
L 48.25 70.609375 
L 48.25 62.203125 
L 19.671875 62.203125 
L 15.828125 42.96875 
Q 22.265625 47.46875 29.34375 47.46875 
Q 38.71875 47.46875 45.15625 40.96875 
Q 51.609375 34.46875 51.609375 24.265625 
Q 51.609375 14.546875 45.953125 7.46875 
Q 39.0625 -1.21875 27.15625 -1.21875 
Q 17.390625 -1.21875 11.203125 4.25 
Q 5.03125 9.71875 4.15625 18.75 
" id="ArialMT-35"/>
      </defs>
      <g style="fill:#262626;" transform="translate(58.01953125 272.1578125)scale(0.1 -0.1)">
       <use xlink:href="#ArialMT-35"/>
      </g>
     </g>
    </g>
    <g id="xtick_3">
     <g id="line2d_3">
      <g>
       <use style="fill:#262626;stroke:#262626;" x="85.6" xlink:href="#m4105f0aad1" y="252.0"/>
      </g>
     </g>
     <g id="text_3">
      <!-- 10 -->
      <defs>
       <path d="M 37.25 0 
L 28.46875 0 
L 28.46875 56 
Q 25.296875 52.984375 20.140625 49.953125 
Q 14.984375 46.921875 10.890625 45.40625 
L 10.890625 53.90625 
Q 18.265625 57.375 23.78125 62.296875 
Q 29.296875 67.234375 31.59375 71.875 
L 37.25 71.875 
z
" id="ArialMT-31"/>
      </defs>
      <g style="fill:#262626;" transform="translate(80.0390625 272.1578125)scale(0.1 -0.1)">
       <use xlink:href="#ArialMT-31"/>
       <use x="55.615234375" xlink:href="#ArialMT-30"/>
      </g>
     </g>
    </g>
    <g id="xtick_4">
     <g id="line2d_4">
      <g>
       <use style="fill:#262626;stroke:#262626;" x="110.4" xlink:href="#m4105f0aad1" y="252.0"/>
      </g>
     </g>
     <g id="text_4">
      <!-- 15 -->
      <g style="fill:#262626;" transform="translate(104.8390625 272.1578125)scale(0.1 -0.1)">
       <use xlink:href="#ArialMT-31"/>
       <use x="55.615234375" xlink:href="#ArialMT-35"/>
      </g>
     </g>
    </g>
    <g id="xtick_5">
     <g id="line2d_5">
      <g>
       <use style="fill:#262626;stroke:#262626;" x="135.2" xlink:href="#m4105f0aad1" y="252.0"/>
      </g>
     </g>
     <g id="text_5">
      <!-- 20 -->
      <defs>
       <path d="M 50.34375 8.453125 
L 50.34375 0 
L 3.03125 0 
Q 2.9375 3.171875 4.046875 6.109375 
Q 5.859375 10.9375 9.828125 15.625 
Q 13.8125 20.3125 21.34375 26.46875 
Q 33.015625 36.03125 37.109375 41.625 
Q 41.21875 47.21875 41.21875 52.203125 
Q 41.21875 57.421875 37.46875 61 
Q 33.734375 64.59375 27.734375 64.59375 
Q 21.390625 64.59375 17.578125 60.78125 
Q 13.765625 56.984375 13.71875 50.25 
L 4.6875 51.171875 
Q 5.609375 61.28125 11.65625 66.578125 
Q 17.71875 71.875 27.9375 71.875 
Q 38.234375 71.875 44.234375 66.15625 
Q 50.25 60.453125 50.25 52 
Q 50.25 47.703125 48.484375 43.546875 
Q 46.734375 39.40625 42.65625 34.8125 
Q 38.578125 30.21875 29.109375 22.21875 
Q 21.1875 15.578125 18.9375 13.203125 
Q 16.703125 10.84375 15.234375 8.453125 
z
" id="ArialMT-32"/>
      </defs>
      <g style="fill:#262626;" transform="translate(129.6390625 272.1578125)scale(0.1 -0.1)">
       <use xlink:href="#ArialMT-32"/>
       <use x="55.615234375" xlink:href="#ArialMT-30"/>
      </g>
     </g>
    </g>
    <g id="xtick_6">
     <g id="line2d_6">
      <g>
       <use style="fill:#262626;stroke:#262626;" x="160.0" xlink:href="#m4105f0aad1" y="252.0"/>
      </g>
     </g>
     <g id="text_6">
      <!-- 25 -->
      <g style="fill:#262626;" transform="translate(154.4390625 272.1578125)scale(0.1 -0.1)">
       <use xlink:href="#ArialMT-32"/>
       <use x="55.615234375" xlink:href="#ArialMT-35"/>
      </g>
     </g>
    </g>
    <g id="xtick_7">
     <g id="line2d_7">
      <g>
       <use style="fill:#262626;stroke:#262626;" x="184.8" xlink:href="#m4105f0aad1" y="252.0"/>
      </g>
     </g>
     <g id="text_7">
      <!-- 30 -->
      <defs>
       <path d="M 4.203125 18.890625 
L 12.984375 20.0625 
Q 14.5 12.59375 18.140625 9.296875 
Q 21.78125 6 27 6 
Q 33.203125 6 37.46875 10.296875 
Q 41.75 14.59375 41.75 20.953125 
Q 41.75 27 37.796875 30.921875 
Q 33.84375 34.859375 27.734375 34.859375 
Q 25.25 34.859375 21.53125 33.890625 
L 22.515625 41.609375 
Q 23.390625 41.5 23.921875 41.5 
Q 29.546875 41.5 34.03125 44.421875 
Q 38.53125 47.359375 38.53125 53.46875 
Q 38.53125 58.296875 35.25 61.46875 
Q 31.984375 64.65625 26.8125 64.65625 
Q 21.6875 64.65625 18.265625 61.421875 
Q 14.84375 58.203125 13.875 51.765625 
L 5.078125 53.328125 
Q 6.6875 62.15625 12.390625 67.015625 
Q 18.109375 71.875 26.609375 71.875 
Q 32.46875 71.875 37.390625 69.359375 
Q 42.328125 66.84375 44.9375 62.5 
Q 47.5625 58.15625 47.5625 53.265625 
Q 47.5625 48.640625 45.0625 44.828125 
Q 42.578125 41.015625 37.703125 38.765625 
Q 44.046875 37.3125 47.5625 32.6875 
Q 51.078125 28.078125 51.078125 21.140625 
Q 51.078125 11.765625 44.234375 5.25 
Q 37.40625 -1.265625 26.953125 -1.265625 
Q 17.53125 -1.265625 11.296875 4.34375 
Q 5.078125 9.96875 4.203125 18.890625 
" id="ArialMT-33"/>
      </defs>
      <g style="fill:#262626;" transform="translate(179.2390625 272.1578125)scale(0.1 -0.1)">
       <use xlink:href="#ArialMT-33"/>
       <use x="55.615234375" xlink:href="#ArialMT-30"/>
      </g>
     </g>
    </g>
    <g id="xtick_8">
     <g id="line2d_8">
      <g>
       <use style="fill:#262626;stroke:#262626;" x="209.6" xlink:href="#m4105f0aad1" y="252.0"/>
      </g>
     </g>
     <g id="text_8">
      <!-- 35 -->
      <g style="fill:#262626;" transform="translate(204.0390625 272.1578125)scale(0.1 -0.1)">
       <use xlink:href="#ArialMT-33"/>
       <use x="55.615234375" xlink:href="#ArialMT-35"/>
      </g>
     </g>
    </g>
    <g id="xtick_9">
     <g id="line2d_9">
      <g>
       <use style="fill:#262626;stroke:#262626;" x="234.4" xlink:href="#m4105f0aad1" y="252.0"/>
      </g>
     </g>
     <g id="text_9">
      <!-- 40 -->
      <defs>
       <path d="M 32.328125 0 
L 32.328125 17.140625 
L 1.265625 17.140625 
L 1.265625 25.203125 
L 33.9375 71.578125 
L 41.109375 71.578125 
L 41.109375 25.203125 
L 50.78125 25.203125 
L 50.78125 17.140625 
L 41.109375 17.140625 
L 41.109375 0 
z
M 32.328125 25.203125 
L 32.328125 57.46875 
L 9.90625 25.203125 
z
" id="ArialMT-34"/>
      </defs>
      <g style="fill:#262626;" transform="translate(228.8390625 272.1578125)scale(0.1 -0.1)">
       <use xlink:href="#ArialMT-34"/>
       <use x="55.615234375" xlink:href="#ArialMT-30"/>
      </g>
     </g>
    </g>
    <g id="xtick_10">
     <g id="line2d_10">
      <g>
       <use style="fill:#262626;stroke:#262626;" x="259.2" xlink:href="#m4105f0aad1" y="252.0"/>
      </g>
     </g>
     <g id="text_10">
      <!-- 45 -->
      <g style="fill:#262626;" transform="translate(253.6390625 272.1578125)scale(0.1 -0.1)">
       <use xlink:href="#ArialMT-34"/>
       <use x="55.615234375" xlink:href="#ArialMT-35"/>
      </g>
     </g>
    </g>
    <g id="text_11">
     <!-- $\sqrt[3]{D_M}$ -->
     <defs>
      <path d="M 42.390625 -116.015625 
L 19.828125 -63.484375 
L 12.796875 -68.890625 
L 10.984375 -67.09375 
L 25.296875 -56 
L 46.390625 -105.078125 
L 98.296875 3.078125 
Q 98.78125 4 100 4 
Q 100.828125 4 101.40625 3.40625 
Q 102 2.828125 102 2 
Q 102 1.515625 101.90625 1.3125 
L 46.09375 -115.09375 
Q 45.703125 -116.015625 44.578125 -116.015625 
z
" id="Cmex10-70"/>
      <path d="M 9.515625 7.71875 
Q 11.859375 4.296875 15.8125 2.640625 
Q 19.78125 0.984375 24.3125 0.984375 
Q 30.125 0.984375 32.5625 5.9375 
Q 35.015625 10.890625 35.015625 17.1875 
Q 35.015625 20.015625 34.5 22.84375 
Q 33.984375 25.6875 32.765625 28.125 
Q 31.546875 30.5625 29.421875 32.03125 
Q 27.296875 33.5 24.21875 33.5 
L 17.578125 33.5 
Q 16.703125 33.5 16.703125 34.421875 
L 16.703125 35.296875 
Q 16.703125 36.078125 17.578125 36.078125 
L 23.09375 36.53125 
Q 26.609375 36.53125 28.921875 39.15625 
Q 31.25 41.796875 32.328125 45.578125 
Q 33.40625 49.359375 33.40625 52.78125 
Q 33.40625 57.5625 31.15625 60.640625 
Q 28.90625 63.71875 24.3125 63.71875 
Q 20.515625 63.71875 17.046875 62.28125 
Q 13.578125 60.84375 11.53125 57.90625 
Q 11.71875 57.953125 11.859375 57.984375 
Q 12.015625 58.015625 12.203125 58.015625 
Q 14.453125 58.015625 15.96875 56.453125 
Q 17.484375 54.890625 17.484375 52.6875 
Q 17.484375 50.53125 15.96875 48.96875 
Q 14.453125 47.40625 12.203125 47.40625 
Q 10.015625 47.40625 8.453125 48.96875 
Q 6.890625 50.53125 6.890625 52.6875 
Q 6.890625 56.984375 9.46875 60.15625 
Q 12.0625 63.328125 16.140625 64.96875 
Q 20.21875 66.609375 24.3125 66.609375 
Q 27.34375 66.609375 30.703125 65.703125 
Q 34.078125 64.796875 36.8125 63.109375 
Q 39.546875 61.421875 41.28125 58.78125 
Q 43.015625 56.15625 43.015625 52.78125 
Q 43.015625 48.578125 41.140625 45.015625 
Q 39.265625 41.453125 35.984375 38.859375 
Q 32.71875 36.28125 28.8125 35.015625 
Q 33.15625 34.1875 37.0625 31.734375 
Q 40.96875 29.296875 43.328125 25.484375 
Q 45.703125 21.6875 45.703125 17.28125 
Q 45.703125 11.765625 42.671875 7.296875 
Q 39.65625 2.828125 34.71875 0.3125 
Q 29.78125 -2.203125 24.3125 -2.203125 
Q 19.625 -2.203125 14.90625 -0.40625 
Q 10.203125 1.375 7.203125 4.9375 
Q 4.203125 8.5 4.203125 13.484375 
Q 4.203125 15.96875 5.859375 17.625 
Q 7.515625 19.28125 10.015625 19.28125 
Q 11.625 19.28125 12.96875 18.53125 
Q 14.3125 17.78125 15.0625 16.40625 
Q 15.828125 15.046875 15.828125 13.484375 
Q 15.828125 11.03125 14.109375 9.375 
Q 12.40625 7.71875 10.015625 7.71875 
z
" id="Cmr10-33"/>
      <path d="M 5.078125 0 
Q 4.109375 0 4.109375 1.3125 
Q 4.15625 1.5625 4.296875 2.140625 
Q 4.4375 2.734375 4.6875 3.125 
Q 4.9375 3.515625 5.421875 3.515625 
Q 14.9375 3.515625 16.5 9.625 
L 29.5 61.8125 
Q 29.6875 62.796875 29.6875 63.1875 
Q 29.6875 64.265625 28.515625 64.40625 
Q 26.609375 64.796875 21.296875 64.796875 
Q 20.3125 64.796875 20.3125 66.109375 
Q 20.359375 66.359375 20.5 66.96875 
Q 20.65625 67.578125 20.921875 67.9375 
Q 21.1875 68.3125 21.578125 68.3125 
L 39.203125 68.3125 
Q 40.328125 68.3125 40.484375 67.1875 
L 48.296875 9.90625 
L 84.71875 67.1875 
Q 85.40625 68.3125 86.625 68.3125 
L 103.609375 68.3125 
Q 104.59375 68.3125 104.59375 67 
Q 104.546875 66.75 104.390625 66.140625 
Q 104.25 65.53125 103.984375 65.15625 
Q 103.71875 64.796875 103.328125 64.796875 
Q 97.21875 64.796875 94.828125 64.109375 
Q 93.5 63.671875 92.921875 61.375 
L 79.203125 6.5 
Q 79 5.515625 79 5.078125 
Q 79 4.6875 79.125 4.421875 
Q 79.25 4.15625 79.46875 4.078125 
Q 79.6875 4 80.171875 3.90625 
Q 82.078125 3.515625 87.40625 3.515625 
Q 88.375 3.515625 88.375 2.203125 
Q 88.03125 0.78125 87.828125 0.390625 
Q 87.640625 0 86.71875 0 
L 60.59375 0 
Q 59.625 0 59.625 1.3125 
Q 59.671875 1.5625 59.8125 2.171875 
Q 59.96875 2.78125 60.234375 3.140625 
Q 60.5 3.515625 60.890625 3.515625 
Q 67 3.515625 69.390625 4.203125 
Q 70.703125 4.640625 71.296875 6.890625 
L 85.6875 64.796875 
L 45.3125 1.125 
Q 44.734375 0 43.3125 0 
Q 42.046875 0 41.890625 1.125 
L 33.40625 64.015625 
L 19.671875 9.1875 
Q 19.578125 8.9375 19.53125 8.5625 
Q 19.484375 8.203125 19.390625 7.71875 
Q 19.390625 5.125 21.65625 4.3125 
Q 23.921875 3.515625 27.203125 3.515625 
Q 28.21875 3.515625 28.21875 2.203125 
Q 27.875 0.875 27.65625 0.4375 
Q 27.4375 0 26.515625 0 
z
" id="Cmmi10-4d"/>
      <path d="M 4.890625 0 
Q 3.90625 0 3.90625 1.3125 
Q 3.953125 1.5625 4.09375 2.171875 
Q 4.25 2.78125 4.515625 3.140625 
Q 4.78125 3.515625 5.171875 3.515625 
Q 11.28125 3.515625 13.71875 4.203125 
Q 14.984375 4.640625 15.578125 6.890625 
L 29.296875 61.8125 
Q 29.5 62.796875 29.5 63.1875 
Q 29.5 64.265625 28.328125 64.40625 
Q 26.421875 64.796875 21.09375 64.796875 
Q 20.125 64.796875 20.125 66.109375 
Q 20.171875 66.359375 20.3125 66.96875 
Q 20.453125 67.578125 20.71875 67.9375 
Q 21 68.3125 21.390625 68.3125 
L 57.328125 68.3125 
Q 64.3125 68.3125 69.53125 64.921875 
Q 74.75 61.53125 77.53125 55.78125 
Q 80.328125 50.046875 80.328125 43.109375 
Q 80.328125 35.453125 77.140625 27.78125 
Q 73.96875 20.125 68.25 13.765625 
Q 62.546875 7.421875 55.21875 3.703125 
Q 47.90625 0 40.1875 0 
z
M 23.578125 4.296875 
Q 23.578125 3.515625 27 3.515625 
L 38.625 3.515625 
Q 44.1875 3.515625 49.359375 5.8125 
Q 54.546875 8.109375 58.59375 12.109375 
Q 62.359375 15.875 65.234375 21.96875 
Q 68.109375 28.078125 69.703125 34.71875 
Q 71.296875 41.359375 71.296875 46.921875 
Q 71.296875 50.984375 70.09375 54.25 
Q 68.890625 57.515625 66.71875 59.859375 
Q 64.546875 62.203125 61.28125 63.5 
Q 58.015625 64.796875 53.90625 64.796875 
L 42.921875 64.796875 
Q 40.1875 64.796875 39.296875 64.328125 
Q 38.421875 63.875 37.703125 61.375 
L 24.03125 6.5 
Q 23.578125 5.28125 23.578125 4.296875 
" id="Cmmi10-44"/>
     </defs>
     <g style="fill:#262626;" transform="translate(133.52 290.5990625)scale(0.11 -0.11)">
      <use transform="translate(0.0 60.17125)scale(0.49)" xlink:href="#Cmr10-33"/>
      <use transform="translate(-24.0625 96.109375)scale(0.9712797812784794)" xlink:href="#Cmex10-70"/>
      <use transform="translate(85.5625 0.4375)" xlink:href="#Cmmi10-44"/>
      <use transform="translate(168.27734375 -16.568749999999994)scale(0.7)" xlink:href="#Cmmi10-4d"/>
      <path d="M 73.0625 93.5 
L 73.0625 99.75 
L 255.069727 99.75 
L 255.069727 93.5 
L 73.0625 93.5 
z
"/>
     </g>
    </g>
   </g>
   <g id="matplotlib.axis_2">
    <g id="ytick_1">
     <g id="line2d_11">
      <defs>
       <path d="M 0 0 
L -6 0 
" id="m11bed1d6b3" style="stroke:#262626;"/>
      </defs>
      <g>
       <use style="fill:#262626;stroke:#262626;" x="36.0" xlink:href="#m11bed1d6b3" y="252.0"/>
      </g>
     </g>
     <g id="text_12">
      <!-- 0 -->
      <g style="fill:#262626;" transform="translate(17.4390625 254.58515625)scale(0.1 -0.1)">
       <use xlink:href="#ArialMT-30"/>
      </g>
     </g>
    </g>
    <g id="ytick_2">
     <g id="line2d_12">
      <g>
       <use style="fill:#262626;stroke:#262626;" x="36.0" xlink:href="#m11bed1d6b3" y="220.114285714"/>
      </g>
     </g>
     <g id="text_13">
      <!-- 5 -->
      <g style="fill:#262626;" transform="translate(17.4390625 222.699441964)scale(0.1 -0.1)">
       <use xlink:href="#ArialMT-35"/>
      </g>
     </g>
    </g>
    <g id="ytick_3">
     <g id="line2d_13">
      <g>
       <use style="fill:#262626;stroke:#262626;" x="36.0" xlink:href="#m11bed1d6b3" y="188.228571429"/>
      </g>
     </g>
     <g id="text_14">
      <!-- 10 -->
      <g style="fill:#262626;" transform="translate(11.878125 190.813727679)scale(0.1 -0.1)">
       <use xlink:href="#ArialMT-31"/>
       <use x="55.615234375" xlink:href="#ArialMT-30"/>
      </g>
     </g>
    </g>
    <g id="ytick_4">
     <g id="line2d_14">
      <g>
       <use style="fill:#262626;stroke:#262626;" x="36.0" xlink:href="#m11bed1d6b3" y="156.342857143"/>
      </g>
     </g>
     <g id="text_15">
      <!-- 15 -->
      <g style="fill:#262626;" transform="translate(11.878125 158.928013393)scale(0.1 -0.1)">
       <use xlink:href="#ArialMT-31"/>
       <use x="55.615234375" xlink:href="#ArialMT-35"/>
      </g>
     </g>
    </g>
    <g id="ytick_5">
     <g id="line2d_15">
      <g>
       <use style="fill:#262626;stroke:#262626;" x="36.0" xlink:href="#m11bed1d6b3" y="124.457142857"/>
      </g>
     </g>
     <g id="text_16">
      <!-- 20 -->
      <g style="fill:#262626;" transform="translate(11.878125 127.042299107)scale(0.1 -0.1)">
       <use xlink:href="#ArialMT-32"/>
       <use x="55.615234375" xlink:href="#ArialMT-30"/>
      </g>
     </g>
    </g>
    <g id="ytick_6">
     <g id="line2d_16">
      <g>
       <use style="fill:#262626;stroke:#262626;" x="36.0" xlink:href="#m11bed1d6b3" y="92.5714285714"/>
      </g>
     </g>
     <g id="text_17">
      <!-- 25 -->
      <g style="fill:#262626;" transform="translate(11.878125 95.1565848214)scale(0.1 -0.1)">
       <use xlink:href="#ArialMT-32"/>
       <use x="55.615234375" xlink:href="#ArialMT-35"/>
      </g>
     </g>
    </g>
    <g id="ytick_7">
     <g id="line2d_17">
      <g>
       <use style="fill:#262626;stroke:#262626;" x="36.0" xlink:href="#m11bed1d6b3" y="60.6857142857"/>
      </g>
     </g>
     <g id="text_18">
      <!-- 30 -->
      <g style="fill:#262626;" transform="translate(11.878125 63.2708705357)scale(0.1 -0.1)">
       <use xlink:href="#ArialMT-33"/>
       <use x="55.615234375" xlink:href="#ArialMT-30"/>
      </g>
     </g>
    </g>
    <g id="ytick_8">
     <g id="line2d_18">
      <g>
       <use style="fill:#262626;stroke:#262626;" x="36.0" xlink:href="#m11bed1d6b3" y="28.8"/>
      </g>
     </g>
     <g id="text_19">
      <!-- 35 -->
      <g style="fill:#262626;" transform="translate(11.878125 31.38515625)scale(0.1 -0.1)">
       <use xlink:href="#ArialMT-33"/>
       <use x="55.615234375" xlink:href="#ArialMT-35"/>
      </g>
     </g>
    </g>
    <g id="text_20">
     <!-- YSI Error -->
     <defs>
      <path d="M 6.5 0 
L 6.5 51.859375 
L 14.40625 51.859375 
L 14.40625 44 
Q 17.4375 49.515625 20 51.265625 
Q 22.5625 53.03125 25.640625 53.03125 
Q 30.078125 53.03125 34.671875 50.203125 
L 31.640625 42.046875 
Q 28.421875 43.953125 25.203125 43.953125 
Q 22.3125 43.953125 20.015625 42.21875 
Q 17.71875 40.484375 16.75 37.40625 
Q 15.28125 32.71875 15.28125 27.15625 
L 15.28125 0 
z
" id="ArialMT-72"/>
      <path d="M 27.875 0 
L 27.875 30.328125 
L 0.296875 71.578125 
L 11.8125 71.578125 
L 25.921875 50 
Q 29.828125 43.953125 33.203125 37.890625 
Q 36.421875 43.5 41.015625 50.53125 
L 54.890625 71.578125 
L 65.921875 71.578125 
L 37.359375 30.328125 
L 37.359375 0 
z
" id="ArialMT-59"/>
      <path d="M 4.5 23 
L 13.421875 23.78125 
Q 14.0625 18.40625 16.375 14.96875 
Q 18.703125 11.53125 23.578125 9.40625 
Q 28.46875 7.28125 34.578125 7.28125 
Q 39.984375 7.28125 44.140625 8.890625 
Q 48.296875 10.5 50.3125 13.296875 
Q 52.34375 16.109375 52.34375 19.4375 
Q 52.34375 22.796875 50.390625 25.3125 
Q 48.4375 27.828125 43.953125 29.546875 
Q 41.0625 30.671875 31.203125 33.03125 
Q 21.34375 35.40625 17.390625 37.5 
Q 12.25 40.1875 9.734375 44.15625 
Q 7.234375 48.140625 7.234375 53.078125 
Q 7.234375 58.5 10.296875 63.203125 
Q 13.375 67.921875 19.28125 70.359375 
Q 25.203125 72.796875 32.421875 72.796875 
Q 40.375 72.796875 46.453125 70.234375 
Q 52.546875 67.671875 55.8125 62.6875 
Q 59.078125 57.71875 59.328125 51.421875 
L 50.25 50.734375 
Q 49.515625 57.515625 45.28125 60.984375 
Q 41.0625 64.453125 32.8125 64.453125 
Q 24.21875 64.453125 20.28125 61.296875 
Q 16.359375 58.15625 16.359375 53.71875 
Q 16.359375 49.859375 19.140625 47.359375 
Q 21.875 44.875 33.421875 42.265625 
Q 44.96875 39.65625 49.265625 37.703125 
Q 55.515625 34.8125 58.484375 30.390625 
Q 61.46875 25.984375 61.46875 20.21875 
Q 61.46875 14.5 58.203125 9.4375 
Q 54.9375 4.390625 48.796875 1.578125 
Q 42.671875 -1.21875 35.015625 -1.21875 
Q 25.296875 -1.21875 18.71875 1.609375 
Q 12.15625 4.4375 8.421875 10.125 
Q 4.6875 15.828125 4.5 23 
" id="ArialMT-53"/>
      <path d="M 9.328125 0 
L 9.328125 71.578125 
L 18.796875 71.578125 
L 18.796875 0 
z
" id="ArialMT-49"/>
      <path d="M 7.90625 0 
L 7.90625 71.578125 
L 59.671875 71.578125 
L 59.671875 63.140625 
L 17.390625 63.140625 
L 17.390625 41.21875 
L 56.984375 41.21875 
L 56.984375 32.8125 
L 17.390625 32.8125 
L 17.390625 8.453125 
L 61.328125 8.453125 
L 61.328125 0 
z
" id="ArialMT-45"/>
      <path d="M 3.328125 25.921875 
Q 3.328125 40.328125 11.328125 47.265625 
Q 18.015625 53.03125 27.640625 53.03125 
Q 38.328125 53.03125 45.109375 46.015625 
Q 51.90625 39.015625 51.90625 26.65625 
Q 51.90625 16.65625 48.90625 10.90625 
Q 45.90625 5.171875 40.15625 2 
Q 34.421875 -1.171875 27.640625 -1.171875 
Q 16.75 -1.171875 10.03125 5.8125 
Q 3.328125 12.796875 3.328125 25.921875 
M 12.359375 25.921875 
Q 12.359375 15.96875 16.703125 11.015625 
Q 21.046875 6.0625 27.640625 6.0625 
Q 34.1875 6.0625 38.53125 11.03125 
Q 42.875 16.015625 42.875 26.21875 
Q 42.875 35.84375 38.5 40.796875 
Q 34.125 45.75 27.640625 45.75 
Q 21.046875 45.75 16.703125 40.8125 
Q 12.359375 35.890625 12.359375 25.921875 
" id="ArialMT-6f"/>
      <path id="ArialMT-20"/>
     </defs>
     <g style="fill:#262626;" transform="translate(4.691875 163.014453125)rotate(-90.0)scale(0.11 -0.11)">
      <use xlink:href="#ArialMT-59"/>
      <use x="66.69921875" xlink:href="#ArialMT-53"/>
      <use x="133.3984375" xlink:href="#ArialMT-49"/>
      <use x="161.181640625" xlink:href="#ArialMT-20"/>
      <use x="188.96484375" xlink:href="#ArialMT-45"/>
      <use x="255.6640625" xlink:href="#ArialMT-72"/>
      <use x="288.96484375" xlink:href="#ArialMT-72"/>
      <use x="322.265625" xlink:href="#ArialMT-6f"/>
      <use x="377.880859375" xlink:href="#ArialMT-72"/>
     </g>
    </g>
   </g>
   <g id="line2d_19">
    <defs>
     <path d="M 0 1.25 
C 0.331504 1.25 0.649475 1.118292 0.883883 0.883883 
C 1.118292 0.649475 1.25 0.331504 1.25 0 
C 1.25 -0.331504 1.118292 -0.649475 0.883883 -0.883883 
C 0.649475 -1.118292 0.331504 -1.25 0 -1.25 
C -0.331504 -1.25 -0.649475 -1.118292 -0.883883 -0.883883 
C -1.118292 -0.649475 -1.25 -0.331504 -1.25 0 
C -1.25 0.331504 -1.118292 0.649475 -0.883883 0.883883 
C -0.649475 1.118292 -0.331504 1.25 0 1.25 
z
" id="m50bf07ab28"/>
    </defs>
    <g clip-path="url(#p9ab5a2111b)">
     <use style="fill:#4c72b0;" x="53.5005762123" xlink:href="#m50bf07ab28" y="247.02853673"/>
     <use style="fill:#4c72b0;" x="48.3055570205" xlink:href="#m50bf07ab28" y="250.879859098"/>
     <use style="fill:#4c72b0;" x="48.0047022371" xlink:href="#m50bf07ab28" y="251.474195639"/>
     <use style="fill:#4c72b0;" x="48.2459322253" xlink:href="#m50bf07ab28" y="249.568769994"/>
     <use style="fill:#4c72b0;" x="48.9675299592" xlink:href="#m50bf07ab28" y="251.147880851"/>
     <use style="fill:#4c72b0;" x="51.1753571364" xlink:href="#m50bf07ab28" y="250.613224671"/>
     <use style="fill:#4c72b0;" x="49.4027915969" xlink:href="#m50bf07ab28" y="234.342816206"/>
     <use style="fill:#4c72b0;" x="48.725185461" xlink:href="#m50bf07ab28" y="242.814560418"/>
     <use style="fill:#4c72b0;" x="51.1019658083" xlink:href="#m50bf07ab28" y="230.148398788"/>
     <use style="fill:#4c72b0;" x="50.3040719002" xlink:href="#m50bf07ab28" y="250.466198668"/>
     <use style="fill:#4c72b0;" x="51.816275944" xlink:href="#m50bf07ab28" y="250.986628251"/>
     <use style="fill:#4c72b0;" x="49.900806754" xlink:href="#m50bf07ab28" y="251.188025537"/>
     <use style="fill:#4c72b0;" x="49.3776821732" xlink:href="#m50bf07ab28" y="239.656650089"/>
     <use style="fill:#4c72b0;" x="50.4401822876" xlink:href="#m50bf07ab28" y="226.576242742"/>
     <use style="fill:#4c72b0;" x="48.0506096148" xlink:href="#m50bf07ab28" y="228.027495222"/>
     <use style="fill:#4c72b0;" x="51.2422652699" xlink:href="#m50bf07ab28" y="218.001160908"/>
     <use style="fill:#4c72b0;" x="53.7010159539" xlink:href="#m50bf07ab28" y="251.153268279"/>
     <use style="fill:#4c72b0;" x="49.9955228473" xlink:href="#m50bf07ab28" y="243.152363327"/>
     <use style="fill:#4c72b0;" x="65.9211183929" xlink:href="#m50bf07ab28" y="249.331351669"/>
     <use style="fill:#4c72b0;" x="55.4408602227" xlink:href="#m50bf07ab28" y="248.674572416"/>
     <use style="fill:#4c72b0;" x="142.261643591" xlink:href="#m50bf07ab28" y="246.465281062"/>
     <use style="fill:#4c72b0;" x="153.16017187" xlink:href="#m50bf07ab28" y="249.941029238"/>
     <use style="fill:#4c72b0;" x="105.849228772" xlink:href="#m50bf07ab28" y="235.357723954"/>
     <use style="fill:#4c72b0;" x="128.702157927" xlink:href="#m50bf07ab28" y="249.253773526"/>
     <use style="fill:#4c72b0;" x="127.221505613" xlink:href="#m50bf07ab28" y="248.89116913"/>
     <use style="fill:#4c72b0;" x="124.887742762" xlink:href="#m50bf07ab28" y="250.741372051"/>
     <use style="fill:#4c72b0;" x="127.448115214" xlink:href="#m50bf07ab28" y="249.64115873"/>
     <use style="fill:#4c72b0;" x="122.311085788" xlink:href="#m50bf07ab28" y="251.704704403"/>
     <use style="fill:#4c72b0;" x="119.166034105" xlink:href="#m50bf07ab28" y="241.167069894"/>
     <use style="fill:#4c72b0;" x="127.611051495" xlink:href="#m50bf07ab28" y="244.620007251"/>
     <use style="fill:#4c72b0;" x="119.671975252" xlink:href="#m50bf07ab28" y="244.696230144"/>
     <use style="fill:#4c72b0;" x="120.212082567" xlink:href="#m50bf07ab28" y="248.46699805"/>
     <use style="fill:#4c72b0;" x="120.322548158" xlink:href="#m50bf07ab28" y="226.506215416"/>
     <use style="fill:#4c72b0;" x="119.942613376" xlink:href="#m50bf07ab28" y="241.713075774"/>
     <use style="fill:#4c72b0;" x="119.724533114" xlink:href="#m50bf07ab28" y="235.524119741"/>
     <use style="fill:#4c72b0;" x="112.478556116" xlink:href="#m50bf07ab28" y="245.221310052"/>
     <use style="fill:#4c72b0;" x="114.141158999" xlink:href="#m50bf07ab28" y="242.578675415"/>
     <use style="fill:#4c72b0;" x="118.022874065" xlink:href="#m50bf07ab28" y="226.609063581"/>
     <use style="fill:#4c72b0;" x="49.433144155" xlink:href="#m50bf07ab28" y="250.030859852"/>
     <use style="fill:#4c72b0;" x="50.1837588235" xlink:href="#m50bf07ab28" y="247.762489479"/>
     <use style="fill:#4c72b0;" x="48.5008993213" xlink:href="#m50bf07ab28" y="250.083790498"/>
     <use style="fill:#4c72b0;" x="46.5131970252" xlink:href="#m50bf07ab28" y="244.013426979"/>
     <use style="fill:#4c72b0;" x="48.3488827832" xlink:href="#m50bf07ab28" y="249.258955879"/>
     <use style="fill:#4c72b0;" x="48.0147503727" xlink:href="#m50bf07ab28" y="238.319447325"/>
     <use style="fill:#4c72b0;" x="46.6897194581" xlink:href="#m50bf07ab28" y="234.475493492"/>
     <use style="fill:#4c72b0;" x="48.1630410001" xlink:href="#m50bf07ab28" y="233.207451531"/>
     <use style="fill:#4c72b0;" x="48.1513627678" xlink:href="#m50bf07ab28" y="244.006809584"/>
     <use style="fill:#4c72b0;" x="47.4276158106" xlink:href="#m50bf07ab28" y="239.310955057"/>
     <use style="fill:#4c72b0;" x="47.7465285525" xlink:href="#m50bf07ab28" y="250.8447593"/>
     <use style="fill:#4c72b0;" x="56.8834486421" xlink:href="#m50bf07ab28" y="243.038591424"/>
     <use style="fill:#4c72b0;" x="49.5414045063" xlink:href="#m50bf07ab28" y="251.757687352"/>
     <use style="fill:#4c72b0;" x="49.6283465259" xlink:href="#m50bf07ab28" y="242.81930659"/>
     <use style="fill:#4c72b0;" x="47.3889259611" xlink:href="#m50bf07ab28" y="230.154329679"/>
     <use style="fill:#4c72b0;" x="48.3778978364" xlink:href="#m50bf07ab28" y="251.958772768"/>
     <use style="fill:#4c72b0;" x="49.8506704345" xlink:href="#m50bf07ab28" y="240.005046376"/>
     <use style="fill:#4c72b0;" x="50.2020163351" xlink:href="#m50bf07ab28" y="245.839383796"/>
     <use style="fill:#4c72b0;" x="50.4098415554" xlink:href="#m50bf07ab28" y="246.77645286"/>
     <use style="fill:#4c72b0;" x="49.6960490751" xlink:href="#m50bf07ab28" y="251.233498295"/>
     <use style="fill:#4c72b0;" x="49.7962366082" xlink:href="#m50bf07ab28" y="240.748794674"/>
     <use style="fill:#4c72b0;" x="48.9664600329" xlink:href="#m50bf07ab28" y="236.890405277"/>
     <use style="fill:#4c72b0;" x="51.5853105395" xlink:href="#m50bf07ab28" y="250.010422119"/>
     <use style="fill:#4c72b0;" x="54.0579784755" xlink:href="#m50bf07ab28" y="215.373388529"/>
     <use style="fill:#4c72b0;" x="54.5501884477" xlink:href="#m50bf07ab28" y="181.552850307"/>
     <use style="fill:#4c72b0;" x="66.3008569321" xlink:href="#m50bf07ab28" y="251.321509989"/>
     <use style="fill:#4c72b0;" x="80.7644184945" xlink:href="#m50bf07ab28" y="228.284617582"/>
     <use style="fill:#4c72b0;" x="255.005497438" xlink:href="#m50bf07ab28" y="223.999512514"/>
     <use style="fill:#4c72b0;" x="131.121417425" xlink:href="#m50bf07ab28" y="251.889018876"/>
     <use style="fill:#4c72b0;" x="125.763627238" xlink:href="#m50bf07ab28" y="231.851825056"/>
     <use style="fill:#4c72b0;" x="121.994367213" xlink:href="#m50bf07ab28" y="227.881195375"/>
     <use style="fill:#4c72b0;" x="128.201791712" xlink:href="#m50bf07ab28" y="212.003044786"/>
     <use style="fill:#4c72b0;" x="59.2389068656" xlink:href="#m50bf07ab28" y="241.705828313"/>
     <use style="fill:#4c72b0;" x="58.2207748114" xlink:href="#m50bf07ab28" y="247.509098375"/>
     <use style="fill:#4c72b0;" x="50.6198637348" xlink:href="#m50bf07ab28" y="250.336976283"/>
     <use style="fill:#4c72b0;" x="129.93775809" xlink:href="#m50bf07ab28" y="242.909193886"/>
     <use style="fill:#4c72b0;" x="80.7366772238" xlink:href="#m50bf07ab28" y="247.691625795"/>
     <use style="fill:#4c72b0;" x="61.5453837084" xlink:href="#m50bf07ab28" y="246.211747888"/>
     <use style="fill:#4c72b0;" x="61.2978584547" xlink:href="#m50bf07ab28" y="246.978359308"/>
     <use style="fill:#4c72b0;" x="50.4682586878" xlink:href="#m50bf07ab28" y="251.452803076"/>
     <use style="fill:#4c72b0;" x="48.4791941418" xlink:href="#m50bf07ab28" y="249.334318574"/>
     <use style="fill:#4c72b0;" x="49.0150999786" xlink:href="#m50bf07ab28" y="249.152216752"/>
     <use style="fill:#4c72b0;" x="48.4821606862" xlink:href="#m50bf07ab28" y="249.530600285"/>
     <use style="fill:#4c72b0;" x="50.7519323915" xlink:href="#m50bf07ab28" y="248.192515793"/>
     <use style="fill:#4c72b0;" x="59.4370230865" xlink:href="#m50bf07ab28" y="251.347531696"/>
     <use style="fill:#4c72b0;" x="46.4271805681" xlink:href="#m50bf07ab28" y="248.619241316"/>
     <use style="fill:#4c72b0;" x="46.3851935638" xlink:href="#m50bf07ab28" y="251.40495924"/>
     <use style="fill:#4c72b0;" x="48.5639400547" xlink:href="#m50bf07ab28" y="249.694604375"/>
     <use style="fill:#4c72b0;" x="46.0712244349" xlink:href="#m50bf07ab28" y="248.790836561"/>
     <use style="fill:#4c72b0;" x="51.1464441597" xlink:href="#m50bf07ab28" y="251.699294687"/>
     <use style="fill:#4c72b0;" x="47.7768659127" xlink:href="#m50bf07ab28" y="251.818732711"/>
     <use style="fill:#4c72b0;" x="45.7884172941" xlink:href="#m50bf07ab28" y="251.811973247"/>
     <use style="fill:#4c72b0;" x="47.1077681087" xlink:href="#m50bf07ab28" y="251.012219387"/>
     <use style="fill:#4c72b0;" x="46.6552169722" xlink:href="#m50bf07ab28" y="250.495160292"/>
     <use style="fill:#4c72b0;" x="47.2930808857" xlink:href="#m50bf07ab28" y="251.280901632"/>
     <use style="fill:#4c72b0;" x="47.6250814735" xlink:href="#m50bf07ab28" y="251.671333898"/>
     <use style="fill:#4c72b0;" x="47.9842091597" xlink:href="#m50bf07ab28" y="247.37743041"/>
     <use style="fill:#4c72b0;" x="51.3158627521" xlink:href="#m50bf07ab28" y="245.61358301"/>
     <use style="fill:#4c72b0;" x="50.494550091" xlink:href="#m50bf07ab28" y="246.926186931"/>
     <use style="fill:#4c72b0;" x="48.8995473015" xlink:href="#m50bf07ab28" y="251.370557336"/>
     <use style="fill:#4c72b0;" x="49.0780356912" xlink:href="#m50bf07ab28" y="251.127610973"/>
     <use style="fill:#4c72b0;" x="121.808359929" xlink:href="#m50bf07ab28" y="249.665058419"/>
     <use style="fill:#4c72b0;" x="49.7942218813" xlink:href="#m50bf07ab28" y="249.523369244"/>
     <use style="fill:#4c72b0;" x="47.2065697258" xlink:href="#m50bf07ab28" y="247.699698424"/>
     <use style="fill:#4c72b0;" x="48.8515016575" xlink:href="#m50bf07ab28" y="251.474620142"/>
     <use style="fill:#4c72b0;" x="49.2578743703" xlink:href="#m50bf07ab28" y="251.018932387"/>
     <use style="fill:#4c72b0;" x="50.6236145942" xlink:href="#m50bf07ab28" y="251.70866871"/>
     <use style="fill:#4c72b0;" x="49.3749222707" xlink:href="#m50bf07ab28" y="247.192936162"/>
     <use style="fill:#4c72b0;" x="49.1138771303" xlink:href="#m50bf07ab28" y="248.271843039"/>
     <use style="fill:#4c72b0;" x="66.8934443916" xlink:href="#m50bf07ab28" y="247.128380922"/>
     <use style="fill:#4c72b0;" x="50.2558382563" xlink:href="#m50bf07ab28" y="240.501063946"/>
     <use style="fill:#4c72b0;" x="55.5881423578" xlink:href="#m50bf07ab28" y="250.211768806"/>
     <use style="fill:#4c72b0;" x="51.2109455249" xlink:href="#m50bf07ab28" y="250.627677021"/>
     <use style="fill:#4c72b0;" x="49.709164581" xlink:href="#m50bf07ab28" y="240.546036056"/>
     <use style="fill:#4c72b0;" x="48.913456018" xlink:href="#m50bf07ab28" y="246.618581695"/>
     <use style="fill:#4c72b0;" x="51.0939952182" xlink:href="#m50bf07ab28" y="248.015031819"/>
     <use style="fill:#4c72b0;" x="54.9592203722" xlink:href="#m50bf07ab28" y="251.290690278"/>
     <use style="fill:#4c72b0;" x="49.7504680961" xlink:href="#m50bf07ab28" y="246.301686362"/>
     <use style="fill:#4c72b0;" x="50.9586789608" xlink:href="#m50bf07ab28" y="251.109045178"/>
     <use style="fill:#4c72b0;" x="55.3087062396" xlink:href="#m50bf07ab28" y="251.942190076"/>
     <use style="fill:#4c72b0;" x="52.8625277208" xlink:href="#m50bf07ab28" y="247.262984471"/>
     <use style="fill:#4c72b0;" x="50.8498415329" xlink:href="#m50bf07ab28" y="249.335082681"/>
     <use style="fill:#4c72b0;" x="117.923617219" xlink:href="#m50bf07ab28" y="232.884386813"/>
     <use style="fill:#4c72b0;" x="57.6148100943" xlink:href="#m50bf07ab28" y="249.813726243"/>
     <use style="fill:#4c72b0;" x="50.2847924752" xlink:href="#m50bf07ab28" y="231.353545088"/>
     <use style="fill:#4c72b0;" x="94.4740451536" xlink:href="#m50bf07ab28" y="244.243469155"/>
     <use style="fill:#4c72b0;" x="50.517277953" xlink:href="#m50bf07ab28" y="246.000540792"/>
     <use style="fill:#4c72b0;" x="47.975701084" xlink:href="#m50bf07ab28" y="247.609228986"/>
     <use style="fill:#4c72b0;" x="49.2805164783" xlink:href="#m50bf07ab28" y="251.277041201"/>
     <use style="fill:#4c72b0;" x="49.1564394132" xlink:href="#m50bf07ab28" y="251.424137996"/>
     <use style="fill:#4c72b0;" x="47.8157294588" xlink:href="#m50bf07ab28" y="251.796245926"/>
     <use style="fill:#4c72b0;" x="51.0501269047" xlink:href="#m50bf07ab28" y="251.664934594"/>
     <use style="fill:#4c72b0;" x="48.337555953" xlink:href="#m50bf07ab28" y="248.607020467"/>
     <use style="fill:#4c72b0;" x="47.5201491476" xlink:href="#m50bf07ab28" y="244.840436892"/>
     <use style="fill:#4c72b0;" x="48.1623271581" xlink:href="#m50bf07ab28" y="251.411078055"/>
     <use style="fill:#4c72b0;" x="48.794478589" xlink:href="#m50bf07ab28" y="250.474025323"/>
     <use style="fill:#4c72b0;" x="46.9581156506" xlink:href="#m50bf07ab28" y="251.294752202"/>
     <use style="fill:#4c72b0;" x="49.8980989144" xlink:href="#m50bf07ab28" y="247.899231907"/>
     <use style="fill:#4c72b0;" x="47.9974690374" xlink:href="#m50bf07ab28" y="249.787095741"/>
     <use style="fill:#4c72b0;" x="53.1758139678" xlink:href="#m50bf07ab28" y="246.31533778"/>
     <use style="fill:#4c72b0;" x="51.1556914565" xlink:href="#m50bf07ab28" y="248.619762519"/>
     <use style="fill:#4c72b0;" x="50.8785000526" xlink:href="#m50bf07ab28" y="250.531519475"/>
     <use style="fill:#4c72b0;" x="59.4185592915" xlink:href="#m50bf07ab28" y="250.906740879"/>
     <use style="fill:#4c72b0;" x="50.5608975014" xlink:href="#m50bf07ab28" y="248.248042846"/>
     <use style="fill:#4c72b0;" x="65.9278884977" xlink:href="#m50bf07ab28" y="244.396844958"/>
     <use style="fill:#4c72b0;" x="77.9316337493" xlink:href="#m50bf07ab28" y="251.778739581"/>
     <use style="fill:#4c72b0;" x="57.0735194969" xlink:href="#m50bf07ab28" y="243.576389418"/>
     <use style="fill:#4c72b0;" x="66.8885157651" xlink:href="#m50bf07ab28" y="247.794872921"/>
     <use style="fill:#4c72b0;" x="79.1876504995" xlink:href="#m50bf07ab28" y="247.221090135"/>
     <use style="fill:#4c72b0;" x="115.564710771" xlink:href="#m50bf07ab28" y="246.920875645"/>
     <use style="fill:#4c72b0;" x="66.0161690326" xlink:href="#m50bf07ab28" y="251.691886576"/>
     <use style="fill:#4c72b0;" x="54.9058372864" xlink:href="#m50bf07ab28" y="251.833324454"/>
     <use style="fill:#4c72b0;" x="48.0355782757" xlink:href="#m50bf07ab28" y="248.3570316"/>
     <use style="fill:#4c72b0;" x="49.6967370021" xlink:href="#m50bf07ab28" y="247.187809031"/>
     <use style="fill:#4c72b0;" x="49.0825958256" xlink:href="#m50bf07ab28" y="251.064087557"/>
     <use style="fill:#4c72b0;" x="57.2980201658" xlink:href="#m50bf07ab28" y="251.788793308"/>
     <use style="fill:#4c72b0;" x="49.9060235781" xlink:href="#m50bf07ab28" y="250.757536648"/>
     <use style="fill:#4c72b0;" x="47.1975836544" xlink:href="#m50bf07ab28" y="251.617422819"/>
     <use style="fill:#4c72b0;" x="50.0005270301" xlink:href="#m50bf07ab28" y="249.671834912"/>
     <use style="fill:#4c72b0;" x="50.2579354298" xlink:href="#m50bf07ab28" y="248.998103328"/>
     <use style="fill:#4c72b0;" x="79.5596875635" xlink:href="#m50bf07ab28" y="243.01646419"/>
     <use style="fill:#4c72b0;" x="62.5642618314" xlink:href="#m50bf07ab28" y="250.717228606"/>
     <use style="fill:#4c72b0;" x="101.82925618" xlink:href="#m50bf07ab28" y="236.272677461"/>
     <use style="fill:#4c72b0;" x="78.185008033" xlink:href="#m50bf07ab28" y="217.430794587"/>
     <use style="fill:#4c72b0;" x="126.960160682" xlink:href="#m50bf07ab28" y="251.458655148"/>
     <use style="fill:#4c72b0;" x="128.385080665" xlink:href="#m50bf07ab28" y="249.594762038"/>
     <use style="fill:#4c72b0;" x="110.953991787" xlink:href="#m50bf07ab28" y="251.089637946"/>
     <use style="fill:#4c72b0;" x="115.62670541" xlink:href="#m50bf07ab28" y="243.769606795"/>
     <use style="fill:#4c72b0;" x="57.212106004" xlink:href="#m50bf07ab28" y="229.653547935"/>
     <use style="fill:#4c72b0;" x="55.2580537371" xlink:href="#m50bf07ab28" y="240.82380609"/>
     <use style="fill:#4c72b0;" x="51.1756691371" xlink:href="#m50bf07ab28" y="247.717841159"/>
     <use style="fill:#4c72b0;" x="50.1277188292" xlink:href="#m50bf07ab28" y="250.931621793"/>
     <use style="fill:#4c72b0;" x="51.0284010214" xlink:href="#m50bf07ab28" y="242.166825408"/>
     <use style="fill:#4c72b0;" x="82.2179771274" xlink:href="#m50bf07ab28" y="241.552192943"/>
     <use style="fill:#4c72b0;" x="49.2423439504" xlink:href="#m50bf07ab28" y="236.074251422"/>
     <use style="fill:#4c72b0;" x="49.4584462352" xlink:href="#m50bf07ab28" y="248.137482253"/>
     <use style="fill:#4c72b0;" x="51.1703976452" xlink:href="#m50bf07ab28" y="249.825092741"/>
     <use style="fill:#4c72b0;" x="48.5591619398" xlink:href="#m50bf07ab28" y="250.713548559"/>
     <use style="fill:#4c72b0;" x="50.2228046118" xlink:href="#m50bf07ab28" y="246.775144561"/>
     <use style="fill:#4c72b0;" x="46.30230878" xlink:href="#m50bf07ab28" y="238.824374367"/>
     <use style="fill:#4c72b0;" x="51.4999921642" xlink:href="#m50bf07ab28" y="250.354652613"/>
     <use style="fill:#4c72b0;" x="49.4813414058" xlink:href="#m50bf07ab28" y="250.554572346"/>
     <use style="fill:#4c72b0;" x="49.5993658618" xlink:href="#m50bf07ab28" y="244.440190087"/>
     <use style="fill:#4c72b0;" x="50.5756680159" xlink:href="#m50bf07ab28" y="249.915645244"/>
     <use style="fill:#4c72b0;" x="47.489739743" xlink:href="#m50bf07ab28" y="248.755101423"/>
     <use style="fill:#4c72b0;" x="49.1718729923" xlink:href="#m50bf07ab28" y="235.024331111"/>
     <use style="fill:#4c72b0;" x="47.5660499744" xlink:href="#m50bf07ab28" y="241.571788358"/>
     <use style="fill:#4c72b0;" x="47.566987666" xlink:href="#m50bf07ab28" y="249.518566634"/>
     <use style="fill:#4c72b0;" x="54.2716178902" xlink:href="#m50bf07ab28" y="250.304115036"/>
     <use style="fill:#4c72b0;" x="85.9532417053" xlink:href="#m50bf07ab28" y="249.928513185"/>
     <use style="fill:#4c72b0;" x="83.6929508178" xlink:href="#m50bf07ab28" y="248.558708231"/>
     <use style="fill:#4c72b0;" x="49.8865050135" xlink:href="#m50bf07ab28" y="244.96784621"/>
     <use style="fill:#4c72b0;" x="50.7260641831" xlink:href="#m50bf07ab28" y="247.639951876"/>
     <use style="fill:#4c72b0;" x="49.0622525051" xlink:href="#m50bf07ab28" y="244.249458065"/>
     <use style="fill:#4c72b0;" x="49.3089861275" xlink:href="#m50bf07ab28" y="249.863423118"/>
     <use style="fill:#4c72b0;" x="49.9352132856" xlink:href="#m50bf07ab28" y="242.53398745"/>
     <use style="fill:#4c72b0;" x="48.664257044" xlink:href="#m50bf07ab28" y="251.990799578"/>
     <use style="fill:#4c72b0;" x="48.2596853962" xlink:href="#m50bf07ab28" y="247.851582184"/>
     <use style="fill:#4c72b0;" x="49.2667085779" xlink:href="#m50bf07ab28" y="251.775245756"/>
     <use style="fill:#4c72b0;" x="63.3167237504" xlink:href="#m50bf07ab28" y="250.05751681"/>
     <use style="fill:#4c72b0;" x="87.4340758633" xlink:href="#m50bf07ab28" y="250.735419753"/>
     <use style="fill:#4c72b0;" x="54.5105902789" xlink:href="#m50bf07ab28" y="249.670955739"/>
     <use style="fill:#4c72b0;" x="48.3079912884" xlink:href="#m50bf07ab28" y="250.46800883"/>
     <use style="fill:#4c72b0;" x="48.4954365658" xlink:href="#m50bf07ab28" y="249.466166618"/>
     <use style="fill:#4c72b0;" x="50.490387469" xlink:href="#m50bf07ab28" y="250.873254579"/>
     <use style="fill:#4c72b0;" x="50.6014123922" xlink:href="#m50bf07ab28" y="251.969421125"/>
     <use style="fill:#4c72b0;" x="49.7533951418" xlink:href="#m50bf07ab28" y="251.009296586"/>
     <use style="fill:#4c72b0;" x="48.4181169803" xlink:href="#m50bf07ab28" y="251.849311763"/>
     <use style="fill:#4c72b0;" x="50.6265986631" xlink:href="#m50bf07ab28" y="246.239112089"/>
     <use style="fill:#4c72b0;" x="53.9467625616" xlink:href="#m50bf07ab28" y="236.390642099"/>
     <use style="fill:#4c72b0;" x="50.7985199368" xlink:href="#m50bf07ab28" y="250.277513873"/>
     <use style="fill:#4c72b0;" x="86.7382055434" xlink:href="#m50bf07ab28" y="249.549775088"/>
     <use style="fill:#4c72b0;" x="50.3231297126" xlink:href="#m50bf07ab28" y="242.184508974"/>
     <use style="fill:#4c72b0;" x="50.7053048165" xlink:href="#m50bf07ab28" y="240.523017242"/>
     <use style="fill:#4c72b0;" x="50.7652818918" xlink:href="#m50bf07ab28" y="247.482139338"/>
     <use style="fill:#4c72b0;" x="66.3248896634" xlink:href="#m50bf07ab28" y="248.450957399"/>
     <use style="fill:#4c72b0;" x="65.0608683625" xlink:href="#m50bf07ab28" y="250.893794484"/>
     <use style="fill:#4c72b0;" x="57.3204985326" xlink:href="#m50bf07ab28" y="248.31461746"/>
     <use style="fill:#4c72b0;" x="49.5296074867" xlink:href="#m50bf07ab28" y="247.755058107"/>
     <use style="fill:#4c72b0;" x="50.3533358249" xlink:href="#m50bf07ab28" y="241.082175445"/>
     <use style="fill:#4c72b0;" x="52.2995048225" xlink:href="#m50bf07ab28" y="251.267175926"/>
     <use style="fill:#4c72b0;" x="69.2975129239" xlink:href="#m50bf07ab28" y="251.248707453"/>
     <use style="fill:#4c72b0;" x="52.3234312538" xlink:href="#m50bf07ab28" y="240.542498443"/>
     <use style="fill:#4c72b0;" x="56.2656927534" xlink:href="#m50bf07ab28" y="244.824452451"/>
     <use style="fill:#4c72b0;" x="49.9627015632" xlink:href="#m50bf07ab28" y="247.190120571"/>
     <use style="fill:#4c72b0;" x="55.561817892" xlink:href="#m50bf07ab28" y="251.190332697"/>
     <use style="fill:#4c72b0;" x="62.3246492279" xlink:href="#m50bf07ab28" y="245.39382356"/>
     <use style="fill:#4c72b0;" x="55.0187556194" xlink:href="#m50bf07ab28" y="243.596064504"/>
     <use style="fill:#4c72b0;" x="58.2160893884" xlink:href="#m50bf07ab28" y="243.444889553"/>
     <use style="fill:#4c72b0;" x="79.7363061451" xlink:href="#m50bf07ab28" y="247.289216073"/>
     <use style="fill:#4c72b0;" x="54.6209633969" xlink:href="#m50bf07ab28" y="249.110561489"/>
     <use style="fill:#4c72b0;" x="73.4693153452" xlink:href="#m50bf07ab28" y="251.949829238"/>
     <use style="fill:#4c72b0;" x="54.1851584742" xlink:href="#m50bf07ab28" y="249.214357672"/>
     <use style="fill:#4c72b0;" x="49.5893823802" xlink:href="#m50bf07ab28" y="251.933246888"/>
     <use style="fill:#4c72b0;" x="50.8954655219" xlink:href="#m50bf07ab28" y="251.830133742"/>
     <use style="fill:#4c72b0;" x="57.866268669" xlink:href="#m50bf07ab28" y="251.81769809"/>
     <use style="fill:#4c72b0;" x="56.0853188062" xlink:href="#m50bf07ab28" y="250.03859144"/>
     <use style="fill:#4c72b0;" x="54.6487952786" xlink:href="#m50bf07ab28" y="248.617957952"/>
     <use style="fill:#4c72b0;" x="55.2248049862" xlink:href="#m50bf07ab28" y="251.688168883"/>
     <use style="fill:#4c72b0;" x="67.1428815232" xlink:href="#m50bf07ab28" y="238.216767866"/>
    </g>
   </g>
   <g id="line2d_20">
    <defs>
     <path d="M 0 1.25 
C 0.331504 1.25 0.649475 1.118292 0.883883 0.883883 
C 1.118292 0.649475 1.25 0.331504 1.25 0 
C 1.25 -0.331504 1.118292 -0.649475 0.883883 -0.883883 
C 0.649475 -1.118292 0.331504 -1.25 0 -1.25 
C -0.331504 -1.25 -0.649475 -1.118292 -0.883883 -0.883883 
C -1.118292 -0.649475 -1.25 -0.331504 -1.25 0 
C -1.25 0.331504 -1.118292 0.649475 -0.883883 0.883883 
C -0.649475 1.118292 -0.331504 1.25 0 1.25 
z
" id="md2ffcd5810"/>
    </defs>
    <g clip-path="url(#p9ab5a2111b)">
     <use style="fill:#c44e52;" x="52.4037955788" xlink:href="#md2ffcd5810" y="232.826431452"/>
     <use style="fill:#c44e52;" x="49.0078113444" xlink:href="#md2ffcd5810" y="247.344004075"/>
     <use style="fill:#c44e52;" x="47.5068495344" xlink:href="#md2ffcd5810" y="250.026389303"/>
     <use style="fill:#c44e52;" x="49.7046450034" xlink:href="#md2ffcd5810" y="223.187626601"/>
     <use style="fill:#c44e52;" x="52.0865065754" xlink:href="#md2ffcd5810" y="235.065284818"/>
     <use style="fill:#c44e52;" x="52.972038993" xlink:href="#md2ffcd5810" y="228.871032338"/>
     <use style="fill:#c44e52;" x="88.9600813986" xlink:href="#md2ffcd5810" y="249.762364924"/>
     <use style="fill:#c44e52;" x="107.433710666" xlink:href="#md2ffcd5810" y="225.610715133"/>
     <use style="fill:#c44e52;" x="47.6399800962" xlink:href="#md2ffcd5810" y="202.469964995"/>
     <use style="fill:#c44e52;" x="49.5849487756" xlink:href="#md2ffcd5810" y="248.197153224"/>
     <use style="fill:#c44e52;" x="47.7133983725" xlink:href="#md2ffcd5810" y="248.497553571"/>
     <use style="fill:#c44e52;" x="47.6825976988" xlink:href="#md2ffcd5810" y="239.093865967"/>
     <use style="fill:#c44e52;" x="48.6275821007" xlink:href="#md2ffcd5810" y="216.977808817"/>
     <use style="fill:#c44e52;" x="48.6419390817" xlink:href="#md2ffcd5810" y="231.815526934"/>
     <use style="fill:#c44e52;" x="57.912513811" xlink:href="#md2ffcd5810" y="235.309997555"/>
     <use style="fill:#c44e52;" x="48.7466024102" xlink:href="#md2ffcd5810" y="231.392942453"/>
     <use style="fill:#c44e52;" x="53.4874961698" xlink:href="#md2ffcd5810" y="175.834609466"/>
     <use style="fill:#c44e52;" x="47.8247163173" xlink:href="#md2ffcd5810" y="245.448559264"/>
     <use style="fill:#c44e52;" x="48.4343421612" xlink:href="#md2ffcd5810" y="229.493489385"/>
     <use style="fill:#c44e52;" x="47.9887102264" xlink:href="#md2ffcd5810" y="231.448597932"/>
     <use style="fill:#c44e52;" x="49.5029201549" xlink:href="#md2ffcd5810" y="212.436353768"/>
     <use style="fill:#c44e52;" x="48.1850749719" xlink:href="#md2ffcd5810" y="236.595056404"/>
     <use style="fill:#c44e52;" x="48.8942636862" xlink:href="#md2ffcd5810" y="213.467850738"/>
     <use style="fill:#c44e52;" x="54.708226428" xlink:href="#md2ffcd5810" y="218.444595462"/>
     <use style="fill:#c44e52;" x="49.672388846" xlink:href="#md2ffcd5810" y="238.692804318"/>
     <use style="fill:#c44e52;" x="49.8840369629" xlink:href="#md2ffcd5810" y="241.23071166"/>
     <use style="fill:#c44e52;" x="65.3297270737" xlink:href="#md2ffcd5810" y="234.252075037"/>
     <use style="fill:#c44e52;" x="50.0511626077" xlink:href="#md2ffcd5810" y="243.736311582"/>
     <use style="fill:#c44e52;" x="122.662770767" xlink:href="#md2ffcd5810" y="200.465551617"/>
     <use style="fill:#c44e52;" x="86.1435319604" xlink:href="#md2ffcd5810" y="242.156722459"/>
     <use style="fill:#c44e52;" x="50.6812538777" xlink:href="#md2ffcd5810" y="246.370134297"/>
     <use style="fill:#c44e52;" x="49.9710313035" xlink:href="#md2ffcd5810" y="238.82570675"/>
     <use style="fill:#c44e52;" x="54.7006590215" xlink:href="#md2ffcd5810" y="235.57476512"/>
     <use style="fill:#c44e52;" x="50.4732292848" xlink:href="#md2ffcd5810" y="196.15172722"/>
     <use style="fill:#c44e52;" x="122.097909813" xlink:href="#md2ffcd5810" y="240.37302032"/>
     <use style="fill:#c44e52;" x="51.2158066525" xlink:href="#md2ffcd5810" y="230.556179883"/>
     <use style="fill:#c44e52;" x="79.8023081928" xlink:href="#md2ffcd5810" y="241.151936878"/>
     <use style="fill:#c44e52;" x="47.7539735849" xlink:href="#md2ffcd5810" y="228.893099241"/>
     <use style="fill:#c44e52;" x="49.7178409257" xlink:href="#md2ffcd5810" y="248.238351629"/>
     <use style="fill:#c44e52;" x="48.5676193229" xlink:href="#md2ffcd5810" y="223.210917571"/>
     <use style="fill:#c44e52;" x="47.6741527274" xlink:href="#md2ffcd5810" y="249.83158158"/>
     <use style="fill:#c44e52;" x="47.6150866785" xlink:href="#md2ffcd5810" y="242.64359996"/>
     <use style="fill:#c44e52;" x="50.8614598917" xlink:href="#md2ffcd5810" y="192.553162077"/>
     <use style="fill:#c44e52;" x="47.0630859224" xlink:href="#md2ffcd5810" y="198.506802022"/>
     <use style="fill:#c44e52;" x="50.599355424" xlink:href="#md2ffcd5810" y="242.929938381"/>
     <use style="fill:#c44e52;" x="49.0866128751" xlink:href="#md2ffcd5810" y="215.148092621"/>
     <use style="fill:#c44e52;" x="48.0003596527" xlink:href="#md2ffcd5810" y="246.107653244"/>
     <use style="fill:#c44e52;" x="54.8854673568" xlink:href="#md2ffcd5810" y="240.863131959"/>
     <use style="fill:#c44e52;" x="48.2432797649" xlink:href="#md2ffcd5810" y="226.678252117"/>
     <use style="fill:#c44e52;" x="48.6773123859" xlink:href="#md2ffcd5810" y="214.179065314"/>
     <use style="fill:#c44e52;" x="51.5062494342" xlink:href="#md2ffcd5810" y="188.847551864"/>
     <use style="fill:#c44e52;" x="50.5543381147" xlink:href="#md2ffcd5810" y="218.181474826"/>
     <use style="fill:#c44e52;" x="54.1356737669" xlink:href="#md2ffcd5810" y="244.831404827"/>
     <use style="fill:#c44e52;" x="62.4682364117" xlink:href="#md2ffcd5810" y="218.296552352"/>
     <use style="fill:#c44e52;" x="57.5289031196" xlink:href="#md2ffcd5810" y="230.921430798"/>
     <use style="fill:#c44e52;" x="53.7045660067" xlink:href="#md2ffcd5810" y="239.524929822"/>
     <use style="fill:#c44e52;" x="49.7274673988" xlink:href="#md2ffcd5810" y="196.705141848"/>
     <use style="fill:#c44e52;" x="60.0046042843" xlink:href="#md2ffcd5810" y="247.046494734"/>
     <use style="fill:#c44e52;" x="128.726334963" xlink:href="#md2ffcd5810" y="45.4739574149"/>
    </g>
   </g>
   <g id="line2d_21">
    <path clip-path="url(#p9ab5a2111b)" d="M 125.945143 252 
L 125.945143 28.8 
" style="fill:none;stroke:#808080;stroke-dasharray:6.000000,6.000000;stroke-dashoffset:0.0;stroke-width:1.75;"/>
   </g>
   <g id="patch_3">
    <path d="M 36 252 
L 36 28.8 
" style="fill:none;stroke:#262626;stroke-linecap:square;stroke-linejoin:miter;stroke-width:1.25;"/>
   </g>
   <g id="patch_4">
    <path d="M 36 252 
L 259.2 252 
" style="fill:none;stroke:#262626;stroke-linecap:square;stroke-linejoin:miter;stroke-width:1.25;"/>
   </g>
   <g id="legend_1">
    <g id="line2d_22"/>
    <g id="line2d_23">
     <g>
      <use style="fill:#4c72b0;" x="209.4234375" xlink:href="#m50bf07ab28" y="41.4578125"/>
     </g>
    </g>
    <g id="text_21">
     <!-- Train -->
     <defs>
      <path d="M 6.640625 61.46875 
L 6.640625 71.578125 
L 15.4375 71.578125 
L 15.4375 61.46875 
z
M 6.640625 0 
L 6.640625 51.859375 
L 15.4375 51.859375 
L 15.4375 0 
z
" id="ArialMT-69"/>
      <path d="M 6.59375 0 
L 6.59375 51.859375 
L 14.5 51.859375 
L 14.5 44.484375 
Q 20.21875 53.03125 31 53.03125 
Q 35.6875 53.03125 39.625 51.34375 
Q 43.5625 49.65625 45.515625 46.921875 
Q 47.46875 44.1875 48.25 40.4375 
Q 48.734375 37.984375 48.734375 31.890625 
L 48.734375 0 
L 39.9375 0 
L 39.9375 31.546875 
Q 39.9375 36.921875 38.90625 39.578125 
Q 37.890625 42.234375 35.28125 43.8125 
Q 32.671875 45.40625 29.15625 45.40625 
Q 23.53125 45.40625 19.453125 41.84375 
Q 15.375 38.28125 15.375 28.328125 
L 15.375 0 
z
" id="ArialMT-6e"/>
      <path d="M 25.921875 0 
L 25.921875 63.140625 
L 2.34375 63.140625 
L 2.34375 71.578125 
L 59.078125 71.578125 
L 59.078125 63.140625 
L 35.40625 63.140625 
L 35.40625 0 
z
" id="ArialMT-54"/>
      <path d="M 40.4375 6.390625 
Q 35.546875 2.25 31.03125 0.53125 
Q 26.515625 -1.171875 21.34375 -1.171875 
Q 12.796875 -1.171875 8.203125 3 
Q 3.609375 7.171875 3.609375 13.671875 
Q 3.609375 17.484375 5.34375 20.625 
Q 7.078125 23.78125 9.890625 25.6875 
Q 12.703125 27.59375 16.21875 28.5625 
Q 18.796875 29.25 24.03125 29.890625 
Q 34.671875 31.15625 39.703125 32.90625 
Q 39.75 34.71875 39.75 35.203125 
Q 39.75 40.578125 37.25 42.78125 
Q 33.890625 45.75 27.25 45.75 
Q 21.046875 45.75 18.09375 43.578125 
Q 15.140625 41.40625 13.71875 35.890625 
L 5.125 37.0625 
Q 6.296875 42.578125 8.984375 45.96875 
Q 11.671875 49.359375 16.75 51.1875 
Q 21.828125 53.03125 28.515625 53.03125 
Q 35.15625 53.03125 39.296875 51.46875 
Q 43.453125 49.90625 45.40625 47.53125 
Q 47.359375 45.171875 48.140625 41.546875 
Q 48.578125 39.3125 48.578125 33.453125 
L 48.578125 21.734375 
Q 48.578125 9.46875 49.140625 6.21875 
Q 49.703125 2.984375 51.375 0 
L 42.1875 0 
Q 40.828125 2.734375 40.4375 6.390625 
M 39.703125 26.03125 
Q 34.90625 24.078125 25.34375 22.703125 
Q 19.921875 21.921875 17.671875 20.9375 
Q 15.4375 19.96875 14.203125 18.09375 
Q 12.984375 16.21875 12.984375 13.921875 
Q 12.984375 10.40625 15.640625 8.0625 
Q 18.3125 5.71875 23.4375 5.71875 
Q 28.515625 5.71875 32.46875 7.9375 
Q 36.421875 10.15625 38.28125 14.015625 
Q 39.703125 17 39.703125 22.796875 
z
" id="ArialMT-61"/>
     </defs>
     <g style="fill:#262626;" transform="translate(227.4234375 44.9578125)scale(0.1 -0.1)">
      <use xlink:href="#ArialMT-54"/>
      <use x="61.037109375" xlink:href="#ArialMT-72"/>
      <use x="94.337890625" xlink:href="#ArialMT-61"/>
      <use x="149.953125" xlink:href="#ArialMT-69"/>
      <use x="172.169921875" xlink:href="#ArialMT-6e"/>
     </g>
    </g>
    <g id="line2d_24"/>
    <g id="line2d_25">
     <g>
      <use style="fill:#c44e52;" x="209.4234375" xlink:href="#md2ffcd5810" y="55.603125"/>
     </g>
    </g>
    <g id="text_22">
     <!-- Test -->
     <defs>
      <path d="M 3.078125 15.484375 
L 11.765625 16.84375 
Q 12.5 11.625 15.84375 8.84375 
Q 19.1875 6.0625 25.203125 6.0625 
Q 31.25 6.0625 34.171875 8.515625 
Q 37.109375 10.984375 37.109375 14.3125 
Q 37.109375 17.28125 34.515625 19 
Q 32.71875 20.171875 25.53125 21.96875 
Q 15.875 24.421875 12.140625 26.203125 
Q 8.40625 27.984375 6.46875 31.125 
Q 4.546875 34.28125 4.546875 38.09375 
Q 4.546875 41.546875 6.125 44.5 
Q 7.71875 47.46875 10.453125 49.421875 
Q 12.5 50.921875 16.03125 51.96875 
Q 19.578125 53.03125 23.640625 53.03125 
Q 29.734375 53.03125 34.34375 51.265625 
Q 38.96875 49.515625 41.15625 46.5 
Q 43.359375 43.5 44.1875 38.484375 
L 35.59375 37.3125 
Q 35.015625 41.3125 32.203125 43.546875 
Q 29.390625 45.796875 24.265625 45.796875 
Q 18.21875 45.796875 15.625 43.796875 
Q 13.03125 41.796875 13.03125 39.109375 
Q 13.03125 37.40625 14.109375 36.03125 
Q 15.1875 34.625 17.484375 33.6875 
Q 18.796875 33.203125 25.25 31.453125 
Q 34.578125 28.953125 38.25 27.359375 
Q 41.9375 25.78125 44.03125 22.75 
Q 46.140625 19.734375 46.140625 15.234375 
Q 46.140625 10.84375 43.578125 6.953125 
Q 41.015625 3.078125 36.171875 0.953125 
Q 31.34375 -1.171875 25.25 -1.171875 
Q 15.140625 -1.171875 9.84375 3.03125 
Q 4.546875 7.234375 3.078125 15.484375 
" id="ArialMT-73"/>
      <path d="M 42.09375 16.703125 
L 51.171875 15.578125 
Q 49.03125 7.625 43.21875 3.21875 
Q 37.40625 -1.171875 28.375 -1.171875 
Q 17 -1.171875 10.328125 5.828125 
Q 3.65625 12.84375 3.65625 25.484375 
Q 3.65625 38.578125 10.390625 45.796875 
Q 17.140625 53.03125 27.875 53.03125 
Q 38.28125 53.03125 44.875 45.953125 
Q 51.46875 38.875 51.46875 26.03125 
Q 51.46875 25.25 51.421875 23.6875 
L 12.75 23.6875 
Q 13.234375 15.140625 17.578125 10.59375 
Q 21.921875 6.0625 28.421875 6.0625 
Q 33.25 6.0625 36.671875 8.59375 
Q 40.09375 11.140625 42.09375 16.703125 
M 13.234375 30.90625 
L 42.1875 30.90625 
Q 41.609375 37.453125 38.875 40.71875 
Q 34.671875 45.796875 27.984375 45.796875 
Q 21.921875 45.796875 17.796875 41.75 
Q 13.671875 37.703125 13.234375 30.90625 
" id="ArialMT-65"/>
      <path d="M 25.78125 7.859375 
L 27.046875 0.09375 
Q 23.34375 -0.6875 20.40625 -0.6875 
Q 15.625 -0.6875 12.984375 0.828125 
Q 10.359375 2.34375 9.28125 4.8125 
Q 8.203125 7.28125 8.203125 15.1875 
L 8.203125 45.015625 
L 1.765625 45.015625 
L 1.765625 51.859375 
L 8.203125 51.859375 
L 8.203125 64.703125 
L 16.9375 69.96875 
L 16.9375 51.859375 
L 25.78125 51.859375 
L 25.78125 45.015625 
L 16.9375 45.015625 
L 16.9375 14.703125 
Q 16.9375 10.9375 17.40625 9.859375 
Q 17.875 8.796875 18.921875 8.15625 
Q 19.96875 7.515625 21.921875 7.515625 
Q 23.390625 7.515625 25.78125 7.859375 
" id="ArialMT-74"/>
     </defs>
     <g style="fill:#262626;" transform="translate(227.4234375 59.103125)scale(0.1 -0.1)">
      <use xlink:href="#ArialMT-54"/>
      <use x="60.912109375" xlink:href="#ArialMT-65"/>
      <use x="116.52734375" xlink:href="#ArialMT-73"/>
      <use x="166.52734375" xlink:href="#ArialMT-74"/>
     </g>
    </g>
   </g>
  </g>
 </g>
 <defs>
  <clipPath id="p9ab5a2111b">
   <rect height="223.2" width="223.2" x="36.0" y="28.8"/>
  </clipPath>
 </defs>
</svg>
